M48
; DRILL file {KiCad 9.0.4} date 2025-09-15T20:18:06-0400
; FORMAT={-:-/ absolute / inch / decimal}
; #@! TF.CreationDate,2025-09-15T20:18:06-04:00
; #@! TF.GenerationSoftware,Kicad,Pcbnew,9.0.4
; #@! TF.FileFunction,Plated,1,2,PTH
FMAT,2
INCH
; #@! TA.AperFunction,Plated,PTH,ViaDrill
T1C0.0118
; #@! TA.AperFunction,Plated,PTH,ViaDrill
T2C0.0197
; #@! TA.AperFunction,Plated,PTH,ComponentDrill
T3C0.0197
; #@! TA.AperFunction,Plated,PTH,ComponentDrill
T4C0.0236
; #@! TA.AperFunction,Plated,PTH,ComponentDrill
T5C0.0299
; #@! TA.AperFunction,Plated,PTH,ComponentDrill
T6C0.0394
; #@! TA.AperFunction,Plated,PTH,ComponentDrill
T7C0.0512
; #@! TA.AperFunction,Plated,PTH,ComponentDrill
T8C0.1260
%
G90
G05
T1
X2.5177Y-1.9155
X2.5177Y-3.8052
X2.5177Y-5.695
X2.5413Y-1.8938
X2.5413Y-3.7836
X2.5413Y-5.6733
X2.5433Y-2.382
X2.5433Y-4.2718
X2.5433Y-6.1615
X2.5728Y-2.3525
X2.5728Y-4.2422
X2.5728Y-6.132
X2.5827Y-2.0473
X2.5827Y-3.9371
X2.5827Y-5.8269
X2.6122Y-2.0178
X2.6122Y-3.9076
X2.6122Y-5.7973
X2.7343Y-2.132
X2.7343Y-4.0218
X2.7343Y-5.9115
X2.7358Y-2.171
X2.7358Y-4.0607
X2.7358Y-5.9505
X2.7402Y-2.0926
X2.7402Y-2.2836
X2.7402Y-3.9824
X2.7402Y-4.1733
X2.7402Y-5.8721
X2.7402Y-6.0631
X2.7531Y-2.204
X2.7531Y-4.0938
X2.7531Y-5.9836
X2.8681Y-2.4804
X2.8681Y-4.3702
X2.8681Y-6.2599
X2.9715Y-2.4361
X2.9715Y-4.3259
X2.9715Y-6.2157
X2.9862Y-2.504
X2.9862Y-4.3938
X2.9862Y-6.2836
X3.0776Y-1.2563
X3.0776Y-3.1461
X3.0776Y-5.0358
X3.124Y-2.3328
X3.124Y-4.2225
X3.124Y-6.1123
X3.1929Y-2.5296
X3.1929Y-4.4194
X3.1929Y-6.3092
X3.2815Y-2.3328
X3.2815Y-4.2225
X3.2815Y-6.1123
X3.2901Y-1.2563
X3.2901Y-1.4188
X3.2901Y-3.1461
X3.2901Y-3.3086
X3.2901Y-5.0358
X3.2901Y-5.1983
X3.3209Y-2.504
X3.3209Y-4.3938
X3.3209Y-6.2836
X3.3276Y-1.6688
X3.3276Y-1.8188
X3.3276Y-3.5586
X3.3276Y-3.7086
X3.3276Y-5.4483
X3.3276Y-5.5983
X3.3701Y-2.4804
X3.3701Y-4.3702
X3.3701Y-6.2599
X3.4193Y-2.4509
X3.4193Y-4.3407
X3.4193Y-6.2304
X3.4882Y-1.7422
X3.4882Y-3.632
X3.4882Y-5.5218
X3.5079Y-1.7718
X3.5079Y-3.6615
X3.5079Y-5.5513
X5.8821Y-1.9155
X5.8821Y-3.8052
X5.8821Y-5.695
X5.9057Y-1.8938
X5.9057Y-3.7836
X5.9057Y-5.6733
X5.9077Y-2.382
X5.9077Y-4.2718
X5.9077Y-6.1615
X5.9372Y-2.3525
X5.9372Y-4.2422
X5.9372Y-6.132
X5.947Y-2.0473
X5.947Y-3.9371
X5.947Y-5.8269
X5.9766Y-2.0178
X5.9766Y-3.9076
X5.9766Y-5.7973
X6.0986Y-2.132
X6.0986Y-4.0218
X6.0986Y-5.9115
X6.1002Y-2.171
X6.1002Y-4.0607
X6.1002Y-5.9505
X6.1045Y-2.0926
X6.1045Y-2.2836
X6.1045Y-3.9824
X6.1045Y-4.1733
X6.1045Y-5.8721
X6.1045Y-6.0631
X6.1174Y-2.204
X6.1174Y-4.0938
X6.1174Y-5.9836
X6.2325Y-2.4804
X6.2325Y-4.3702
X6.2325Y-6.2599
X6.3358Y-2.4361
X6.3358Y-4.3259
X6.3358Y-6.2157
X6.3506Y-2.504
X6.3506Y-4.3938
X6.3506Y-6.2836
X6.4419Y-1.2563
X6.4419Y-3.1461
X6.4419Y-5.0358
X6.4884Y-2.3328
X6.4884Y-4.2225
X6.4884Y-6.1123
X6.5573Y-2.5296
X6.5573Y-4.4194
X6.5573Y-6.3092
X6.6459Y-2.3328
X6.6459Y-4.2225
X6.6459Y-6.1123
X6.6544Y-1.2563
X6.6544Y-1.4188
X6.6544Y-3.1461
X6.6544Y-3.3086
X6.6544Y-5.0358
X6.6544Y-5.1983
X6.6852Y-2.504
X6.6852Y-4.3938
X6.6852Y-6.2836
X6.6919Y-1.6688
X6.6919Y-1.8188
X6.6919Y-3.5586
X6.6919Y-3.7086
X6.6919Y-5.4483
X6.6919Y-5.5983
X6.7344Y-2.4804
X6.7344Y-4.3702
X6.7344Y-6.2599
X6.7837Y-2.4509
X6.7837Y-4.3407
X6.7837Y-6.2304
X6.8526Y-1.7422
X6.8526Y-3.632
X6.8526Y-5.5218
X6.8722Y-1.7718
X6.8722Y-3.6615
X6.8722Y-5.5513
T2
X2.4331Y-1.882
X2.4331Y-3.7718
X2.4331Y-5.6615
X2.4803Y-2.3564
X2.4803Y-4.2462
X2.4803Y-6.1359
X2.9276Y-2.5188
X2.9276Y-4.4086
X2.9276Y-6.2983
X4.2028Y-1.5336
X4.2028Y-3.4233
X4.2028Y-5.3131
X4.4232Y-1.447
X4.4232Y-3.3367
X4.4232Y-5.2265
X4.5418Y-2.5438
X4.5418Y-4.4336
X4.5418Y-6.3233
X5.7974Y-1.882
X5.7974Y-3.7718
X5.7974Y-5.6615
X5.8447Y-2.3564
X5.8447Y-4.2462
X5.8447Y-6.1359
X6.2919Y-2.5188
X6.2919Y-4.4086
X6.2919Y-6.2983
X7.5671Y-1.5336
X7.5671Y-3.4233
X7.5671Y-5.3131
X7.7876Y-1.447
X7.7876Y-3.3367
X7.7876Y-5.2265
X7.9061Y-2.5438
X7.9061Y-4.4336
X7.9061Y-6.3233
T3
X2.2971Y-1.3248
X2.2971Y-2.6969
X2.2971Y-3.2146
X2.2971Y-4.5866
X2.2971Y-5.1044
X2.2971Y-6.4764
X2.3247Y-1.258
X2.3247Y-1.3916
X2.3247Y-2.6301
X2.3247Y-2.7637
X2.3247Y-3.1478
X2.3247Y-3.2814
X2.3247Y-4.5198
X2.3247Y-4.6534
X2.3247Y-5.0375
X2.3247Y-5.1712
X2.3247Y-6.4096
X2.3247Y-6.5432
X2.3915Y-1.2303
X2.3915Y-1.4193
X2.3915Y-2.6024
X2.3915Y-2.7914
X2.3915Y-3.1201
X2.3915Y-3.3091
X2.3915Y-4.4921
X2.3915Y-4.6811
X2.3915Y-5.0099
X2.3915Y-5.1988
X2.3915Y-6.3819
X2.3915Y-6.5709
X2.4584Y-1.258
X2.4584Y-1.3916
X2.4584Y-2.6301
X2.4584Y-2.7637
X2.4584Y-3.1478
X2.4584Y-3.2814
X2.4584Y-4.5198
X2.4584Y-4.6534
X2.4584Y-5.0375
X2.4584Y-5.1712
X2.4584Y-6.4096
X2.4584Y-6.5432
X2.486Y-1.3248
X2.486Y-2.6969
X2.486Y-3.2146
X2.486Y-4.5866
X2.486Y-5.1044
X2.486Y-6.4764
X4.5571Y-1.3248
X4.5571Y-3.2146
X4.5571Y-5.1043
X4.5848Y-1.258
X4.5848Y-1.3916
X4.5848Y-3.1477
X4.5848Y-3.2814
X4.5848Y-5.0375
X4.5848Y-5.1711
X4.6516Y-1.2303
X4.6516Y-1.4193
X4.6516Y-3.1201
X4.6516Y-3.309
X4.6516Y-5.0098
X4.6516Y-5.1988
X4.7184Y-1.258
X4.7184Y-1.3916
X4.7184Y-3.1477
X4.7184Y-3.2814
X4.7184Y-5.0375
X4.7184Y-5.1711
X4.7461Y-1.3248
X4.7461Y-3.2146
X4.7461Y-5.1043
X5.1496Y-2.6969
X5.1496Y-4.5866
X5.1496Y-6.4764
X5.1773Y-2.6301
X5.1773Y-2.7637
X5.1773Y-4.5198
X5.1773Y-4.6534
X5.1773Y-6.4096
X5.1773Y-6.5432
X5.2441Y-2.6024
X5.2441Y-2.7914
X5.2441Y-4.4921
X5.2441Y-4.6811
X5.2441Y-6.3819
X5.2441Y-6.5709
X5.3109Y-2.6301
X5.3109Y-2.7637
X5.3109Y-4.5198
X5.3109Y-4.6534
X5.3109Y-6.4096
X5.3109Y-6.5432
X5.3386Y-2.6969
X5.3386Y-4.5866
X5.3386Y-6.4764
X5.6614Y-1.3248
X5.6614Y-2.6969
X5.6614Y-3.2146
X5.6614Y-4.5866
X5.6614Y-5.1044
X5.6614Y-6.4764
X5.6891Y-1.258
X5.6891Y-1.3916
X5.6891Y-2.6301
X5.6891Y-2.7637
X5.6891Y-3.1478
X5.6891Y-3.2814
X5.6891Y-4.5198
X5.6891Y-4.6534
X5.6891Y-5.0375
X5.6891Y-5.1712
X5.6891Y-6.4096
X5.6891Y-6.5432
X5.7559Y-1.2303
X5.7559Y-1.4193
X5.7559Y-2.6024
X5.7559Y-2.7914
X5.7559Y-3.1201
X5.7559Y-3.3091
X5.7559Y-4.4921
X5.7559Y-4.6811
X5.7559Y-5.0099
X5.7559Y-5.1988
X5.7559Y-6.3819
X5.7559Y-6.5709
X5.8227Y-1.258
X5.8227Y-1.3916
X5.8227Y-2.6301
X5.8227Y-2.7637
X5.8227Y-3.1478
X5.8227Y-3.2814
X5.8227Y-4.5198
X5.8227Y-4.6534
X5.8227Y-5.0375
X5.8227Y-5.1712
X5.8227Y-6.4096
X5.8227Y-6.5432
X5.8504Y-1.3248
X5.8504Y-2.6969
X5.8504Y-3.2146
X5.8504Y-4.5866
X5.8504Y-5.1044
X5.8504Y-6.4764
X7.9215Y-1.3248
X7.9215Y-3.2146
X7.9215Y-5.1043
X7.9491Y-1.258
X7.9491Y-1.3916
X7.9491Y-3.1477
X7.9491Y-3.2814
X7.9491Y-5.0375
X7.9491Y-5.1711
X8.0159Y-1.2303
X8.0159Y-1.4193
X8.0159Y-3.1201
X8.0159Y-3.309
X8.0159Y-5.0098
X8.0159Y-5.1988
X8.0828Y-1.258
X8.0828Y-1.3916
X8.0828Y-3.1477
X8.0828Y-3.2814
X8.0828Y-5.0375
X8.0828Y-5.1711
X8.1104Y-1.3248
X8.1104Y-3.2146
X8.1104Y-5.1043
X8.514Y-2.6969
X8.514Y-4.5866
X8.514Y-6.4764
X8.5416Y-2.6301
X8.5416Y-2.7637
X8.5416Y-4.5198
X8.5416Y-4.6534
X8.5416Y-6.4096
X8.5416Y-6.5432
X8.6085Y-2.6024
X8.6085Y-2.7914
X8.6085Y-4.4921
X8.6085Y-4.6811
X8.6085Y-6.3819
X8.6085Y-6.5709
X8.6753Y-2.6301
X8.6753Y-2.7637
X8.6753Y-4.5198
X8.6753Y-4.6534
X8.6753Y-6.4096
X8.6753Y-6.5432
X8.7029Y-2.6969
X8.7029Y-4.5866
X8.7029Y-6.4764
T5
X2.7639Y-1.7386
X2.7639Y-3.6284
X2.7639Y-5.5181
X2.8139Y-1.6386
X2.8139Y-3.5284
X2.8139Y-5.4181
X2.8639Y-1.7386
X2.8639Y-3.6284
X2.8639Y-5.5181
X2.9139Y-1.6386
X2.9139Y-3.5284
X2.9139Y-5.4181
X2.9639Y-1.7386
X2.9639Y-3.6284
X2.9639Y-5.5181
X3.0139Y-1.6386
X3.0139Y-3.5284
X3.0139Y-5.4181
X3.0639Y-1.7386
X3.0639Y-3.6284
X3.0639Y-5.5181
X3.1139Y-1.6386
X3.1139Y-3.5284
X3.1139Y-5.4181
X6.1283Y-1.7386
X6.1283Y-3.6284
X6.1283Y-5.5181
X6.1783Y-1.6386
X6.1783Y-3.5284
X6.1783Y-5.4181
X6.2283Y-1.7386
X6.2283Y-3.6284
X6.2283Y-5.5181
X6.2783Y-1.6386
X6.2783Y-3.5284
X6.2783Y-5.4181
X6.3283Y-1.7386
X6.3283Y-3.6284
X6.3283Y-5.5181
X6.3783Y-1.6386
X6.3783Y-3.5284
X6.3783Y-5.4181
X6.4283Y-1.7386
X6.4283Y-3.6284
X6.4283Y-5.5181
X6.4783Y-1.6386
X6.4783Y-3.5284
X6.4783Y-5.4181
T6
X3.1165Y-2.868
X3.1165Y-4.7578
X3.1165Y-6.6475
X3.1366Y-1.9231
X3.1366Y-3.8129
X3.1366Y-5.7027
X3.2165Y-2.868
X3.2165Y-4.7578
X3.2165Y-6.6475
X3.2366Y-1.9231
X3.2366Y-3.8129
X3.2366Y-5.7027
X3.3165Y-2.868
X3.3165Y-4.7578
X3.3165Y-6.6475
X3.4165Y-2.868
X3.4165Y-4.7578
X3.4165Y-6.6475
X3.5165Y-2.868
X3.5165Y-4.7578
X3.5165Y-6.6475
X3.6165Y-2.868
X3.6165Y-4.7578
X3.6165Y-6.6475
X3.7165Y-2.868
X3.7165Y-4.7578
X3.7165Y-6.6475
X3.8165Y-2.868
X3.8165Y-4.7578
X3.8165Y-6.6475
X3.9165Y-2.868
X3.9165Y-4.7578
X3.9165Y-6.6475
X4.0165Y-2.868
X4.0165Y-4.7578
X4.0165Y-6.6475
X4.1165Y-2.868
X4.1165Y-4.7578
X4.1165Y-6.6475
X4.2165Y-2.868
X4.2165Y-4.7578
X4.2165Y-6.6475
X4.3165Y-2.868
X4.3165Y-4.7578
X4.3165Y-6.6475
X4.4165Y-2.868
X4.4165Y-4.7578
X4.4165Y-6.6475
X4.5165Y-2.868
X4.5165Y-4.7578
X4.5165Y-6.6475
X4.6165Y-2.868
X4.6165Y-4.7578
X4.6165Y-6.6475
X4.7165Y-2.868
X4.7165Y-4.7578
X4.7165Y-6.6475
X4.8165Y-2.868
X4.8165Y-4.7578
X4.8165Y-6.6475
X4.9879Y-1.8899
X4.9879Y-3.7796
X4.9879Y-5.6694
X5.0879Y-1.8899
X5.0879Y-3.7796
X5.0879Y-5.6694
X5.1879Y-1.8899
X5.1879Y-3.7796
X5.1879Y-5.6694
X6.4809Y-2.868
X6.4809Y-4.7578
X6.4809Y-6.6475
X6.501Y-1.9231
X6.501Y-3.8129
X6.501Y-5.7027
X6.5809Y-2.868
X6.5809Y-4.7578
X6.5809Y-6.6475
X6.601Y-1.9231
X6.601Y-3.8129
X6.601Y-5.7027
X6.6809Y-2.868
X6.6809Y-4.7578
X6.6809Y-6.6475
X6.7809Y-2.868
X6.7809Y-4.7578
X6.7809Y-6.6475
X6.8809Y-2.868
X6.8809Y-4.7578
X6.8809Y-6.6475
X6.9809Y-2.868
X6.9809Y-4.7578
X6.9809Y-6.6475
X7.0809Y-2.868
X7.0809Y-4.7578
X7.0809Y-6.6475
X7.1809Y-2.868
X7.1809Y-4.7578
X7.1809Y-6.6475
X7.2809Y-2.868
X7.2809Y-4.7578
X7.2809Y-6.6475
X7.3809Y-2.868
X7.3809Y-4.7578
X7.3809Y-6.6475
X7.4809Y-2.868
X7.4809Y-4.7578
X7.4809Y-6.6475
X7.5809Y-2.868
X7.5809Y-4.7578
X7.5809Y-6.6475
X7.6809Y-2.868
X7.6809Y-4.7578
X7.6809Y-6.6475
X7.7809Y-2.868
X7.7809Y-4.7578
X7.7809Y-6.6475
X7.8809Y-2.868
X7.8809Y-4.7578
X7.8809Y-6.6475
X7.9809Y-2.868
X7.9809Y-4.7578
X7.9809Y-6.6475
X8.0809Y-2.868
X8.0809Y-4.7578
X8.0809Y-6.6475
X8.1809Y-2.868
X8.1809Y-4.7578
X8.1809Y-6.6475
X8.3523Y-1.8899
X8.3523Y-3.7796
X8.3523Y-5.6694
X8.4523Y-1.8899
X8.4523Y-3.7796
X8.4523Y-5.6694
X8.5523Y-1.8899
X8.5523Y-3.7796
X8.5523Y-5.6694
T7
X3.4646Y-1.2639
X3.4646Y-3.1536
X3.4646Y-5.0434
X3.6614Y-1.2639
X3.6614Y-3.1536
X3.6614Y-5.0434
X3.8583Y-1.2639
X3.8583Y-3.1536
X3.8583Y-5.0434
X4.9961Y-1.2639
X4.9961Y-3.1536
X4.9961Y-5.0434
X5.1929Y-1.2639
X5.1929Y-3.1536
X5.1929Y-5.0434
X6.8289Y-1.2639
X6.8289Y-3.1536
X6.8289Y-5.0434
X7.0258Y-1.2639
X7.0258Y-3.1536
X7.0258Y-5.0434
X7.2226Y-1.2639
X7.2226Y-3.1536
X7.2226Y-5.0434
X8.3604Y-1.2639
X8.3604Y-3.1536
X8.3604Y-5.0434
X8.5573Y-1.2639
X8.5573Y-3.1536
X8.5573Y-5.0434
T8
X2.3915Y-1.3248
X2.3915Y-2.6969
X2.3915Y-3.2146
X2.3915Y-4.5866
X2.3915Y-5.1044
X2.3915Y-6.4764
X4.6516Y-1.3248
X4.6516Y-3.2146
X4.6516Y-5.1043
X5.2441Y-2.6969
X5.2441Y-4.5866
X5.2441Y-6.4764
X5.7559Y-1.3248
X5.7559Y-2.6969
X5.7559Y-3.2146
X5.7559Y-4.5866
X5.7559Y-5.1044
X5.7559Y-6.4764
X8.0159Y-1.3248
X8.0159Y-3.2146
X8.0159Y-5.1043
X8.6085Y-2.6969
X8.6085Y-4.5866
X8.6085Y-6.4764
T4
G00X4.0708Y-1.1853
M15
G01X4.0708Y-1.1538
M16
G05
G00X4.0708Y-1.3557
M15
G01X4.0708Y-1.3124
M16
G05
G00X4.0708Y-3.075
M15
G01X4.0708Y-3.0435
M16
G05
G00X4.0708Y-3.2455
M15
G01X4.0708Y-3.2022
M16
G05
G00X4.0708Y-4.9648
M15
G01X4.0708Y-4.9333
M16
G05
G00X4.0708Y-5.1353
M15
G01X4.0708Y-5.092
M16
G05
G00X4.411Y-1.1853
M15
G01X4.411Y-1.1538
M16
G05
G00X4.411Y-1.3557
M15
G01X4.411Y-1.3124
M16
G05
G00X4.411Y-3.075
M15
G01X4.411Y-3.0435
M16
G05
G00X4.411Y-3.2455
M15
G01X4.411Y-3.2022
M16
G05
G00X4.411Y-4.9648
M15
G01X4.411Y-4.9333
M16
G05
G00X4.411Y-5.1353
M15
G01X4.411Y-5.092
M16
G05
G00X7.4352Y-1.1853
M15
G01X7.4352Y-1.1538
M16
G05
G00X7.4352Y-1.3557
M15
G01X7.4352Y-1.3124
M16
G05
G00X7.4352Y-3.075
M15
G01X7.4352Y-3.0435
M16
G05
G00X7.4352Y-3.2455
M15
G01X7.4352Y-3.2022
M16
G05
G00X7.4352Y-4.9648
M15
G01X7.4352Y-4.9333
M16
G05
G00X7.4352Y-5.1353
M15
G01X7.4352Y-5.092
M16
G05
G00X7.7753Y-1.1853
M15
G01X7.7753Y-1.1538
M16
G05
G00X7.7753Y-1.3557
M15
G01X7.7753Y-1.3124
M16
G05
G00X7.7753Y-3.075
M15
G01X7.7753Y-3.0435
M16
G05
G00X7.7753Y-3.2455
M15
G01X7.7753Y-3.2022
M16
G05
G00X7.7753Y-4.9648
M15
G01X7.7753Y-4.9333
M16
G05
G00X7.7753Y-5.1353
M15
G01X7.7753Y-5.092
M16
G05
M30
