%TF.GenerationSoftware,KiCad,Pcbnew,9.0.4*%
%TF.CreationDate,2025-09-15T20:18:03-04:00*%
%TF.ProjectId,HabitatCAN Dev Board (ESP32) - Panel,48616269-7461-4744-9341-4e2044657620,4*%
%TF.SameCoordinates,Original*%
%TF.FileFunction,Soldermask,Top*%
%TF.FilePolarity,Negative*%
%FSLAX46Y46*%
G04 Gerber Fmt 4.6, Leading zero omitted, Abs format (unit mm)*
G04 Created by KiCad (PCBNEW 9.0.4) date 2025-09-15 20:18:03*
%MOMM*%
%LPD*%
G01*
G04 APERTURE LIST*
G04 Aperture macros list*
%AMRoundRect*
0 Rectangle with rounded corners*
0 $1 Rounding radius*
0 $2 $3 $4 $5 $6 $7 $8 $9 X,Y pos of 4 corners*
0 Add a 4 corners polygon primitive as box body*
4,1,4,$2,$3,$4,$5,$6,$7,$8,$9,$2,$3,0*
0 Add four circle primitives for the rounded corners*
1,1,$1+$1,$2,$3*
1,1,$1+$1,$4,$5*
1,1,$1+$1,$6,$7*
1,1,$1+$1,$8,$9*
0 Add four rect primitives between the rounded corners*
20,1,$1+$1,$2,$3,$4,$5,0*
20,1,$1+$1,$4,$5,$6,$7,0*
20,1,$1+$1,$6,$7,$8,$9,0*
20,1,$1+$1,$8,$9,$2,$3,0*%
%AMFreePoly0*
4,1,6,0.725000,-0.725000,-0.725000,-0.725000,-0.725000,0.125000,-0.125000,0.725000,0.725000,0.725000,0.725000,-0.725000,0.725000,-0.725000,$1*%
G04 Aperture macros list end*
%ADD10RoundRect,0.225000X-0.225000X-0.250000X0.225000X-0.250000X0.225000X0.250000X-0.225000X0.250000X0*%
%ADD11R,0.400000X0.800000*%
%ADD12R,0.800000X0.400000*%
%ADD13FreePoly0,90.000000*%
%ADD14R,1.450000X1.450000*%
%ADD15R,0.700000X0.700000*%
%ADD16RoundRect,0.150000X0.150000X-0.825000X0.150000X0.825000X-0.150000X0.825000X-0.150000X-0.825000X0*%
%ADD17C,1.700000*%
%ADD18RoundRect,0.225000X0.250000X-0.225000X0.250000X0.225000X-0.250000X0.225000X-0.250000X-0.225000X0*%
%ADD19RoundRect,0.200000X0.275000X-0.200000X0.275000X0.200000X-0.275000X0.200000X-0.275000X-0.200000X0*%
%ADD20C,0.650000*%
%ADD21RoundRect,0.150000X0.150000X0.425000X-0.150000X0.425000X-0.150000X-0.425000X0.150000X-0.425000X0*%
%ADD22RoundRect,0.075000X0.075000X0.500000X-0.075000X0.500000X-0.075000X-0.500000X0.075000X-0.500000X0*%
%ADD23O,1.000000X2.100000*%
%ADD24O,1.000000X1.800000*%
%ADD25C,1.000000*%
%ADD26RoundRect,0.150000X0.625000X-0.150000X0.625000X0.150000X-0.625000X0.150000X-0.625000X-0.150000X0*%
%ADD27RoundRect,0.250000X0.650000X-0.350000X0.650000X0.350000X-0.650000X0.350000X-0.650000X-0.350000X0*%
%ADD28RoundRect,0.225000X-0.250000X0.225000X-0.250000X-0.225000X0.250000X-0.225000X0.250000X0.225000X0*%
%ADD29R,1.800000X1.800000*%
%ADD30C,1.800000*%
%ADD31RoundRect,0.375000X-0.375000X0.625000X-0.375000X-0.625000X0.375000X-0.625000X0.375000X0.625000X0*%
%ADD32RoundRect,0.500000X-1.400000X0.500000X-1.400000X-0.500000X1.400000X-0.500000X1.400000X0.500000X0*%
%ADD33RoundRect,0.250001X1.149999X1.149999X-1.149999X1.149999X-1.149999X-1.149999X1.149999X-1.149999X0*%
%ADD34C,2.800000*%
%ADD35RoundRect,0.200000X-0.200000X-0.275000X0.200000X-0.275000X0.200000X0.275000X-0.200000X0.275000X0*%
%ADD36RoundRect,0.225000X0.375000X-0.225000X0.375000X0.225000X-0.375000X0.225000X-0.375000X-0.225000X0*%
%ADD37C,3.200000*%
%ADD38R,1.500000X1.500000*%
%ADD39C,1.500000*%
%ADD40R,1.250000X1.000000*%
%ADD41RoundRect,0.175000X-0.175000X-0.325000X0.175000X-0.325000X0.175000X0.325000X-0.175000X0.325000X0*%
%ADD42RoundRect,0.150000X-0.200000X-0.150000X0.200000X-0.150000X0.200000X0.150000X-0.200000X0.150000X0*%
%ADD43C,0.800000*%
%ADD44C,6.400000*%
%ADD45C,2.000000*%
%ADD46RoundRect,0.090000X-0.660000X-0.360000X0.660000X-0.360000X0.660000X0.360000X-0.660000X0.360000X0*%
G04 APERTURE END LIST*
D10*
%TO.C,C8*%
X202528220Y-148692564D03*
X204078220Y-148692564D03*
%TD*%
D11*
%TO.C,U1*%
X147405001Y-157842564D03*
X148205001Y-157842564D03*
X149005001Y-157842564D03*
X149805001Y-157842564D03*
X150605001Y-157842564D03*
X151405001Y-157842564D03*
X152205001Y-157842564D03*
X153005001Y-157842564D03*
X153805001Y-157842564D03*
X154605001Y-157842564D03*
X155405001Y-157842564D03*
D12*
X156305001Y-156742564D03*
X156305001Y-155942564D03*
X156305001Y-155142564D03*
X156305001Y-154342564D03*
X156305001Y-153542564D03*
X156305001Y-152742564D03*
X156305001Y-151942564D03*
X156305001Y-151142564D03*
X156305001Y-150342564D03*
X156305001Y-149542564D03*
X156305001Y-148742564D03*
X156305001Y-147942564D03*
X156305001Y-147142564D03*
D11*
X155405001Y-146042564D03*
X154605001Y-146042564D03*
X153805001Y-146042564D03*
X153005001Y-146042564D03*
X152205001Y-146042564D03*
X151405001Y-146042564D03*
X150605001Y-146042564D03*
X149805001Y-146042564D03*
X149005001Y-146042564D03*
X148205001Y-146042564D03*
X147405001Y-146042564D03*
D12*
X146505001Y-147142564D03*
X146505001Y-147942564D03*
X146505001Y-148742564D03*
X146505001Y-149542564D03*
X146505001Y-150342564D03*
X146505001Y-151142564D03*
X146505001Y-151942564D03*
X146505001Y-152742564D03*
X146505001Y-153542564D03*
X146505001Y-154342564D03*
X146505001Y-155142564D03*
X146505001Y-155942564D03*
X146505001Y-156742564D03*
D13*
X149430001Y-153917564D03*
D14*
X151405001Y-153917564D03*
X153380001Y-153917564D03*
X149430001Y-151942564D03*
X151405001Y-151942564D03*
X153380001Y-151942564D03*
X149430001Y-149967564D03*
X151405001Y-149967564D03*
X153380001Y-149967564D03*
D15*
X146455001Y-145992564D03*
X156355001Y-145992564D03*
X156355001Y-157892564D03*
X146455001Y-157892564D03*
%TD*%
D16*
%TO.C,U3*%
X186495001Y-140752564D03*
X187765001Y-140752564D03*
X189035001Y-140752564D03*
X190305001Y-140752564D03*
X190305001Y-135802564D03*
X189035001Y-135802564D03*
X187765001Y-135802564D03*
X186495001Y-135802564D03*
%TD*%
D10*
%TO.C,C2*%
X189427501Y-102192560D03*
X190977501Y-102192560D03*
%TD*%
D17*
%TO.C,J1*%
X79160243Y-168847564D03*
X81700243Y-168847564D03*
X84240243Y-168847564D03*
X86780243Y-168847564D03*
X89320243Y-168847564D03*
X91860243Y-168847564D03*
X94400243Y-168847564D03*
X96940243Y-168847564D03*
X99480243Y-168847564D03*
X102020243Y-168847564D03*
X104560243Y-168847564D03*
X107100243Y-168847564D03*
X109640243Y-168847564D03*
X112180243Y-168847564D03*
X114720243Y-168847564D03*
X117260243Y-168847564D03*
X119800243Y-168847564D03*
X122340243Y-168847564D03*
%TD*%
D18*
%TO.C,C4*%
X73100243Y-66442556D03*
X73100243Y-64892556D03*
%TD*%
D19*
%TO.C,R6*%
X201555001Y-89252560D03*
X201555001Y-87602560D03*
%TD*%
D17*
%TO.C,J1*%
X164615001Y-168847564D03*
X167155001Y-168847564D03*
X169695001Y-168847564D03*
X172235001Y-168847564D03*
X174775001Y-168847564D03*
X177315001Y-168847564D03*
X179855001Y-168847564D03*
X182395001Y-168847564D03*
X184935001Y-168847564D03*
X187475001Y-168847564D03*
X190015001Y-168847564D03*
X192555001Y-168847564D03*
X195095001Y-168847564D03*
X197635001Y-168847564D03*
X200175001Y-168847564D03*
X202715001Y-168847564D03*
X205255001Y-168847564D03*
X207795001Y-168847564D03*
%TD*%
D19*
%TO.C,R7*%
X203805001Y-137252564D03*
X203805001Y-135602564D03*
%TD*%
%TO.C,R5*%
X75350243Y-114502560D03*
X75350243Y-112852560D03*
%TD*%
D10*
%TO.C,C8*%
X117073462Y-148692564D03*
X118623462Y-148692564D03*
%TD*%
D18*
%TO.C,C10*%
X187555001Y-97302560D03*
X187555001Y-95752560D03*
%TD*%
D20*
%TO.C,J5*%
X196063221Y-81385662D03*
X190283221Y-81385662D03*
D21*
X196373221Y-82460662D03*
X195573221Y-82460662D03*
D22*
X194423221Y-82460662D03*
X193423221Y-82460662D03*
X192923221Y-82460662D03*
X191923221Y-82460662D03*
D21*
X190773221Y-82460662D03*
X189973221Y-82460662D03*
X189973221Y-82460662D03*
X190773221Y-82460662D03*
D22*
X191423221Y-82460662D03*
X192423221Y-82460662D03*
X193923221Y-82460662D03*
X194923221Y-82460662D03*
D21*
X195573221Y-82460662D03*
X196373221Y-82460662D03*
D23*
X197493221Y-81885662D03*
D24*
X197493221Y-77705662D03*
D23*
X188853221Y-81885662D03*
D24*
X188853221Y-77705662D03*
%TD*%
D10*
%TO.C,C8*%
X117073462Y-52692556D03*
X118623462Y-52692556D03*
%TD*%
D25*
%TO.C,KiKit_FID_T_1*%
X56745243Y-22500000D03*
%TD*%
D26*
%TO.C,J6*%
X144680001Y-43402556D03*
X144680001Y-42402556D03*
X144680001Y-41402556D03*
X144680001Y-40402556D03*
D27*
X142155001Y-44702556D03*
X142155001Y-39102556D03*
%TD*%
D28*
%TO.C,C3*%
X77100243Y-149002564D03*
X77100243Y-150552564D03*
%TD*%
D29*
%TO.C,U4*%
X212147248Y-144002564D03*
D30*
X214687248Y-144002564D03*
X217227248Y-144002564D03*
%TD*%
D31*
%TO.C,U2*%
X120173462Y-151142564D03*
X117873462Y-151142564D03*
D32*
X117873462Y-157442564D03*
D31*
X115573462Y-151142564D03*
%TD*%
D19*
%TO.C,R4*%
X156305001Y-162542564D03*
X156305001Y-160892564D03*
%TD*%
D18*
%TO.C,C7*%
X199304988Y-137252564D03*
X199304988Y-135702564D03*
%TD*%
D16*
%TO.C,U3*%
X186495001Y-92752560D03*
X187765001Y-92752560D03*
X189035001Y-92752560D03*
X190305001Y-92752560D03*
X190305001Y-87802560D03*
X189035001Y-87802560D03*
X187765001Y-87802560D03*
X186495001Y-87802560D03*
%TD*%
D26*
%TO.C,J6*%
X144680001Y-91402560D03*
X144680001Y-90402560D03*
X144680001Y-89402560D03*
X144680001Y-88402560D03*
D27*
X142155001Y-92702560D03*
X142155001Y-87102560D03*
%TD*%
D17*
%TO.C,J1*%
X79160243Y-72847556D03*
X81700243Y-72847556D03*
X84240243Y-72847556D03*
X86780243Y-72847556D03*
X89320243Y-72847556D03*
X91860243Y-72847556D03*
X94400243Y-72847556D03*
X96940243Y-72847556D03*
X99480243Y-72847556D03*
X102020243Y-72847556D03*
X104560243Y-72847556D03*
X107100243Y-72847556D03*
X109640243Y-72847556D03*
X112180243Y-72847556D03*
X114720243Y-72847556D03*
X117260243Y-72847556D03*
X119800243Y-72847556D03*
X122340243Y-72847556D03*
%TD*%
D31*
%TO.C,U2*%
X205628220Y-151142564D03*
X203328220Y-151142564D03*
D32*
X203328220Y-157442564D03*
D31*
X201028220Y-151142564D03*
%TD*%
D33*
%TO.C,J4*%
X131900243Y-32102556D03*
D34*
X126900243Y-32102556D03*
%TD*%
D35*
%TO.C,R1*%
X181675001Y-150192564D03*
X183325001Y-150192564D03*
%TD*%
D33*
%TO.C,J2*%
X183455001Y-32102556D03*
D34*
X178455001Y-32102556D03*
X173455001Y-32102556D03*
%TD*%
D36*
%TO.C,D3*%
X205555001Y-97314706D03*
X205555001Y-94014706D03*
%TD*%
%TO.C,D2*%
X115561471Y-145314710D03*
X115561471Y-142014710D03*
%TD*%
D37*
%TO.C,J3*%
X165817945Y-35270968D03*
X154387945Y-35270968D03*
D38*
X164547945Y-41620968D03*
D39*
X163277945Y-44160968D03*
X162007945Y-41620968D03*
X160737945Y-44160968D03*
X159467945Y-41620968D03*
X158197945Y-44160968D03*
X156927945Y-41620968D03*
X155657945Y-44160968D03*
%TD*%
D28*
%TO.C,C5*%
X66100243Y-160892564D03*
X66100243Y-162442564D03*
%TD*%
D35*
%TO.C,R1*%
X181675001Y-102192560D03*
X183325001Y-102192560D03*
%TD*%
D19*
%TO.C,R2*%
X74903187Y-145672564D03*
X74903187Y-144022564D03*
%TD*%
D33*
%TO.C,J4*%
X217355001Y-32102556D03*
D34*
X212355001Y-32102556D03*
%TD*%
D40*
%TO.C,SW1*%
X176802501Y-154942564D03*
X184552501Y-154942564D03*
%TD*%
D16*
%TO.C,U3*%
X101040243Y-92752560D03*
X102310243Y-92752560D03*
X103580243Y-92752560D03*
X104850243Y-92752560D03*
X104850243Y-87802560D03*
X103580243Y-87802560D03*
X102310243Y-87802560D03*
X101040243Y-87802560D03*
%TD*%
D41*
%TO.C,D1*%
X194304988Y-39552556D03*
D42*
X194304988Y-41252556D03*
X196304988Y-41252556D03*
X196304988Y-39352556D03*
%TD*%
D10*
%TO.C,C12*%
X144155001Y-143802564D03*
X145705001Y-143802564D03*
%TD*%
D11*
%TO.C,U1*%
X61950243Y-109842560D03*
X62750243Y-109842560D03*
X63550243Y-109842560D03*
X64350243Y-109842560D03*
X65150243Y-109842560D03*
X65950243Y-109842560D03*
X66750243Y-109842560D03*
X67550243Y-109842560D03*
X68350243Y-109842560D03*
X69150243Y-109842560D03*
X69950243Y-109842560D03*
D12*
X70850243Y-108742560D03*
X70850243Y-107942560D03*
X70850243Y-107142560D03*
X70850243Y-106342560D03*
X70850243Y-105542560D03*
X70850243Y-104742560D03*
X70850243Y-103942560D03*
X70850243Y-103142560D03*
X70850243Y-102342560D03*
X70850243Y-101542560D03*
X70850243Y-100742560D03*
X70850243Y-99942560D03*
X70850243Y-99142560D03*
D11*
X69950243Y-98042560D03*
X69150243Y-98042560D03*
X68350243Y-98042560D03*
X67550243Y-98042560D03*
X66750243Y-98042560D03*
X65950243Y-98042560D03*
X65150243Y-98042560D03*
X64350243Y-98042560D03*
X63550243Y-98042560D03*
X62750243Y-98042560D03*
X61950243Y-98042560D03*
D12*
X61050243Y-99142560D03*
X61050243Y-99942560D03*
X61050243Y-100742560D03*
X61050243Y-101542560D03*
X61050243Y-102342560D03*
X61050243Y-103142560D03*
X61050243Y-103942560D03*
X61050243Y-104742560D03*
X61050243Y-105542560D03*
X61050243Y-106342560D03*
X61050243Y-107142560D03*
X61050243Y-107942560D03*
X61050243Y-108742560D03*
D13*
X63975243Y-105917560D03*
D14*
X65950243Y-105917560D03*
X67925243Y-105917560D03*
X63975243Y-103942560D03*
X65950243Y-103942560D03*
X67925243Y-103942560D03*
X63975243Y-101967560D03*
X65950243Y-101967560D03*
X67925243Y-101967560D03*
D15*
X61000243Y-97992560D03*
X70900243Y-97992560D03*
X70900243Y-109892560D03*
X61000243Y-109892560D03*
%TD*%
D16*
%TO.C,U3*%
X101040243Y-140752564D03*
X102310243Y-140752564D03*
X103580243Y-140752564D03*
X104850243Y-140752564D03*
X104850243Y-135802564D03*
X103580243Y-135802564D03*
X102310243Y-135802564D03*
X101040243Y-135802564D03*
%TD*%
D10*
%TO.C,C9*%
X202528220Y-64192556D03*
X204078220Y-64192556D03*
%TD*%
D36*
%TO.C,D2*%
X201016229Y-97314706D03*
X201016229Y-94014706D03*
%TD*%
D43*
%TO.C,H2*%
X58345243Y-68500500D03*
X59048187Y-66803444D03*
X59048187Y-70197556D03*
X60745243Y-66100500D03*
D44*
X60745243Y-68500500D03*
D43*
X60745243Y-70900500D03*
X62442299Y-66803444D03*
X62442299Y-70197556D03*
X63145243Y-68500500D03*
%TD*%
D19*
%TO.C,R6*%
X201555001Y-137252564D03*
X201555001Y-135602564D03*
%TD*%
D45*
%TO.C,KiKit_TO_3*%
X61745243Y-175501511D03*
%TD*%
D46*
%TO.C,LED1*%
X80977743Y-105018810D03*
X80977743Y-108318810D03*
X85877743Y-108318810D03*
X85877743Y-105018810D03*
%TD*%
D18*
%TO.C,C7*%
X113850230Y-89252560D03*
X113850230Y-87702560D03*
%TD*%
%TO.C,C10*%
X102100243Y-145302564D03*
X102100243Y-143752564D03*
%TD*%
D35*
%TO.C,R1*%
X96220243Y-150192564D03*
X97870243Y-150192564D03*
%TD*%
D28*
%TO.C,C6*%
X68350243Y-64892556D03*
X68350243Y-66442556D03*
%TD*%
D10*
%TO.C,C2*%
X103972743Y-150192564D03*
X105522743Y-150192564D03*
%TD*%
D36*
%TO.C,D3*%
X205555001Y-145314710D03*
X205555001Y-142014710D03*
%TD*%
D10*
%TO.C,C9*%
X202528220Y-112192560D03*
X204078220Y-112192560D03*
%TD*%
D36*
%TO.C,D3*%
X120100243Y-97314706D03*
X120100243Y-94014706D03*
%TD*%
D35*
%TO.C,R3*%
X107572743Y-102192560D03*
X109222743Y-102192560D03*
%TD*%
D33*
%TO.C,J2*%
X183455001Y-128102564D03*
D34*
X178455001Y-128102564D03*
X173455001Y-128102564D03*
%TD*%
D18*
%TO.C,C11*%
X190555001Y-49302556D03*
X190555001Y-47752556D03*
%TD*%
D29*
%TO.C,U4*%
X212147248Y-96002560D03*
D30*
X214687248Y-96002560D03*
X217227248Y-96002560D03*
%TD*%
D40*
%TO.C,SW1*%
X176802501Y-58942556D03*
X184552501Y-58942556D03*
%TD*%
D29*
%TO.C,U4*%
X126692490Y-144002564D03*
D30*
X129232490Y-144002564D03*
X131772490Y-144002564D03*
%TD*%
D25*
%TO.C,KiKit_FID_T_3*%
X56745243Y-175501511D03*
%TD*%
D31*
%TO.C,U2*%
X120173462Y-103142560D03*
X117873462Y-103142560D03*
D32*
X117873462Y-109442560D03*
D31*
X115573462Y-103142560D03*
%TD*%
D10*
%TO.C,C9*%
X117073462Y-64192556D03*
X118623462Y-64192556D03*
%TD*%
%TO.C,C8*%
X202528220Y-100692560D03*
X204078220Y-100692560D03*
%TD*%
D28*
%TO.C,C6*%
X68350243Y-112892560D03*
X68350243Y-114442560D03*
%TD*%
%TO.C,C3*%
X77100243Y-53002556D03*
X77100243Y-54552556D03*
%TD*%
D19*
%TO.C,R5*%
X160805001Y-162502564D03*
X160805001Y-160852564D03*
%TD*%
D35*
%TO.C,R3*%
X107572743Y-150192564D03*
X109222743Y-150192564D03*
%TD*%
D10*
%TO.C,C2*%
X189427501Y-150192564D03*
X190977501Y-150192564D03*
%TD*%
D46*
%TO.C,LED1*%
X166432501Y-105018810D03*
X166432501Y-108318810D03*
X171332501Y-108318810D03*
X171332501Y-105018810D03*
%TD*%
D41*
%TO.C,D1*%
X108850230Y-87552560D03*
D42*
X108850230Y-89252560D03*
X110850230Y-89252560D03*
X110850230Y-87352560D03*
%TD*%
D17*
%TO.C,JP1*%
X82210687Y-48847556D03*
X79670687Y-48847556D03*
%TD*%
D28*
%TO.C,C5*%
X66100243Y-64892556D03*
X66100243Y-66442556D03*
%TD*%
D19*
%TO.C,R2*%
X74903187Y-97672560D03*
X74903187Y-96022560D03*
%TD*%
D40*
%TO.C,SW2*%
X102725243Y-154942564D03*
X110475243Y-154942564D03*
%TD*%
D19*
%TO.C,R2*%
X160357945Y-49672556D03*
X160357945Y-48022556D03*
%TD*%
%TO.C,R7*%
X118350243Y-41252556D03*
X118350243Y-39602556D03*
%TD*%
%TO.C,R7*%
X118350243Y-89252560D03*
X118350243Y-87602560D03*
%TD*%
D10*
%TO.C,C1*%
X92570243Y-102192560D03*
X94120243Y-102192560D03*
%TD*%
D37*
%TO.C,J3*%
X165817945Y-83270972D03*
X154387945Y-83270972D03*
D38*
X164547945Y-89620972D03*
D39*
X163277945Y-92160972D03*
X162007945Y-89620972D03*
X160737945Y-92160972D03*
X159467945Y-89620972D03*
X158197945Y-92160972D03*
X156927945Y-89620972D03*
X155657945Y-92160972D03*
%TD*%
D17*
%TO.C,JP1*%
X82210687Y-144847564D03*
X79670687Y-144847564D03*
%TD*%
D10*
%TO.C,C8*%
X117073462Y-100692560D03*
X118623462Y-100692560D03*
%TD*%
D28*
%TO.C,C5*%
X151555001Y-64892556D03*
X151555001Y-66442556D03*
%TD*%
D18*
%TO.C,C11*%
X105100243Y-49302556D03*
X105100243Y-47752556D03*
%TD*%
D11*
%TO.C,U1*%
X61950243Y-157842564D03*
X62750243Y-157842564D03*
X63550243Y-157842564D03*
X64350243Y-157842564D03*
X65150243Y-157842564D03*
X65950243Y-157842564D03*
X66750243Y-157842564D03*
X67550243Y-157842564D03*
X68350243Y-157842564D03*
X69150243Y-157842564D03*
X69950243Y-157842564D03*
D12*
X70850243Y-156742564D03*
X70850243Y-155942564D03*
X70850243Y-155142564D03*
X70850243Y-154342564D03*
X70850243Y-153542564D03*
X70850243Y-152742564D03*
X70850243Y-151942564D03*
X70850243Y-151142564D03*
X70850243Y-150342564D03*
X70850243Y-149542564D03*
X70850243Y-148742564D03*
X70850243Y-147942564D03*
X70850243Y-147142564D03*
D11*
X69950243Y-146042564D03*
X69150243Y-146042564D03*
X68350243Y-146042564D03*
X67550243Y-146042564D03*
X66750243Y-146042564D03*
X65950243Y-146042564D03*
X65150243Y-146042564D03*
X64350243Y-146042564D03*
X63550243Y-146042564D03*
X62750243Y-146042564D03*
X61950243Y-146042564D03*
D12*
X61050243Y-147142564D03*
X61050243Y-147942564D03*
X61050243Y-148742564D03*
X61050243Y-149542564D03*
X61050243Y-150342564D03*
X61050243Y-151142564D03*
X61050243Y-151942564D03*
X61050243Y-152742564D03*
X61050243Y-153542564D03*
X61050243Y-154342564D03*
X61050243Y-155142564D03*
X61050243Y-155942564D03*
X61050243Y-156742564D03*
D13*
X63975243Y-153917564D03*
D14*
X65950243Y-153917564D03*
X67925243Y-153917564D03*
X63975243Y-151942564D03*
X65950243Y-151942564D03*
X67925243Y-151942564D03*
X63975243Y-149967564D03*
X65950243Y-149967564D03*
X67925243Y-149967564D03*
D15*
X61000243Y-145992564D03*
X70900243Y-145992564D03*
X70900243Y-157892564D03*
X61000243Y-157892564D03*
%TD*%
D10*
%TO.C,C8*%
X202528220Y-52692556D03*
X204078220Y-52692556D03*
%TD*%
D25*
%TO.C,KiKit_FID_T_2*%
X222654758Y-22500000D03*
%TD*%
D45*
%TO.C,KiKit_TO_4*%
X217654758Y-175501511D03*
%TD*%
D43*
%TO.C,H1*%
X58345243Y-33650500D03*
X59048187Y-31953444D03*
X59048187Y-35347556D03*
X60745243Y-31250500D03*
D44*
X60745243Y-33650500D03*
D43*
X60745243Y-36050500D03*
X62442299Y-31953444D03*
X62442299Y-35347556D03*
X63145243Y-33650500D03*
%TD*%
D11*
%TO.C,U1*%
X147405001Y-61842556D03*
X148205001Y-61842556D03*
X149005001Y-61842556D03*
X149805001Y-61842556D03*
X150605001Y-61842556D03*
X151405001Y-61842556D03*
X152205001Y-61842556D03*
X153005001Y-61842556D03*
X153805001Y-61842556D03*
X154605001Y-61842556D03*
X155405001Y-61842556D03*
D12*
X156305001Y-60742556D03*
X156305001Y-59942556D03*
X156305001Y-59142556D03*
X156305001Y-58342556D03*
X156305001Y-57542556D03*
X156305001Y-56742556D03*
X156305001Y-55942556D03*
X156305001Y-55142556D03*
X156305001Y-54342556D03*
X156305001Y-53542556D03*
X156305001Y-52742556D03*
X156305001Y-51942556D03*
X156305001Y-51142556D03*
D11*
X155405001Y-50042556D03*
X154605001Y-50042556D03*
X153805001Y-50042556D03*
X153005001Y-50042556D03*
X152205001Y-50042556D03*
X151405001Y-50042556D03*
X150605001Y-50042556D03*
X149805001Y-50042556D03*
X149005001Y-50042556D03*
X148205001Y-50042556D03*
X147405001Y-50042556D03*
D12*
X146505001Y-51142556D03*
X146505001Y-51942556D03*
X146505001Y-52742556D03*
X146505001Y-53542556D03*
X146505001Y-54342556D03*
X146505001Y-55142556D03*
X146505001Y-55942556D03*
X146505001Y-56742556D03*
X146505001Y-57542556D03*
X146505001Y-58342556D03*
X146505001Y-59142556D03*
X146505001Y-59942556D03*
X146505001Y-60742556D03*
D13*
X149430001Y-57917556D03*
D14*
X151405001Y-57917556D03*
X153380001Y-57917556D03*
X149430001Y-55942556D03*
X151405001Y-55942556D03*
X153380001Y-55942556D03*
X149430001Y-53967556D03*
X151405001Y-53967556D03*
X153380001Y-53967556D03*
D15*
X146455001Y-49992556D03*
X156355001Y-49992556D03*
X156355001Y-61892556D03*
X146455001Y-61892556D03*
%TD*%
D19*
%TO.C,R4*%
X156305001Y-66542556D03*
X156305001Y-64892556D03*
%TD*%
D18*
%TO.C,C7*%
X113850230Y-41252556D03*
X113850230Y-39702556D03*
%TD*%
D19*
%TO.C,R7*%
X203805001Y-89252560D03*
X203805001Y-87602560D03*
%TD*%
D41*
%TO.C,D1*%
X108850230Y-135552564D03*
D42*
X108850230Y-137252564D03*
X110850230Y-137252564D03*
X110850230Y-135352564D03*
%TD*%
D10*
%TO.C,C2*%
X189427501Y-54192556D03*
X190977501Y-54192556D03*
%TD*%
%TO.C,C9*%
X202528220Y-160192564D03*
X204078220Y-160192564D03*
%TD*%
D33*
%TO.C,J4*%
X217355001Y-128102564D03*
D34*
X212355001Y-128102564D03*
%TD*%
D29*
%TO.C,U4*%
X126692490Y-96002560D03*
D30*
X129232490Y-96002560D03*
X131772490Y-96002560D03*
%TD*%
D10*
%TO.C,C12*%
X144155001Y-95802560D03*
X145705001Y-95802560D03*
%TD*%
D26*
%TO.C,J6*%
X59225243Y-139402564D03*
X59225243Y-138402564D03*
X59225243Y-137402564D03*
X59225243Y-136402564D03*
D27*
X56700243Y-140702564D03*
X56700243Y-135102564D03*
%TD*%
D43*
%TO.C,H2*%
X143800001Y-116500504D03*
X144502945Y-114803448D03*
X144502945Y-118197560D03*
X146200001Y-114100504D03*
D44*
X146200001Y-116500504D03*
D43*
X146200001Y-118900504D03*
X147897057Y-114803448D03*
X147897057Y-118197560D03*
X148600001Y-116500504D03*
%TD*%
D36*
%TO.C,D3*%
X120100243Y-145314710D03*
X120100243Y-142014710D03*
%TD*%
D33*
%TO.C,J2*%
X98000243Y-128102564D03*
D34*
X93000243Y-128102564D03*
X88000243Y-128102564D03*
%TD*%
D10*
%TO.C,C12*%
X58700243Y-47802556D03*
X60250243Y-47802556D03*
%TD*%
D35*
%TO.C,R1*%
X96220243Y-54192556D03*
X97870243Y-54192556D03*
%TD*%
D19*
%TO.C,R5*%
X75350243Y-162502564D03*
X75350243Y-160852564D03*
%TD*%
%TO.C,R6*%
X116100243Y-41252556D03*
X116100243Y-39602556D03*
%TD*%
D18*
%TO.C,C10*%
X102100243Y-49302556D03*
X102100243Y-47752556D03*
%TD*%
D28*
%TO.C,C5*%
X151555001Y-112892560D03*
X151555001Y-114442560D03*
%TD*%
D43*
%TO.C,H1*%
X143800001Y-129650508D03*
X144502945Y-127953452D03*
X144502945Y-131347564D03*
X146200001Y-127250508D03*
D44*
X146200001Y-129650508D03*
D43*
X146200001Y-132050508D03*
X147897057Y-127953452D03*
X147897057Y-131347564D03*
X148600001Y-129650508D03*
%TD*%
D17*
%TO.C,JP1*%
X167665445Y-48847556D03*
X165125445Y-48847556D03*
%TD*%
D43*
%TO.C,H3*%
X216254759Y-68500500D03*
X216957703Y-66803444D03*
X216957703Y-70197556D03*
X218654759Y-66100500D03*
D44*
X218654759Y-68500500D03*
D43*
X218654759Y-70900500D03*
X220351815Y-66803444D03*
X220351815Y-70197556D03*
X221054759Y-68500500D03*
%TD*%
%TO.C,H2*%
X143800001Y-68500500D03*
X144502945Y-66803444D03*
X144502945Y-70197556D03*
X146200001Y-66100500D03*
D44*
X146200001Y-68500500D03*
D43*
X146200001Y-70900500D03*
X147897057Y-66803444D03*
X147897057Y-70197556D03*
X148600001Y-68500500D03*
%TD*%
D19*
%TO.C,R6*%
X116100243Y-89252560D03*
X116100243Y-87602560D03*
%TD*%
D10*
%TO.C,C12*%
X58700243Y-95802560D03*
X60250243Y-95802560D03*
%TD*%
D28*
%TO.C,C5*%
X151555001Y-160892564D03*
X151555001Y-162442564D03*
%TD*%
D33*
%TO.C,J4*%
X131900243Y-128102564D03*
D34*
X126900243Y-128102564D03*
%TD*%
D19*
%TO.C,R5*%
X160805001Y-66502556D03*
X160805001Y-64852556D03*
%TD*%
D36*
%TO.C,D2*%
X115561471Y-49314702D03*
X115561471Y-46014702D03*
%TD*%
D43*
%TO.C,H4*%
X115750243Y-33649612D03*
X116453187Y-31952556D03*
X116453187Y-35346668D03*
X118150243Y-31249612D03*
D44*
X118150243Y-33649612D03*
D43*
X118150243Y-36049612D03*
X119847299Y-31952556D03*
X119847299Y-35346668D03*
X120550243Y-33649612D03*
%TD*%
D41*
%TO.C,D1*%
X108850230Y-39552556D03*
D42*
X108850230Y-41252556D03*
X110850230Y-41252556D03*
X110850230Y-39352556D03*
%TD*%
D19*
%TO.C,R4*%
X70850243Y-66542556D03*
X70850243Y-64892556D03*
%TD*%
D20*
%TO.C,J5*%
X110608463Y-129385666D03*
X104828463Y-129385666D03*
D21*
X110918463Y-130460666D03*
X110118463Y-130460666D03*
D22*
X108968463Y-130460666D03*
X107968463Y-130460666D03*
X107468463Y-130460666D03*
X106468463Y-130460666D03*
D21*
X105318463Y-130460666D03*
X104518463Y-130460666D03*
X104518463Y-130460666D03*
X105318463Y-130460666D03*
D22*
X105968463Y-130460666D03*
X106968463Y-130460666D03*
X108468463Y-130460666D03*
X109468463Y-130460666D03*
D21*
X110118463Y-130460666D03*
X110918463Y-130460666D03*
D23*
X112038463Y-129885666D03*
D24*
X112038463Y-125705666D03*
D23*
X103398463Y-129885666D03*
D24*
X103398463Y-125705666D03*
%TD*%
D26*
%TO.C,J6*%
X59225243Y-43402556D03*
X59225243Y-42402556D03*
X59225243Y-41402556D03*
X59225243Y-40402556D03*
D27*
X56700243Y-44702556D03*
X56700243Y-39102556D03*
%TD*%
D35*
%TO.C,R3*%
X193027501Y-54192556D03*
X194677501Y-54192556D03*
%TD*%
D43*
%TO.C,H3*%
X130800001Y-164500508D03*
X131502945Y-162803452D03*
X131502945Y-166197564D03*
X133200001Y-162100508D03*
D44*
X133200001Y-164500508D03*
D43*
X133200001Y-166900508D03*
X134897057Y-162803452D03*
X134897057Y-166197564D03*
X135600001Y-164500508D03*
%TD*%
D40*
%TO.C,SW1*%
X176802501Y-106942560D03*
X184552501Y-106942560D03*
%TD*%
D16*
%TO.C,U3*%
X186495001Y-44752556D03*
X187765001Y-44752556D03*
X189035001Y-44752556D03*
X190305001Y-44752556D03*
X190305001Y-39802556D03*
X189035001Y-39802556D03*
X187765001Y-39802556D03*
X186495001Y-39802556D03*
%TD*%
D17*
%TO.C,JP1*%
X167665445Y-96847560D03*
X165125445Y-96847560D03*
%TD*%
D10*
%TO.C,C2*%
X103972743Y-54192556D03*
X105522743Y-54192556D03*
%TD*%
D36*
%TO.C,D2*%
X115561471Y-97314706D03*
X115561471Y-94014706D03*
%TD*%
D43*
%TO.C,H3*%
X130800001Y-68500500D03*
X131502945Y-66803444D03*
X131502945Y-70197556D03*
X133200001Y-66100500D03*
D44*
X133200001Y-68500500D03*
D43*
X133200001Y-70900500D03*
X134897057Y-66803444D03*
X134897057Y-70197556D03*
X135600001Y-68500500D03*
%TD*%
D28*
%TO.C,C3*%
X162555001Y-149002564D03*
X162555001Y-150552564D03*
%TD*%
D35*
%TO.C,R3*%
X193027501Y-102192560D03*
X194677501Y-102192560D03*
%TD*%
D43*
%TO.C,H4*%
X201205001Y-33649612D03*
X201907945Y-31952556D03*
X201907945Y-35346668D03*
X203605001Y-31249612D03*
D44*
X203605001Y-33649612D03*
D43*
X203605001Y-36049612D03*
X205302057Y-31952556D03*
X205302057Y-35346668D03*
X206005001Y-33649612D03*
%TD*%
D19*
%TO.C,R4*%
X156305001Y-114542560D03*
X156305001Y-112892560D03*
%TD*%
D29*
%TO.C,U4*%
X126692490Y-48002556D03*
D30*
X129232490Y-48002556D03*
X131772490Y-48002556D03*
%TD*%
D20*
%TO.C,J5*%
X196063221Y-129385666D03*
X190283221Y-129385666D03*
D21*
X196373221Y-130460666D03*
X195573221Y-130460666D03*
D22*
X194423221Y-130460666D03*
X193423221Y-130460666D03*
X192923221Y-130460666D03*
X191923221Y-130460666D03*
D21*
X190773221Y-130460666D03*
X189973221Y-130460666D03*
X189973221Y-130460666D03*
X190773221Y-130460666D03*
D22*
X191423221Y-130460666D03*
X192423221Y-130460666D03*
X193923221Y-130460666D03*
X194923221Y-130460666D03*
D21*
X195573221Y-130460666D03*
X196373221Y-130460666D03*
D23*
X197493221Y-129885666D03*
D24*
X197493221Y-125705666D03*
D23*
X188853221Y-129885666D03*
D24*
X188853221Y-125705666D03*
%TD*%
D17*
%TO.C,J1*%
X79160243Y-120847560D03*
X81700243Y-120847560D03*
X84240243Y-120847560D03*
X86780243Y-120847560D03*
X89320243Y-120847560D03*
X91860243Y-120847560D03*
X94400243Y-120847560D03*
X96940243Y-120847560D03*
X99480243Y-120847560D03*
X102020243Y-120847560D03*
X104560243Y-120847560D03*
X107100243Y-120847560D03*
X109640243Y-120847560D03*
X112180243Y-120847560D03*
X114720243Y-120847560D03*
X117260243Y-120847560D03*
X119800243Y-120847560D03*
X122340243Y-120847560D03*
%TD*%
%TO.C,JP1*%
X167665445Y-144847564D03*
X165125445Y-144847564D03*
%TD*%
D18*
%TO.C,C11*%
X105100243Y-145302564D03*
X105100243Y-143752564D03*
%TD*%
D28*
%TO.C,C3*%
X77100243Y-101002560D03*
X77100243Y-102552560D03*
%TD*%
D17*
%TO.C,J1*%
X164615001Y-72847556D03*
X167155001Y-72847556D03*
X169695001Y-72847556D03*
X172235001Y-72847556D03*
X174775001Y-72847556D03*
X177315001Y-72847556D03*
X179855001Y-72847556D03*
X182395001Y-72847556D03*
X184935001Y-72847556D03*
X187475001Y-72847556D03*
X190015001Y-72847556D03*
X192555001Y-72847556D03*
X195095001Y-72847556D03*
X197635001Y-72847556D03*
X200175001Y-72847556D03*
X202715001Y-72847556D03*
X205255001Y-72847556D03*
X207795001Y-72847556D03*
%TD*%
D40*
%TO.C,SW2*%
X188180001Y-154942564D03*
X195930001Y-154942564D03*
%TD*%
D11*
%TO.C,U1*%
X147405001Y-109842560D03*
X148205001Y-109842560D03*
X149005001Y-109842560D03*
X149805001Y-109842560D03*
X150605001Y-109842560D03*
X151405001Y-109842560D03*
X152205001Y-109842560D03*
X153005001Y-109842560D03*
X153805001Y-109842560D03*
X154605001Y-109842560D03*
X155405001Y-109842560D03*
D12*
X156305001Y-108742560D03*
X156305001Y-107942560D03*
X156305001Y-107142560D03*
X156305001Y-106342560D03*
X156305001Y-105542560D03*
X156305001Y-104742560D03*
X156305001Y-103942560D03*
X156305001Y-103142560D03*
X156305001Y-102342560D03*
X156305001Y-101542560D03*
X156305001Y-100742560D03*
X156305001Y-99942560D03*
X156305001Y-99142560D03*
D11*
X155405001Y-98042560D03*
X154605001Y-98042560D03*
X153805001Y-98042560D03*
X153005001Y-98042560D03*
X152205001Y-98042560D03*
X151405001Y-98042560D03*
X150605001Y-98042560D03*
X149805001Y-98042560D03*
X149005001Y-98042560D03*
X148205001Y-98042560D03*
X147405001Y-98042560D03*
D12*
X146505001Y-99142560D03*
X146505001Y-99942560D03*
X146505001Y-100742560D03*
X146505001Y-101542560D03*
X146505001Y-102342560D03*
X146505001Y-103142560D03*
X146505001Y-103942560D03*
X146505001Y-104742560D03*
X146505001Y-105542560D03*
X146505001Y-106342560D03*
X146505001Y-107142560D03*
X146505001Y-107942560D03*
X146505001Y-108742560D03*
D13*
X149430001Y-105917560D03*
D14*
X151405001Y-105917560D03*
X153380001Y-105917560D03*
X149430001Y-103942560D03*
X151405001Y-103942560D03*
X153380001Y-103942560D03*
X149430001Y-101967560D03*
X151405001Y-101967560D03*
X153380001Y-101967560D03*
D15*
X146455001Y-97992560D03*
X156355001Y-97992560D03*
X156355001Y-109892560D03*
X146455001Y-109892560D03*
%TD*%
D29*
%TO.C,U4*%
X212147248Y-48002556D03*
D30*
X214687248Y-48002556D03*
X217227248Y-48002556D03*
%TD*%
D28*
%TO.C,C3*%
X162555001Y-101002560D03*
X162555001Y-102552560D03*
%TD*%
D43*
%TO.C,H1*%
X58345243Y-81650504D03*
X59048187Y-79953448D03*
X59048187Y-83347560D03*
X60745243Y-79250504D03*
D44*
X60745243Y-81650504D03*
D43*
X60745243Y-84050504D03*
X62442299Y-79953448D03*
X62442299Y-83347560D03*
X63145243Y-81650504D03*
%TD*%
D10*
%TO.C,C12*%
X58700243Y-143802564D03*
X60250243Y-143802564D03*
%TD*%
D16*
%TO.C,U3*%
X101040243Y-44752556D03*
X102310243Y-44752556D03*
X103580243Y-44752556D03*
X104850243Y-44752556D03*
X104850243Y-39802556D03*
X103580243Y-39802556D03*
X102310243Y-39802556D03*
X101040243Y-39802556D03*
%TD*%
D43*
%TO.C,H4*%
X115750243Y-81649616D03*
X116453187Y-79952560D03*
X116453187Y-83346672D03*
X118150243Y-79249616D03*
D44*
X118150243Y-81649616D03*
D43*
X118150243Y-84049616D03*
X119847299Y-79952560D03*
X119847299Y-83346672D03*
X120550243Y-81649616D03*
%TD*%
D26*
%TO.C,J6*%
X59225243Y-91402560D03*
X59225243Y-90402560D03*
X59225243Y-89402560D03*
X59225243Y-88402560D03*
D27*
X56700243Y-92702560D03*
X56700243Y-87102560D03*
%TD*%
D18*
%TO.C,C10*%
X187555001Y-145302564D03*
X187555001Y-143752564D03*
%TD*%
D35*
%TO.C,R3*%
X193027501Y-150192564D03*
X194677501Y-150192564D03*
%TD*%
D43*
%TO.C,H4*%
X201205001Y-129649620D03*
X201907945Y-127952564D03*
X201907945Y-131346676D03*
X203605001Y-127249620D03*
D44*
X203605001Y-129649620D03*
D43*
X203605001Y-132049620D03*
X205302057Y-127952564D03*
X205302057Y-131346676D03*
X206005001Y-129649620D03*
%TD*%
D19*
%TO.C,R2*%
X74903187Y-49672556D03*
X74903187Y-48022556D03*
%TD*%
D20*
%TO.C,J5*%
X196063221Y-33385658D03*
X190283221Y-33385658D03*
D21*
X196373221Y-34460658D03*
X195573221Y-34460658D03*
D22*
X194423221Y-34460658D03*
X193423221Y-34460658D03*
X192923221Y-34460658D03*
X191923221Y-34460658D03*
D21*
X190773221Y-34460658D03*
X189973221Y-34460658D03*
X189973221Y-34460658D03*
X190773221Y-34460658D03*
D22*
X191423221Y-34460658D03*
X192423221Y-34460658D03*
X193923221Y-34460658D03*
X194923221Y-34460658D03*
D21*
X195573221Y-34460658D03*
X196373221Y-34460658D03*
D23*
X197493221Y-33885658D03*
D24*
X197493221Y-29705658D03*
D23*
X188853221Y-33885658D03*
D24*
X188853221Y-29705658D03*
%TD*%
D40*
%TO.C,SW2*%
X102725243Y-58942556D03*
X110475243Y-58942556D03*
%TD*%
D26*
%TO.C,J6*%
X144680001Y-139402564D03*
X144680001Y-138402564D03*
X144680001Y-137402564D03*
X144680001Y-136402564D03*
D27*
X142155001Y-140702564D03*
X142155001Y-135102564D03*
%TD*%
D18*
%TO.C,C11*%
X190555001Y-97302560D03*
X190555001Y-95752560D03*
%TD*%
D43*
%TO.C,H2*%
X143800001Y-164500508D03*
X144502945Y-162803452D03*
X144502945Y-166197564D03*
X146200001Y-162100508D03*
D44*
X146200001Y-164500508D03*
D43*
X146200001Y-166900508D03*
X147897057Y-162803452D03*
X147897057Y-166197564D03*
X148600001Y-164500508D03*
%TD*%
D33*
%TO.C,J2*%
X98000243Y-32102556D03*
D34*
X93000243Y-32102556D03*
X88000243Y-32102556D03*
%TD*%
D40*
%TO.C,SW2*%
X188180001Y-106942560D03*
X195930001Y-106942560D03*
%TD*%
D10*
%TO.C,C2*%
X103972743Y-102192560D03*
X105522743Y-102192560D03*
%TD*%
D40*
%TO.C,SW2*%
X188180001Y-58942556D03*
X195930001Y-58942556D03*
%TD*%
D28*
%TO.C,C6*%
X153805001Y-160892564D03*
X153805001Y-162442564D03*
%TD*%
D19*
%TO.C,R6*%
X116100243Y-137252564D03*
X116100243Y-135602564D03*
%TD*%
D17*
%TO.C,JP1*%
X82210687Y-96847560D03*
X79670687Y-96847560D03*
%TD*%
D36*
%TO.C,D3*%
X205555001Y-49314702D03*
X205555001Y-46014702D03*
%TD*%
D10*
%TO.C,C12*%
X144155001Y-47802556D03*
X145705001Y-47802556D03*
%TD*%
D18*
%TO.C,C11*%
X105100243Y-97302560D03*
X105100243Y-95752560D03*
%TD*%
D33*
%TO.C,J2*%
X98000243Y-80102560D03*
D34*
X93000243Y-80102560D03*
X88000243Y-80102560D03*
%TD*%
D43*
%TO.C,H4*%
X201205001Y-81649616D03*
X201907945Y-79952560D03*
X201907945Y-83346672D03*
X203605001Y-79249616D03*
D44*
X203605001Y-81649616D03*
D43*
X203605001Y-84049616D03*
X205302057Y-79952560D03*
X205302057Y-83346672D03*
X206005001Y-81649616D03*
%TD*%
D18*
%TO.C,C4*%
X73100243Y-114442560D03*
X73100243Y-112892560D03*
%TD*%
D19*
%TO.C,R7*%
X203805001Y-41252556D03*
X203805001Y-39602556D03*
%TD*%
D36*
%TO.C,D2*%
X201016229Y-49314702D03*
X201016229Y-46014702D03*
%TD*%
D43*
%TO.C,H2*%
X58345243Y-116500504D03*
X59048187Y-114803448D03*
X59048187Y-118197560D03*
X60745243Y-114100504D03*
D44*
X60745243Y-116500504D03*
D43*
X60745243Y-118900504D03*
X62442299Y-114803448D03*
X62442299Y-118197560D03*
X63145243Y-116500504D03*
%TD*%
%TO.C,H1*%
X143800001Y-81650504D03*
X144502945Y-79953448D03*
X144502945Y-83347560D03*
X146200001Y-79250504D03*
D44*
X146200001Y-81650504D03*
D43*
X146200001Y-84050504D03*
X147897057Y-79953448D03*
X147897057Y-83347560D03*
X148600001Y-81650504D03*
%TD*%
D28*
%TO.C,C6*%
X153805001Y-112892560D03*
X153805001Y-114442560D03*
%TD*%
D31*
%TO.C,U2*%
X120173462Y-55142556D03*
X117873462Y-55142556D03*
D32*
X117873462Y-61442556D03*
D31*
X115573462Y-55142556D03*
%TD*%
D43*
%TO.C,H4*%
X115750243Y-129649620D03*
X116453187Y-127952564D03*
X116453187Y-131346676D03*
X118150243Y-127249620D03*
D44*
X118150243Y-129649620D03*
D43*
X118150243Y-132049620D03*
X119847299Y-127952564D03*
X119847299Y-131346676D03*
X120550243Y-129649620D03*
%TD*%
D10*
%TO.C,C9*%
X117073462Y-160192564D03*
X118623462Y-160192564D03*
%TD*%
D31*
%TO.C,U2*%
X205628220Y-103142560D03*
X203328220Y-103142560D03*
D32*
X203328220Y-109442560D03*
D31*
X201028220Y-103142560D03*
%TD*%
D18*
%TO.C,C7*%
X113850230Y-137252564D03*
X113850230Y-135702564D03*
%TD*%
D40*
%TO.C,SW1*%
X91347743Y-106942560D03*
X99097743Y-106942560D03*
%TD*%
D10*
%TO.C,C1*%
X178025001Y-150192564D03*
X179575001Y-150192564D03*
%TD*%
D40*
%TO.C,SW2*%
X102725243Y-106942560D03*
X110475243Y-106942560D03*
%TD*%
D37*
%TO.C,J3*%
X80363187Y-131270976D03*
X68933187Y-131270976D03*
D38*
X79093187Y-137620976D03*
D39*
X77823187Y-140160976D03*
X76553187Y-137620976D03*
X75283187Y-140160976D03*
X74013187Y-137620976D03*
X72743187Y-140160976D03*
X71473187Y-137620976D03*
X70203187Y-140160976D03*
%TD*%
D35*
%TO.C,R3*%
X107572743Y-54192556D03*
X109222743Y-54192556D03*
%TD*%
D40*
%TO.C,SW1*%
X91347743Y-154942564D03*
X99097743Y-154942564D03*
%TD*%
D19*
%TO.C,R2*%
X160357945Y-97672560D03*
X160357945Y-96022560D03*
%TD*%
D17*
%TO.C,J1*%
X164615001Y-120847560D03*
X167155001Y-120847560D03*
X169695001Y-120847560D03*
X172235001Y-120847560D03*
X174775001Y-120847560D03*
X177315001Y-120847560D03*
X179855001Y-120847560D03*
X182395001Y-120847560D03*
X184935001Y-120847560D03*
X187475001Y-120847560D03*
X190015001Y-120847560D03*
X192555001Y-120847560D03*
X195095001Y-120847560D03*
X197635001Y-120847560D03*
X200175001Y-120847560D03*
X202715001Y-120847560D03*
X205255001Y-120847560D03*
X207795001Y-120847560D03*
%TD*%
D35*
%TO.C,R1*%
X96220243Y-102192560D03*
X97870243Y-102192560D03*
%TD*%
D28*
%TO.C,C5*%
X66100243Y-112892560D03*
X66100243Y-114442560D03*
%TD*%
D20*
%TO.C,J5*%
X110608463Y-33385658D03*
X104828463Y-33385658D03*
D21*
X110918463Y-34460658D03*
X110118463Y-34460658D03*
D22*
X108968463Y-34460658D03*
X107968463Y-34460658D03*
X107468463Y-34460658D03*
X106468463Y-34460658D03*
D21*
X105318463Y-34460658D03*
X104518463Y-34460658D03*
X104518463Y-34460658D03*
X105318463Y-34460658D03*
D22*
X105968463Y-34460658D03*
X106968463Y-34460658D03*
X108468463Y-34460658D03*
X109468463Y-34460658D03*
D21*
X110118463Y-34460658D03*
X110918463Y-34460658D03*
D23*
X112038463Y-33885658D03*
D24*
X112038463Y-29705658D03*
D23*
X103398463Y-33885658D03*
D24*
X103398463Y-29705658D03*
%TD*%
D43*
%TO.C,H3*%
X216254759Y-116500504D03*
X216957703Y-114803448D03*
X216957703Y-118197560D03*
X218654759Y-114100504D03*
D44*
X218654759Y-116500504D03*
D43*
X218654759Y-118900504D03*
X220351815Y-114803448D03*
X220351815Y-118197560D03*
X221054759Y-116500504D03*
%TD*%
D18*
%TO.C,C4*%
X158555001Y-114442560D03*
X158555001Y-112892560D03*
%TD*%
D28*
%TO.C,C6*%
X153805001Y-64892556D03*
X153805001Y-66442556D03*
%TD*%
D37*
%TO.C,J3*%
X165817945Y-131270976D03*
X154387945Y-131270976D03*
D38*
X164547945Y-137620976D03*
D39*
X163277945Y-140160976D03*
X162007945Y-137620976D03*
X160737945Y-140160976D03*
X159467945Y-137620976D03*
X158197945Y-140160976D03*
X156927945Y-137620976D03*
X155657945Y-140160976D03*
%TD*%
D18*
%TO.C,C11*%
X190555001Y-145302564D03*
X190555001Y-143752564D03*
%TD*%
D19*
%TO.C,R7*%
X118350243Y-137252564D03*
X118350243Y-135602564D03*
%TD*%
D10*
%TO.C,C1*%
X178025001Y-102192560D03*
X179575001Y-102192560D03*
%TD*%
D35*
%TO.C,R1*%
X181675001Y-54192556D03*
X183325001Y-54192556D03*
%TD*%
D18*
%TO.C,C4*%
X73100243Y-162442564D03*
X73100243Y-160892564D03*
%TD*%
D19*
%TO.C,R6*%
X201555001Y-41252556D03*
X201555001Y-39602556D03*
%TD*%
D43*
%TO.C,H3*%
X130800001Y-116500504D03*
X131502945Y-114803448D03*
X131502945Y-118197560D03*
X133200001Y-114100504D03*
D44*
X133200001Y-116500504D03*
D43*
X133200001Y-118900504D03*
X134897057Y-114803448D03*
X134897057Y-118197560D03*
X135600001Y-116500504D03*
%TD*%
D46*
%TO.C,LED1*%
X80977743Y-153018814D03*
X80977743Y-156318814D03*
X85877743Y-156318814D03*
X85877743Y-153018814D03*
%TD*%
D10*
%TO.C,C9*%
X117073462Y-112192560D03*
X118623462Y-112192560D03*
%TD*%
D31*
%TO.C,U2*%
X205628220Y-55142556D03*
X203328220Y-55142556D03*
D32*
X203328220Y-61442556D03*
D31*
X201028220Y-55142556D03*
%TD*%
D18*
%TO.C,C4*%
X158555001Y-162442564D03*
X158555001Y-160892564D03*
%TD*%
D36*
%TO.C,D2*%
X201016229Y-145314710D03*
X201016229Y-142014710D03*
%TD*%
D45*
%TO.C,KiKit_TO_1*%
X61745243Y-22500000D03*
%TD*%
D18*
%TO.C,C7*%
X199304988Y-41252556D03*
X199304988Y-39702556D03*
%TD*%
D46*
%TO.C,LED1*%
X80977743Y-57018806D03*
X80977743Y-60318806D03*
X85877743Y-60318806D03*
X85877743Y-57018806D03*
%TD*%
D19*
%TO.C,R4*%
X70850243Y-162542564D03*
X70850243Y-160892564D03*
%TD*%
D45*
%TO.C,KiKit_TO_2*%
X217654758Y-22500000D03*
%TD*%
D46*
%TO.C,LED1*%
X166432501Y-57018806D03*
X166432501Y-60318806D03*
X171332501Y-60318806D03*
X171332501Y-57018806D03*
%TD*%
D41*
%TO.C,D1*%
X194304988Y-135552564D03*
D42*
X194304988Y-137252564D03*
X196304988Y-137252564D03*
X196304988Y-135352564D03*
%TD*%
D18*
%TO.C,C10*%
X187555001Y-49302556D03*
X187555001Y-47752556D03*
%TD*%
D43*
%TO.C,H2*%
X58345243Y-164500508D03*
X59048187Y-162803452D03*
X59048187Y-166197564D03*
X60745243Y-162100508D03*
D44*
X60745243Y-164500508D03*
D43*
X60745243Y-166900508D03*
X62442299Y-162803452D03*
X62442299Y-166197564D03*
X63145243Y-164500508D03*
%TD*%
%TO.C,H1*%
X143800001Y-33650500D03*
X144502945Y-31953444D03*
X144502945Y-35347556D03*
X146200001Y-31250500D03*
D44*
X146200001Y-33650500D03*
D43*
X146200001Y-36050500D03*
X147897057Y-31953444D03*
X147897057Y-35347556D03*
X148600001Y-33650500D03*
%TD*%
D33*
%TO.C,J2*%
X183455001Y-80102560D03*
D34*
X178455001Y-80102560D03*
X173455001Y-80102560D03*
%TD*%
D18*
%TO.C,C4*%
X158555001Y-66442556D03*
X158555001Y-64892556D03*
%TD*%
D41*
%TO.C,D1*%
X194304988Y-87552560D03*
D42*
X194304988Y-89252560D03*
X196304988Y-89252560D03*
X196304988Y-87352560D03*
%TD*%
D28*
%TO.C,C6*%
X68350243Y-160892564D03*
X68350243Y-162442564D03*
%TD*%
%TO.C,C3*%
X162555001Y-53002556D03*
X162555001Y-54552556D03*
%TD*%
D20*
%TO.C,J5*%
X110608463Y-81385662D03*
X104828463Y-81385662D03*
D21*
X110918463Y-82460662D03*
X110118463Y-82460662D03*
D22*
X108968463Y-82460662D03*
X107968463Y-82460662D03*
X107468463Y-82460662D03*
X106468463Y-82460662D03*
D21*
X105318463Y-82460662D03*
X104518463Y-82460662D03*
X104518463Y-82460662D03*
X105318463Y-82460662D03*
D22*
X105968463Y-82460662D03*
X106968463Y-82460662D03*
X108468463Y-82460662D03*
X109468463Y-82460662D03*
D21*
X110118463Y-82460662D03*
X110918463Y-82460662D03*
D23*
X112038463Y-81885662D03*
D24*
X112038463Y-77705662D03*
D23*
X103398463Y-81885662D03*
D24*
X103398463Y-77705662D03*
%TD*%
D46*
%TO.C,LED1*%
X166432501Y-153018814D03*
X166432501Y-156318814D03*
X171332501Y-156318814D03*
X171332501Y-153018814D03*
%TD*%
D10*
%TO.C,C1*%
X92570243Y-54192556D03*
X94120243Y-54192556D03*
%TD*%
D19*
%TO.C,R5*%
X160805001Y-114502560D03*
X160805001Y-112852560D03*
%TD*%
%TO.C,R2*%
X160357945Y-145672564D03*
X160357945Y-144022564D03*
%TD*%
%TO.C,R5*%
X75350243Y-66502556D03*
X75350243Y-64852556D03*
%TD*%
D18*
%TO.C,C7*%
X199304988Y-89252560D03*
X199304988Y-87702560D03*
%TD*%
D36*
%TO.C,D3*%
X120100243Y-49314702D03*
X120100243Y-46014702D03*
%TD*%
D11*
%TO.C,U1*%
X61950243Y-61842556D03*
X62750243Y-61842556D03*
X63550243Y-61842556D03*
X64350243Y-61842556D03*
X65150243Y-61842556D03*
X65950243Y-61842556D03*
X66750243Y-61842556D03*
X67550243Y-61842556D03*
X68350243Y-61842556D03*
X69150243Y-61842556D03*
X69950243Y-61842556D03*
D12*
X70850243Y-60742556D03*
X70850243Y-59942556D03*
X70850243Y-59142556D03*
X70850243Y-58342556D03*
X70850243Y-57542556D03*
X70850243Y-56742556D03*
X70850243Y-55942556D03*
X70850243Y-55142556D03*
X70850243Y-54342556D03*
X70850243Y-53542556D03*
X70850243Y-52742556D03*
X70850243Y-51942556D03*
X70850243Y-51142556D03*
D11*
X69950243Y-50042556D03*
X69150243Y-50042556D03*
X68350243Y-50042556D03*
X67550243Y-50042556D03*
X66750243Y-50042556D03*
X65950243Y-50042556D03*
X65150243Y-50042556D03*
X64350243Y-50042556D03*
X63550243Y-50042556D03*
X62750243Y-50042556D03*
X61950243Y-50042556D03*
D12*
X61050243Y-51142556D03*
X61050243Y-51942556D03*
X61050243Y-52742556D03*
X61050243Y-53542556D03*
X61050243Y-54342556D03*
X61050243Y-55142556D03*
X61050243Y-55942556D03*
X61050243Y-56742556D03*
X61050243Y-57542556D03*
X61050243Y-58342556D03*
X61050243Y-59142556D03*
X61050243Y-59942556D03*
X61050243Y-60742556D03*
D13*
X63975243Y-57917556D03*
D14*
X65950243Y-57917556D03*
X67925243Y-57917556D03*
X63975243Y-55942556D03*
X65950243Y-55942556D03*
X67925243Y-55942556D03*
X63975243Y-53967556D03*
X65950243Y-53967556D03*
X67925243Y-53967556D03*
D15*
X61000243Y-49992556D03*
X70900243Y-49992556D03*
X70900243Y-61892556D03*
X61000243Y-61892556D03*
%TD*%
D43*
%TO.C,H3*%
X216254759Y-164500508D03*
X216957703Y-162803452D03*
X216957703Y-166197564D03*
X218654759Y-162100508D03*
D44*
X218654759Y-164500508D03*
D43*
X218654759Y-166900508D03*
X220351815Y-162803452D03*
X220351815Y-166197564D03*
X221054759Y-164500508D03*
%TD*%
D40*
%TO.C,SW1*%
X91347743Y-58942556D03*
X99097743Y-58942556D03*
%TD*%
D10*
%TO.C,C1*%
X178025001Y-54192556D03*
X179575001Y-54192556D03*
%TD*%
D33*
%TO.C,J4*%
X131900243Y-80102560D03*
D34*
X126900243Y-80102560D03*
%TD*%
D37*
%TO.C,J3*%
X80363187Y-35270968D03*
X68933187Y-35270968D03*
D38*
X79093187Y-41620968D03*
D39*
X77823187Y-44160968D03*
X76553187Y-41620968D03*
X75283187Y-44160968D03*
X74013187Y-41620968D03*
X72743187Y-44160968D03*
X71473187Y-41620968D03*
X70203187Y-44160968D03*
%TD*%
D37*
%TO.C,J3*%
X80363187Y-83270972D03*
X68933187Y-83270972D03*
D38*
X79093187Y-89620972D03*
D39*
X77823187Y-92160972D03*
X76553187Y-89620972D03*
X75283187Y-92160972D03*
X74013187Y-89620972D03*
X72743187Y-92160972D03*
X71473187Y-89620972D03*
X70203187Y-92160972D03*
%TD*%
D33*
%TO.C,J4*%
X217355001Y-80102560D03*
D34*
X212355001Y-80102560D03*
%TD*%
D19*
%TO.C,R4*%
X70850243Y-114542560D03*
X70850243Y-112892560D03*
%TD*%
D18*
%TO.C,C10*%
X102100243Y-97302560D03*
X102100243Y-95752560D03*
%TD*%
D10*
%TO.C,C1*%
X92570243Y-150192564D03*
X94120243Y-150192564D03*
%TD*%
D43*
%TO.C,H1*%
X58345243Y-129650508D03*
X59048187Y-127953452D03*
X59048187Y-131347564D03*
X60745243Y-127250508D03*
D44*
X60745243Y-129650508D03*
D43*
X60745243Y-132050508D03*
X62442299Y-127953452D03*
X62442299Y-131347564D03*
X63145243Y-129650508D03*
%TD*%
M02*
