M48
; DRILL file {KiCad 9.0.4} date 2025-09-15T20:18:06-0400
; FORMAT={-:-/ absolute / inch / decimal}
; #@! TF.CreationDate,2025-09-15T20:18:06-04:00
; #@! TF.GenerationSoftware,Kicad,Pcbnew,9.0.4
; #@! TF.FileFunction,NonPlated,1,2,NPTH
FMAT,2
INCH
; #@! TA.AperFunction,NonPlated,NPTH,ComponentDrill
T1C0.0256
; #@! TA.AperFunction,NonPlated,NPTH,ComponentDrill
T2C0.0787
; #@! TA.AperFunction,NonPlated,NPTH,ComponentDrill
T3C0.1260
%
G90
G05
T1
X4.1271Y-1.3144
X4.1271Y-3.2042
X4.1271Y-5.0939
X4.3547Y-1.3144
X4.3547Y-3.2042
X4.3547Y-5.0939
X7.4915Y-1.3144
X7.4915Y-3.2042
X7.4915Y-5.0939
X7.719Y-1.3144
X7.719Y-3.2042
X7.719Y-5.0939
T2
X2.4309Y-0.8858
X2.4309Y-6.9095
X8.5691Y-0.8858
X8.5691Y-6.9095
T3
X2.7139Y-1.3886
X2.7139Y-3.2784
X2.7139Y-5.1681
X3.1639Y-1.3886
X3.1639Y-3.2784
X3.1639Y-5.1681
X6.0783Y-1.3886
X6.0783Y-3.2784
X6.0783Y-5.1681
X6.5283Y-1.3886
X6.5283Y-3.2784
X6.5283Y-5.1681
M30
