%TF.GenerationSoftware,KiCad,Pcbnew,9.0.4*%
%TF.CreationDate,2025-09-15T20:18:03-04:00*%
%TF.ProjectId,HabitatCAN Dev Board (ESP32) - Panel,48616269-7461-4744-9341-4e2044657620,4*%
%TF.SameCoordinates,Original*%
%TF.FileFunction,Soldermask,Bot*%
%TF.FilePolarity,Negative*%
%FSLAX46Y46*%
G04 Gerber Fmt 4.6, Leading zero omitted, Abs format (unit mm)*
G04 Created by KiCad (PCBNEW 9.0.4) date 2025-09-15 20:18:03*
%MOMM*%
%LPD*%
G01*
G04 APERTURE LIST*
G04 Aperture macros list*
%AMRoundRect*
0 Rectangle with rounded corners*
0 $1 Rounding radius*
0 $2 $3 $4 $5 $6 $7 $8 $9 X,Y pos of 4 corners*
0 Add a 4 corners polygon primitive as box body*
4,1,4,$2,$3,$4,$5,$6,$7,$8,$9,$2,$3,0*
0 Add four circle primitives for the rounded corners*
1,1,$1+$1,$2,$3*
1,1,$1+$1,$4,$5*
1,1,$1+$1,$6,$7*
1,1,$1+$1,$8,$9*
0 Add four rect primitives between the rounded corners*
20,1,$1+$1,$2,$3,$4,$5,0*
20,1,$1+$1,$4,$5,$6,$7,0*
20,1,$1+$1,$6,$7,$8,$9,0*
20,1,$1+$1,$8,$9,$2,$3,0*%
G04 Aperture macros list end*
%ADD10C,1.700000*%
%ADD11C,0.650000*%
%ADD12O,1.000000X2.100000*%
%ADD13O,1.000000X1.800000*%
%ADD14R,1.800000X1.800000*%
%ADD15C,1.800000*%
%ADD16RoundRect,0.250001X1.149999X1.149999X-1.149999X1.149999X-1.149999X-1.149999X1.149999X-1.149999X0*%
%ADD17C,2.800000*%
%ADD18C,3.200000*%
%ADD19R,1.500000X1.500000*%
%ADD20C,1.500000*%
%ADD21C,0.800000*%
%ADD22C,6.400000*%
%ADD23C,2.000000*%
%ADD24C,1.000000*%
G04 APERTURE END LIST*
D10*
%TO.C,J1*%
X79160243Y-168847564D03*
X81700243Y-168847564D03*
X84240243Y-168847564D03*
X86780243Y-168847564D03*
X89320243Y-168847564D03*
X91860243Y-168847564D03*
X94400243Y-168847564D03*
X96940243Y-168847564D03*
X99480243Y-168847564D03*
X102020243Y-168847564D03*
X104560243Y-168847564D03*
X107100243Y-168847564D03*
X109640243Y-168847564D03*
X112180243Y-168847564D03*
X114720243Y-168847564D03*
X117260243Y-168847564D03*
X119800243Y-168847564D03*
X122340243Y-168847564D03*
%TD*%
%TO.C,J1*%
X164615001Y-168847564D03*
X167155001Y-168847564D03*
X169695001Y-168847564D03*
X172235001Y-168847564D03*
X174775001Y-168847564D03*
X177315001Y-168847564D03*
X179855001Y-168847564D03*
X182395001Y-168847564D03*
X184935001Y-168847564D03*
X187475001Y-168847564D03*
X190015001Y-168847564D03*
X192555001Y-168847564D03*
X195095001Y-168847564D03*
X197635001Y-168847564D03*
X200175001Y-168847564D03*
X202715001Y-168847564D03*
X205255001Y-168847564D03*
X207795001Y-168847564D03*
%TD*%
D11*
%TO.C,J5*%
X196063221Y-81385662D03*
X190283221Y-81385662D03*
D12*
X197493221Y-81885662D03*
D13*
X197493221Y-77705662D03*
D12*
X188853221Y-81885662D03*
D13*
X188853221Y-77705662D03*
%TD*%
D14*
%TO.C,U4*%
X212147248Y-144002564D03*
D15*
X214687248Y-144002564D03*
X217227248Y-144002564D03*
%TD*%
D10*
%TO.C,J1*%
X79160243Y-72847556D03*
X81700243Y-72847556D03*
X84240243Y-72847556D03*
X86780243Y-72847556D03*
X89320243Y-72847556D03*
X91860243Y-72847556D03*
X94400243Y-72847556D03*
X96940243Y-72847556D03*
X99480243Y-72847556D03*
X102020243Y-72847556D03*
X104560243Y-72847556D03*
X107100243Y-72847556D03*
X109640243Y-72847556D03*
X112180243Y-72847556D03*
X114720243Y-72847556D03*
X117260243Y-72847556D03*
X119800243Y-72847556D03*
X122340243Y-72847556D03*
%TD*%
D16*
%TO.C,J4*%
X131900243Y-32102556D03*
D17*
X126900243Y-32102556D03*
%TD*%
D16*
%TO.C,J2*%
X183455001Y-32102556D03*
D17*
X178455001Y-32102556D03*
X173455001Y-32102556D03*
%TD*%
D18*
%TO.C,J3*%
X165817945Y-35270968D03*
X154387945Y-35270968D03*
D19*
X164547945Y-41620968D03*
D20*
X163277945Y-44160968D03*
X162007945Y-41620968D03*
X160737945Y-44160968D03*
X159467945Y-41620968D03*
X158197945Y-44160968D03*
X156927945Y-41620968D03*
X155657945Y-44160968D03*
%TD*%
D16*
%TO.C,J4*%
X217355001Y-32102556D03*
D17*
X212355001Y-32102556D03*
%TD*%
D21*
%TO.C,H2*%
X58345243Y-68500500D03*
X59048187Y-66803444D03*
X59048187Y-70197556D03*
X60745243Y-66100500D03*
D22*
X60745243Y-68500500D03*
D21*
X60745243Y-70900500D03*
X62442299Y-66803444D03*
X62442299Y-70197556D03*
X63145243Y-68500500D03*
%TD*%
D23*
%TO.C,KiKit_TO_3*%
X61745243Y-175501511D03*
%TD*%
D16*
%TO.C,J2*%
X183455001Y-128102564D03*
D17*
X178455001Y-128102564D03*
X173455001Y-128102564D03*
%TD*%
D14*
%TO.C,U4*%
X212147248Y-96002560D03*
D15*
X214687248Y-96002560D03*
X217227248Y-96002560D03*
%TD*%
D14*
%TO.C,U4*%
X126692490Y-144002564D03*
D15*
X129232490Y-144002564D03*
X131772490Y-144002564D03*
%TD*%
D10*
%TO.C,JP1*%
X82210687Y-48847556D03*
X79670687Y-48847556D03*
%TD*%
D18*
%TO.C,J3*%
X165817945Y-83270972D03*
X154387945Y-83270972D03*
D19*
X164547945Y-89620972D03*
D20*
X163277945Y-92160972D03*
X162007945Y-89620972D03*
X160737945Y-92160972D03*
X159467945Y-89620972D03*
X158197945Y-92160972D03*
X156927945Y-89620972D03*
X155657945Y-92160972D03*
%TD*%
D10*
%TO.C,JP1*%
X82210687Y-144847564D03*
X79670687Y-144847564D03*
%TD*%
D23*
%TO.C,KiKit_TO_4*%
X217654758Y-175501511D03*
%TD*%
D21*
%TO.C,H1*%
X58345243Y-33650500D03*
X59048187Y-31953444D03*
X59048187Y-35347556D03*
X60745243Y-31250500D03*
D22*
X60745243Y-33650500D03*
D21*
X60745243Y-36050500D03*
X62442299Y-31953444D03*
X62442299Y-35347556D03*
X63145243Y-33650500D03*
%TD*%
D16*
%TO.C,J4*%
X217355001Y-128102564D03*
D17*
X212355001Y-128102564D03*
%TD*%
D14*
%TO.C,U4*%
X126692490Y-96002560D03*
D15*
X129232490Y-96002560D03*
X131772490Y-96002560D03*
%TD*%
D21*
%TO.C,H2*%
X143800001Y-116500504D03*
X144502945Y-114803448D03*
X144502945Y-118197560D03*
X146200001Y-114100504D03*
D22*
X146200001Y-116500504D03*
D21*
X146200001Y-118900504D03*
X147897057Y-114803448D03*
X147897057Y-118197560D03*
X148600001Y-116500504D03*
%TD*%
D16*
%TO.C,J2*%
X98000243Y-128102564D03*
D17*
X93000243Y-128102564D03*
X88000243Y-128102564D03*
%TD*%
D21*
%TO.C,H1*%
X143800001Y-129650508D03*
X144502945Y-127953452D03*
X144502945Y-131347564D03*
X146200001Y-127250508D03*
D22*
X146200001Y-129650508D03*
D21*
X146200001Y-132050508D03*
X147897057Y-127953452D03*
X147897057Y-131347564D03*
X148600001Y-129650508D03*
%TD*%
D10*
%TO.C,JP1*%
X167665445Y-48847556D03*
X165125445Y-48847556D03*
%TD*%
D21*
%TO.C,H3*%
X216254759Y-68500500D03*
X216957703Y-66803444D03*
X216957703Y-70197556D03*
X218654759Y-66100500D03*
D22*
X218654759Y-68500500D03*
D21*
X218654759Y-70900500D03*
X220351815Y-66803444D03*
X220351815Y-70197556D03*
X221054759Y-68500500D03*
%TD*%
%TO.C,H2*%
X143800001Y-68500500D03*
X144502945Y-66803444D03*
X144502945Y-70197556D03*
X146200001Y-66100500D03*
D22*
X146200001Y-68500500D03*
D21*
X146200001Y-70900500D03*
X147897057Y-66803444D03*
X147897057Y-70197556D03*
X148600001Y-68500500D03*
%TD*%
D16*
%TO.C,J4*%
X131900243Y-128102564D03*
D17*
X126900243Y-128102564D03*
%TD*%
D21*
%TO.C,H4*%
X115750243Y-33649612D03*
X116453187Y-31952556D03*
X116453187Y-35346668D03*
X118150243Y-31249612D03*
D22*
X118150243Y-33649612D03*
D21*
X118150243Y-36049612D03*
X119847299Y-31952556D03*
X119847299Y-35346668D03*
X120550243Y-33649612D03*
%TD*%
D11*
%TO.C,J5*%
X110608463Y-129385666D03*
X104828463Y-129385666D03*
D12*
X112038463Y-129885666D03*
D13*
X112038463Y-125705666D03*
D12*
X103398463Y-129885666D03*
D13*
X103398463Y-125705666D03*
%TD*%
D21*
%TO.C,H3*%
X130800001Y-164500508D03*
X131502945Y-162803452D03*
X131502945Y-166197564D03*
X133200001Y-162100508D03*
D22*
X133200001Y-164500508D03*
D21*
X133200001Y-166900508D03*
X134897057Y-162803452D03*
X134897057Y-166197564D03*
X135600001Y-164500508D03*
%TD*%
D10*
%TO.C,JP1*%
X167665445Y-96847560D03*
X165125445Y-96847560D03*
%TD*%
D21*
%TO.C,H3*%
X130800001Y-68500500D03*
X131502945Y-66803444D03*
X131502945Y-70197556D03*
X133200001Y-66100500D03*
D22*
X133200001Y-68500500D03*
D21*
X133200001Y-70900500D03*
X134897057Y-66803444D03*
X134897057Y-70197556D03*
X135600001Y-68500500D03*
%TD*%
%TO.C,H4*%
X201205001Y-33649612D03*
X201907945Y-31952556D03*
X201907945Y-35346668D03*
X203605001Y-31249612D03*
D22*
X203605001Y-33649612D03*
D21*
X203605001Y-36049612D03*
X205302057Y-31952556D03*
X205302057Y-35346668D03*
X206005001Y-33649612D03*
%TD*%
D14*
%TO.C,U4*%
X126692490Y-48002556D03*
D15*
X129232490Y-48002556D03*
X131772490Y-48002556D03*
%TD*%
D11*
%TO.C,J5*%
X196063221Y-129385666D03*
X190283221Y-129385666D03*
D12*
X197493221Y-129885666D03*
D13*
X197493221Y-125705666D03*
D12*
X188853221Y-129885666D03*
D13*
X188853221Y-125705666D03*
%TD*%
D10*
%TO.C,J1*%
X79160243Y-120847560D03*
X81700243Y-120847560D03*
X84240243Y-120847560D03*
X86780243Y-120847560D03*
X89320243Y-120847560D03*
X91860243Y-120847560D03*
X94400243Y-120847560D03*
X96940243Y-120847560D03*
X99480243Y-120847560D03*
X102020243Y-120847560D03*
X104560243Y-120847560D03*
X107100243Y-120847560D03*
X109640243Y-120847560D03*
X112180243Y-120847560D03*
X114720243Y-120847560D03*
X117260243Y-120847560D03*
X119800243Y-120847560D03*
X122340243Y-120847560D03*
%TD*%
%TO.C,JP1*%
X167665445Y-144847564D03*
X165125445Y-144847564D03*
%TD*%
%TO.C,J1*%
X164615001Y-72847556D03*
X167155001Y-72847556D03*
X169695001Y-72847556D03*
X172235001Y-72847556D03*
X174775001Y-72847556D03*
X177315001Y-72847556D03*
X179855001Y-72847556D03*
X182395001Y-72847556D03*
X184935001Y-72847556D03*
X187475001Y-72847556D03*
X190015001Y-72847556D03*
X192555001Y-72847556D03*
X195095001Y-72847556D03*
X197635001Y-72847556D03*
X200175001Y-72847556D03*
X202715001Y-72847556D03*
X205255001Y-72847556D03*
X207795001Y-72847556D03*
%TD*%
D14*
%TO.C,U4*%
X212147248Y-48002556D03*
D15*
X214687248Y-48002556D03*
X217227248Y-48002556D03*
%TD*%
D21*
%TO.C,H1*%
X58345243Y-81650504D03*
X59048187Y-79953448D03*
X59048187Y-83347560D03*
X60745243Y-79250504D03*
D22*
X60745243Y-81650504D03*
D21*
X60745243Y-84050504D03*
X62442299Y-79953448D03*
X62442299Y-83347560D03*
X63145243Y-81650504D03*
%TD*%
%TO.C,H4*%
X115750243Y-81649616D03*
X116453187Y-79952560D03*
X116453187Y-83346672D03*
X118150243Y-79249616D03*
D22*
X118150243Y-81649616D03*
D21*
X118150243Y-84049616D03*
X119847299Y-79952560D03*
X119847299Y-83346672D03*
X120550243Y-81649616D03*
%TD*%
%TO.C,H4*%
X201205001Y-129649620D03*
X201907945Y-127952564D03*
X201907945Y-131346676D03*
X203605001Y-127249620D03*
D22*
X203605001Y-129649620D03*
D21*
X203605001Y-132049620D03*
X205302057Y-127952564D03*
X205302057Y-131346676D03*
X206005001Y-129649620D03*
%TD*%
D11*
%TO.C,J5*%
X196063221Y-33385658D03*
X190283221Y-33385658D03*
D12*
X197493221Y-33885658D03*
D13*
X197493221Y-29705658D03*
D12*
X188853221Y-33885658D03*
D13*
X188853221Y-29705658D03*
%TD*%
D21*
%TO.C,H2*%
X143800001Y-164500508D03*
X144502945Y-162803452D03*
X144502945Y-166197564D03*
X146200001Y-162100508D03*
D22*
X146200001Y-164500508D03*
D21*
X146200001Y-166900508D03*
X147897057Y-162803452D03*
X147897057Y-166197564D03*
X148600001Y-164500508D03*
%TD*%
D16*
%TO.C,J2*%
X98000243Y-32102556D03*
D17*
X93000243Y-32102556D03*
X88000243Y-32102556D03*
%TD*%
D10*
%TO.C,JP1*%
X82210687Y-96847560D03*
X79670687Y-96847560D03*
%TD*%
D16*
%TO.C,J2*%
X98000243Y-80102560D03*
D17*
X93000243Y-80102560D03*
X88000243Y-80102560D03*
%TD*%
D21*
%TO.C,H4*%
X201205001Y-81649616D03*
X201907945Y-79952560D03*
X201907945Y-83346672D03*
X203605001Y-79249616D03*
D22*
X203605001Y-81649616D03*
D21*
X203605001Y-84049616D03*
X205302057Y-79952560D03*
X205302057Y-83346672D03*
X206005001Y-81649616D03*
%TD*%
%TO.C,H2*%
X58345243Y-116500504D03*
X59048187Y-114803448D03*
X59048187Y-118197560D03*
X60745243Y-114100504D03*
D22*
X60745243Y-116500504D03*
D21*
X60745243Y-118900504D03*
X62442299Y-114803448D03*
X62442299Y-118197560D03*
X63145243Y-116500504D03*
%TD*%
%TO.C,H1*%
X143800001Y-81650504D03*
X144502945Y-79953448D03*
X144502945Y-83347560D03*
X146200001Y-79250504D03*
D22*
X146200001Y-81650504D03*
D21*
X146200001Y-84050504D03*
X147897057Y-79953448D03*
X147897057Y-83347560D03*
X148600001Y-81650504D03*
%TD*%
%TO.C,H4*%
X115750243Y-129649620D03*
X116453187Y-127952564D03*
X116453187Y-131346676D03*
X118150243Y-127249620D03*
D22*
X118150243Y-129649620D03*
D21*
X118150243Y-132049620D03*
X119847299Y-127952564D03*
X119847299Y-131346676D03*
X120550243Y-129649620D03*
%TD*%
D18*
%TO.C,J3*%
X80363187Y-131270976D03*
X68933187Y-131270976D03*
D19*
X79093187Y-137620976D03*
D20*
X77823187Y-140160976D03*
X76553187Y-137620976D03*
X75283187Y-140160976D03*
X74013187Y-137620976D03*
X72743187Y-140160976D03*
X71473187Y-137620976D03*
X70203187Y-140160976D03*
%TD*%
D10*
%TO.C,J1*%
X164615001Y-120847560D03*
X167155001Y-120847560D03*
X169695001Y-120847560D03*
X172235001Y-120847560D03*
X174775001Y-120847560D03*
X177315001Y-120847560D03*
X179855001Y-120847560D03*
X182395001Y-120847560D03*
X184935001Y-120847560D03*
X187475001Y-120847560D03*
X190015001Y-120847560D03*
X192555001Y-120847560D03*
X195095001Y-120847560D03*
X197635001Y-120847560D03*
X200175001Y-120847560D03*
X202715001Y-120847560D03*
X205255001Y-120847560D03*
X207795001Y-120847560D03*
%TD*%
D11*
%TO.C,J5*%
X110608463Y-33385658D03*
X104828463Y-33385658D03*
D12*
X112038463Y-33885658D03*
D13*
X112038463Y-29705658D03*
D12*
X103398463Y-33885658D03*
D13*
X103398463Y-29705658D03*
%TD*%
D21*
%TO.C,H3*%
X216254759Y-116500504D03*
X216957703Y-114803448D03*
X216957703Y-118197560D03*
X218654759Y-114100504D03*
D22*
X218654759Y-116500504D03*
D21*
X218654759Y-118900504D03*
X220351815Y-114803448D03*
X220351815Y-118197560D03*
X221054759Y-116500504D03*
%TD*%
D18*
%TO.C,J3*%
X165817945Y-131270976D03*
X154387945Y-131270976D03*
D19*
X164547945Y-137620976D03*
D20*
X163277945Y-140160976D03*
X162007945Y-137620976D03*
X160737945Y-140160976D03*
X159467945Y-137620976D03*
X158197945Y-140160976D03*
X156927945Y-137620976D03*
X155657945Y-140160976D03*
%TD*%
D21*
%TO.C,H3*%
X130800001Y-116500504D03*
X131502945Y-114803448D03*
X131502945Y-118197560D03*
X133200001Y-114100504D03*
D22*
X133200001Y-116500504D03*
D21*
X133200001Y-118900504D03*
X134897057Y-114803448D03*
X134897057Y-118197560D03*
X135600001Y-116500504D03*
%TD*%
D23*
%TO.C,KiKit_TO_1*%
X61745243Y-22500000D03*
%TD*%
%TO.C,KiKit_TO_2*%
X217654758Y-22500000D03*
%TD*%
D21*
%TO.C,H2*%
X58345243Y-164500508D03*
X59048187Y-162803452D03*
X59048187Y-166197564D03*
X60745243Y-162100508D03*
D22*
X60745243Y-164500508D03*
D21*
X60745243Y-166900508D03*
X62442299Y-162803452D03*
X62442299Y-166197564D03*
X63145243Y-164500508D03*
%TD*%
%TO.C,H1*%
X143800001Y-33650500D03*
X144502945Y-31953444D03*
X144502945Y-35347556D03*
X146200001Y-31250500D03*
D22*
X146200001Y-33650500D03*
D21*
X146200001Y-36050500D03*
X147897057Y-31953444D03*
X147897057Y-35347556D03*
X148600001Y-33650500D03*
%TD*%
D16*
%TO.C,J2*%
X183455001Y-80102560D03*
D17*
X178455001Y-80102560D03*
X173455001Y-80102560D03*
%TD*%
D11*
%TO.C,J5*%
X110608463Y-81385662D03*
X104828463Y-81385662D03*
D12*
X112038463Y-81885662D03*
D13*
X112038463Y-77705662D03*
D12*
X103398463Y-81885662D03*
D13*
X103398463Y-77705662D03*
%TD*%
D21*
%TO.C,H3*%
X216254759Y-164500508D03*
X216957703Y-162803452D03*
X216957703Y-166197564D03*
X218654759Y-162100508D03*
D22*
X218654759Y-164500508D03*
D21*
X218654759Y-166900508D03*
X220351815Y-162803452D03*
X220351815Y-166197564D03*
X221054759Y-164500508D03*
%TD*%
D16*
%TO.C,J4*%
X131900243Y-80102560D03*
D17*
X126900243Y-80102560D03*
%TD*%
D18*
%TO.C,J3*%
X80363187Y-35270968D03*
X68933187Y-35270968D03*
D19*
X79093187Y-41620968D03*
D20*
X77823187Y-44160968D03*
X76553187Y-41620968D03*
X75283187Y-44160968D03*
X74013187Y-41620968D03*
X72743187Y-44160968D03*
X71473187Y-41620968D03*
X70203187Y-44160968D03*
%TD*%
D18*
%TO.C,J3*%
X80363187Y-83270972D03*
X68933187Y-83270972D03*
D19*
X79093187Y-89620972D03*
D20*
X77823187Y-92160972D03*
X76553187Y-89620972D03*
X75283187Y-92160972D03*
X74013187Y-89620972D03*
X72743187Y-92160972D03*
X71473187Y-89620972D03*
X70203187Y-92160972D03*
%TD*%
D16*
%TO.C,J4*%
X217355001Y-80102560D03*
D17*
X212355001Y-80102560D03*
%TD*%
D21*
%TO.C,H1*%
X58345243Y-129650508D03*
X59048187Y-127953452D03*
X59048187Y-131347564D03*
X60745243Y-127250508D03*
D22*
X60745243Y-129650508D03*
D21*
X60745243Y-132050508D03*
X62442299Y-127953452D03*
X62442299Y-131347564D03*
X63145243Y-129650508D03*
%TD*%
D24*
%TO.C,KiKit_FID_B_1*%
X56745243Y-22500000D03*
%TD*%
%TO.C,KiKit_FID_B_3*%
X56745243Y-175501511D03*
%TD*%
%TO.C,KiKit_FID_B_2*%
X222654758Y-22500000D03*
%TD*%
M02*
