%TF.GenerationSoftware,KiCad,Pcbnew,9.0.4*%
%TF.CreationDate,2025-09-14T05:25:08-04:00*%
%TF.ProjectId,HabitatCAN Dev Board (ESP32),48616269-7461-4744-9341-4e2044657620,3*%
%TF.SameCoordinates,Original*%
%TF.FileFunction,Copper,L2,Bot*%
%TF.FilePolarity,Positive*%
%FSLAX46Y46*%
G04 Gerber Fmt 4.6, Leading zero omitted, Abs format (unit mm)*
G04 Created by KiCad (PCBNEW 9.0.4) date 2025-09-14 05:25:08*
%MOMM*%
%LPD*%
G01*
G04 APERTURE LIST*
G04 Aperture macros list*
%AMRoundRect*
0 Rectangle with rounded corners*
0 $1 Rounding radius*
0 $2 $3 $4 $5 $6 $7 $8 $9 X,Y pos of 4 corners*
0 Add a 4 corners polygon primitive as box body*
4,1,4,$2,$3,$4,$5,$6,$7,$8,$9,$2,$3,0*
0 Add four circle primitives for the rounded corners*
1,1,$1+$1,$2,$3*
1,1,$1+$1,$4,$5*
1,1,$1+$1,$6,$7*
1,1,$1+$1,$8,$9*
0 Add four rect primitives between the rounded corners*
20,1,$1+$1,$2,$3,$4,$5,0*
20,1,$1+$1,$4,$5,$6,$7,0*
20,1,$1+$1,$6,$7,$8,$9,0*
20,1,$1+$1,$8,$9,$2,$3,0*%
G04 Aperture macros list end*
%TA.AperFunction,ComponentPad*%
%ADD10C,1.700000*%
%TD*%
%TA.AperFunction,ComponentPad*%
%ADD11C,0.800000*%
%TD*%
%TA.AperFunction,ComponentPad*%
%ADD12C,6.400000*%
%TD*%
%TA.AperFunction,ComponentPad*%
%ADD13RoundRect,0.250001X1.149999X1.149999X-1.149999X1.149999X-1.149999X-1.149999X1.149999X-1.149999X0*%
%TD*%
%TA.AperFunction,ComponentPad*%
%ADD14C,2.800000*%
%TD*%
%TA.AperFunction,ComponentPad*%
%ADD15R,1.800000X1.800000*%
%TD*%
%TA.AperFunction,ComponentPad*%
%ADD16C,1.800000*%
%TD*%
%TA.AperFunction,HeatsinkPad*%
%ADD17O,1.000000X2.100000*%
%TD*%
%TA.AperFunction,HeatsinkPad*%
%ADD18O,1.000000X1.800000*%
%TD*%
%TA.AperFunction,ComponentPad*%
%ADD19R,1.500000X1.500000*%
%TD*%
%TA.AperFunction,ComponentPad*%
%ADD20C,1.500000*%
%TD*%
%TA.AperFunction,ViaPad*%
%ADD21C,0.600000*%
%TD*%
%TA.AperFunction,ViaPad*%
%ADD22C,0.900000*%
%TD*%
%TA.AperFunction,Conductor*%
%ADD23C,0.200000*%
%TD*%
%TA.AperFunction,Conductor*%
%ADD24C,0.500000*%
%TD*%
G04 APERTURE END LIST*
D10*
%TO.P,J1,1,Pin_1*%
%TO.N,GND*%
X116560000Y-126345000D03*
%TO.P,J1,2,Pin_2*%
%TO.N,+3V3*%
X119100000Y-126345000D03*
%TO.P,J1,3,Pin_3*%
%TO.N,GPIO0*%
X121640000Y-126345000D03*
%TO.P,J1,4,Pin_4*%
%TO.N,GPIO1*%
X124180000Y-126345000D03*
%TO.P,J1,5,Pin_5*%
%TO.N,GPIO2*%
X126720000Y-126345000D03*
%TO.P,J1,6,Pin_6*%
%TO.N,GPIO3*%
X129260000Y-126345000D03*
%TO.P,J1,7,Pin_7*%
%TO.N,GPIO4*%
X131800000Y-126345000D03*
%TO.P,J1,8,Pin_8*%
%TO.N,GPIO5*%
X134340000Y-126345000D03*
%TO.P,J1,9,Pin_9*%
%TO.N,GPIO6*%
X136880000Y-126345000D03*
%TO.P,J1,10,Pin_10*%
%TO.N,GPIO7*%
X139420000Y-126345000D03*
%TO.P,J1,11,Pin_11*%
%TO.N,GPIO8*%
X141960000Y-126345000D03*
%TO.P,J1,12,Pin_12*%
%TO.N,GPIO9*%
X144500000Y-126345000D03*
%TO.P,J1,13,Pin_13*%
%TO.N,GPIO10*%
X147040000Y-126345000D03*
%TO.P,J1,14,Pin_14*%
%TO.N,S_TX*%
X149580000Y-126345000D03*
%TO.P,J1,15,Pin_15*%
%TO.N,S_RX*%
X152120000Y-126345000D03*
%TO.P,J1,16,Pin_16*%
%TO.N,EN*%
X154660000Y-126345000D03*
%TO.P,J1,17,Pin_17*%
%TO.N,+5V*%
X157200000Y-126345000D03*
%TO.P,J1,18,Pin_18*%
%TO.N,GND*%
X159740000Y-126345000D03*
%TD*%
D11*
%TO.P,H2,1,1*%
%TO.N,GND*%
X95745000Y-121997944D03*
X96447944Y-120300888D03*
X96447944Y-123695000D03*
X98145000Y-119597944D03*
D12*
X98145000Y-121997944D03*
D11*
X98145000Y-124397944D03*
X99842056Y-120300888D03*
X99842056Y-123695000D03*
X100545000Y-121997944D03*
%TD*%
D13*
%TO.P,J2,1,Pin_1*%
%TO.N,GND*%
X135400000Y-85600000D03*
D14*
%TO.P,J2,2,Pin_2*%
%TO.N,CAN_H*%
X130400000Y-85600000D03*
%TO.P,J2,3,Pin_3*%
%TO.N,CAN_L*%
X125400000Y-85600000D03*
%TD*%
D11*
%TO.P,H1,1,1*%
%TO.N,GND*%
X95745000Y-87147944D03*
X96447944Y-85450888D03*
X96447944Y-88845000D03*
X98145000Y-84747944D03*
D12*
X98145000Y-87147944D03*
D11*
X98145000Y-89547944D03*
X99842056Y-85450888D03*
X99842056Y-88845000D03*
X100545000Y-87147944D03*
%TD*%
D15*
%TO.P,U4,1,IN*%
%TO.N,+24V*%
X164092247Y-101500000D03*
D16*
%TO.P,U4,2,GND*%
%TO.N,GND*%
X166632247Y-101500000D03*
%TO.P,U4,3,OUT*%
%TO.N,Net-(D3-A)*%
X169172247Y-101500000D03*
%TD*%
D11*
%TO.P,H4,1,1*%
%TO.N,GND*%
X153150000Y-87147056D03*
X153852944Y-85450000D03*
X153852944Y-88844112D03*
X155550000Y-84747056D03*
D12*
X155550000Y-87147056D03*
D11*
X155550000Y-89547056D03*
X157247056Y-85450000D03*
X157247056Y-88844112D03*
X157950000Y-87147056D03*
%TD*%
D13*
%TO.P,J4,1,Pin_1*%
%TO.N,GND*%
X169300000Y-85600000D03*
D14*
%TO.P,J4,2,Pin_2*%
%TO.N,+24V*%
X164300000Y-85600000D03*
%TD*%
D10*
%TO.P,JP1,1,A*%
%TO.N,CAN_L*%
X119610444Y-102345000D03*
%TO.P,JP1,2,B*%
%TO.N,Net-(JP1-B)*%
X117070444Y-102345000D03*
%TD*%
D17*
%TO.P,J5,S1,SHIELD*%
%TO.N,GND*%
X149438220Y-87383102D03*
D18*
X149438220Y-83203102D03*
D17*
X140798220Y-87383102D03*
D18*
X140798220Y-83203102D03*
%TD*%
D11*
%TO.P,H3,1,1*%
%TO.N,GND*%
X168199758Y-121997944D03*
X168902702Y-120300888D03*
X168902702Y-123695000D03*
X170599758Y-119597944D03*
D12*
X170599758Y-121997944D03*
D11*
X170599758Y-124397944D03*
X172296814Y-120300888D03*
X172296814Y-123695000D03*
X172999758Y-121997944D03*
%TD*%
D19*
%TO.P,J3,1*%
%TO.N,GND*%
X116492944Y-95118412D03*
D20*
%TO.P,J3,2*%
X115222944Y-97658412D03*
%TO.P,J3,3*%
%TO.N,CAN_H*%
X113952944Y-95118412D03*
%TO.P,J3,4*%
%TO.N,+24V*%
X112682944Y-97658412D03*
%TO.P,J3,5*%
X111412944Y-95118412D03*
%TO.P,J3,6*%
%TO.N,CAN_L*%
X110142944Y-97658412D03*
%TO.P,J3,7*%
%TO.N,unconnected-(J3-Pad7)*%
X108872944Y-95118412D03*
%TO.P,J3,8*%
%TO.N,unconnected-(J3-Pad8)*%
X107602944Y-97658412D03*
%TD*%
D21*
%TO.N,GND*%
X121920000Y-95885000D03*
X121920000Y-99695000D03*
X120967500Y-89535000D03*
X115570000Y-85407500D03*
X118500000Y-117750000D03*
X120967500Y-85407500D03*
%TO.N,EN*%
X123000000Y-116500000D03*
X110250000Y-116500000D03*
D22*
%TO.N,+3V3*%
X111760000Y-117475000D03*
X152760719Y-118110000D03*
D21*
%TO.N,GPIO4*%
X107327853Y-109479737D03*
X126000000Y-97750000D03*
%TO.N,GPIO3*%
X102750000Y-113250000D03*
%TO.N,S_TX*%
X103000000Y-105500000D03*
%TO.N,GPIO8*%
X116750000Y-112750000D03*
X113250000Y-117100000D03*
X121750000Y-117100000D03*
X120750000Y-112750000D03*
%TO.N,GPIO5*%
X106890014Y-108640014D03*
X126500000Y-98500000D03*
%TO.N,GPIO2*%
X102000000Y-114000000D03*
%TO.N,GPIO10*%
X107000000Y-111500000D03*
%TO.N,S_RX*%
X103750000Y-104750000D03*
%TO.N,GPIO0*%
X124250000Y-115750000D03*
X112875000Y-115375000D03*
D22*
%TO.N,/USB C Connector/USB_PWR*%
X149749987Y-90250002D03*
X144150000Y-92450000D03*
%TD*%
D23*
%TO.N,EN*%
X110250000Y-116500000D02*
X123000000Y-116500000D01*
D24*
%TO.N,+3V3*%
X152760719Y-118110000D02*
X152369719Y-118501005D01*
X112786000Y-118500999D02*
X152369719Y-118501005D01*
X111760000Y-117475000D02*
X112786000Y-118500999D01*
%TO.N,+24V*%
X163050000Y-94150000D02*
X164250000Y-92950000D01*
X143250000Y-94150000D02*
X163050000Y-94150000D01*
X111400000Y-94100000D02*
X112400000Y-93100000D01*
X111400000Y-95131356D02*
X111412944Y-95118412D01*
X111400000Y-96375468D02*
X111400000Y-95131356D01*
X112400000Y-93100000D02*
X142200000Y-93100000D01*
X112682944Y-97658412D02*
X111400000Y-96375468D01*
X111412944Y-95118412D02*
X111400000Y-95105468D01*
X164250000Y-92950000D02*
X164250000Y-85595000D01*
X111400000Y-95105468D02*
X111400000Y-94100000D01*
X142200000Y-93100000D02*
X143250000Y-94150000D01*
D23*
%TO.N,GPIO4*%
X102499998Y-99999996D02*
X101500000Y-100999999D01*
X107312649Y-109494924D02*
X107327853Y-109479737D01*
X107312649Y-109494924D02*
X107307587Y-109499995D01*
X107286099Y-109499999D02*
X107307587Y-109499995D01*
X101500000Y-100999999D02*
X101499996Y-108500001D01*
X126000000Y-97750000D02*
X118500003Y-97750007D01*
X102499999Y-109500000D02*
X107286099Y-109499999D01*
X116249996Y-99999995D02*
X118500003Y-97750007D01*
X101499996Y-108500001D02*
X102499999Y-109500000D01*
X116249996Y-99999995D02*
X102499998Y-99999996D01*
%TO.N,GPIO3*%
X129260016Y-124509993D02*
X128000003Y-123249988D01*
X103749999Y-123250000D02*
X128000003Y-123249988D01*
X129260016Y-124509993D02*
X129260000Y-126345000D01*
X102749996Y-122250001D02*
X103749999Y-123250000D01*
X102750000Y-113250000D02*
X102749996Y-122250001D01*
%TO.N,S_TX*%
X103000000Y-105500000D02*
X106999998Y-105500001D01*
X106999998Y-105500001D02*
X107999998Y-106500000D01*
X148749999Y-121499999D02*
X149579999Y-122330000D01*
X149579999Y-122330000D02*
X149580000Y-126345000D01*
X108499995Y-121500011D02*
X148749999Y-121499999D01*
X107999958Y-121000016D02*
X108499995Y-121500011D01*
X107999998Y-106500000D02*
X107999958Y-121000016D01*
%TO.N,GPIO8*%
X121750000Y-117100000D02*
X113250000Y-117100000D01*
X120750000Y-112750000D02*
X116750000Y-112750000D01*
%TO.N,GPIO5*%
X101999977Y-108000008D02*
X102000000Y-101499999D01*
X118749996Y-98499991D02*
X126500000Y-98500000D01*
X102639983Y-108640014D02*
X101999977Y-108000008D01*
X102000000Y-101499999D02*
X102999998Y-100499996D01*
X102999998Y-100499996D02*
X116750001Y-100500005D01*
X116750001Y-100500005D02*
X118749996Y-98499991D01*
X106890014Y-108640014D02*
X102639983Y-108640014D01*
%TO.N,GPIO2*%
X101999996Y-122750001D02*
X102000000Y-114000000D01*
X126000002Y-123749992D02*
X102999999Y-123750000D01*
X126000002Y-123749992D02*
X126719998Y-124470000D01*
X102999999Y-123750000D02*
X101999996Y-122750001D01*
X126719998Y-124470000D02*
X126720000Y-126345000D01*
%TO.N,GPIO10*%
X107000000Y-111500000D02*
X106999958Y-121500016D01*
X146250001Y-121999993D02*
X147039999Y-122790000D01*
X146250001Y-121999993D02*
X107499995Y-122000011D01*
X147039999Y-122790000D02*
X147040000Y-126345000D01*
X106999958Y-121500016D02*
X107499995Y-122000011D01*
%TO.N,S_RX*%
X151500000Y-120999996D02*
X152119999Y-121620000D01*
X108749998Y-105750000D02*
X107749998Y-104750001D01*
X109500009Y-120999976D02*
X151500000Y-120999996D01*
X108749998Y-105750000D02*
X108749976Y-120250008D01*
X152119999Y-121620000D02*
X152120000Y-126345000D01*
X107749998Y-104750001D02*
X103750000Y-104750000D01*
X108749976Y-120250008D02*
X109500009Y-120999976D01*
%TO.N,GPIO0*%
X112875000Y-115375000D02*
X113250000Y-115750000D01*
X113250000Y-115750000D02*
X124250000Y-115750000D01*
D24*
%TO.N,/USB C Connector/USB_PWR*%
X146350000Y-90250000D02*
X149749985Y-90250000D01*
X144150000Y-92450000D02*
X146350000Y-90250000D01*
X149749985Y-90250000D02*
X149749987Y-90250002D01*
%TD*%
%TA.AperFunction,Conductor*%
%TO.N,GND*%
G36*
X170533860Y-80998443D02*
G01*
X170533861Y-80998444D01*
X170598798Y-80998444D01*
X170600720Y-80998481D01*
X171068553Y-81016866D01*
X171072372Y-81017167D01*
X171536389Y-81072091D01*
X171540150Y-81072687D01*
X171919666Y-81148180D01*
X171998414Y-81163845D01*
X172002155Y-81164743D01*
X172118991Y-81197694D01*
X172451859Y-81291575D01*
X172455488Y-81292754D01*
X172893843Y-81454474D01*
X172897397Y-81455946D01*
X173321715Y-81651561D01*
X173325133Y-81653302D01*
X173713979Y-81871068D01*
X173732794Y-81881605D01*
X173736072Y-81883613D01*
X174124570Y-82143202D01*
X174127665Y-82145450D01*
X174228133Y-82224653D01*
X174494591Y-82434713D01*
X174497516Y-82437211D01*
X174644573Y-82573149D01*
X174840625Y-82754378D01*
X174843319Y-82757072D01*
X175070519Y-83002855D01*
X175160489Y-83100184D01*
X175162987Y-83103109D01*
X175452243Y-83470027D01*
X175454500Y-83473133D01*
X175714079Y-83861618D01*
X175714089Y-83861632D01*
X175716099Y-83864913D01*
X175944388Y-84272553D01*
X175946135Y-84275980D01*
X176141753Y-84700303D01*
X176143225Y-84703858D01*
X176304940Y-85142198D01*
X176306129Y-85145857D01*
X176432956Y-85595546D01*
X176433854Y-85599287D01*
X176525009Y-86057532D01*
X176525611Y-86061332D01*
X176580531Y-86525321D01*
X176580833Y-86529157D01*
X176599220Y-86997030D01*
X176599258Y-86998954D01*
X176599258Y-121996987D01*
X176599220Y-121998911D01*
X176580838Y-122466737D01*
X176580536Y-122470572D01*
X176525620Y-122934561D01*
X176525018Y-122938361D01*
X176433867Y-123396605D01*
X176432969Y-123400347D01*
X176306143Y-123850039D01*
X176304954Y-123853698D01*
X176143238Y-124292045D01*
X176141766Y-124295599D01*
X175946155Y-124719915D01*
X175944408Y-124723344D01*
X175716115Y-125130989D01*
X175714105Y-125134269D01*
X175454527Y-125522755D01*
X175452266Y-125525868D01*
X175162999Y-125892802D01*
X175160500Y-125895727D01*
X174843351Y-126238817D01*
X174840630Y-126241538D01*
X174497540Y-126558687D01*
X174494615Y-126561186D01*
X174127681Y-126850454D01*
X174124568Y-126852715D01*
X173736082Y-127112293D01*
X173732802Y-127114303D01*
X173325157Y-127342596D01*
X173321728Y-127344343D01*
X172897413Y-127539955D01*
X172893859Y-127541427D01*
X172455512Y-127703143D01*
X172451853Y-127704332D01*
X172002161Y-127831158D01*
X171998419Y-127832056D01*
X171540175Y-127923207D01*
X171536375Y-127923809D01*
X171072386Y-127978726D01*
X171068551Y-127979028D01*
X170600826Y-127997406D01*
X170598902Y-127997444D01*
X98145957Y-127997444D01*
X98144033Y-127997406D01*
X97676207Y-127979025D01*
X97672372Y-127978723D01*
X97208385Y-127923806D01*
X97204587Y-127923204D01*
X97068532Y-127896141D01*
X96746342Y-127832053D01*
X96742601Y-127831155D01*
X96292911Y-127704329D01*
X96289252Y-127703140D01*
X95850907Y-127541425D01*
X95847353Y-127539953D01*
X95539303Y-127397939D01*
X95423041Y-127344341D01*
X95419622Y-127342599D01*
X95030776Y-127124833D01*
X95011963Y-127114297D01*
X95008683Y-127112287D01*
X94816262Y-126983715D01*
X94620192Y-126852704D01*
X94617084Y-126850446D01*
X94607126Y-126842596D01*
X94504461Y-126761660D01*
X94250168Y-126561190D01*
X94247243Y-126558692D01*
X93940468Y-126275110D01*
X93904148Y-126241536D01*
X93904147Y-126241535D01*
X118049500Y-126241535D01*
X118049500Y-126448465D01*
X118089870Y-126651420D01*
X118169059Y-126842598D01*
X118284023Y-127014655D01*
X118430345Y-127160977D01*
X118602402Y-127275941D01*
X118793580Y-127355130D01*
X118996535Y-127395500D01*
X118996538Y-127395500D01*
X119203462Y-127395500D01*
X119203465Y-127395500D01*
X119406420Y-127355130D01*
X119597598Y-127275941D01*
X119769655Y-127160977D01*
X119915977Y-127014655D01*
X120030941Y-126842598D01*
X120110130Y-126651420D01*
X120150500Y-126448465D01*
X120150500Y-126241535D01*
X120589500Y-126241535D01*
X120589500Y-126448465D01*
X120629870Y-126651420D01*
X120709059Y-126842598D01*
X120824023Y-127014655D01*
X120970345Y-127160977D01*
X121142402Y-127275941D01*
X121333580Y-127355130D01*
X121536535Y-127395500D01*
X121536538Y-127395500D01*
X121743462Y-127395500D01*
X121743465Y-127395500D01*
X121946420Y-127355130D01*
X122137598Y-127275941D01*
X122309655Y-127160977D01*
X122455977Y-127014655D01*
X122570941Y-126842598D01*
X122650130Y-126651420D01*
X122690500Y-126448465D01*
X122690500Y-126241535D01*
X123129500Y-126241535D01*
X123129500Y-126448465D01*
X123169870Y-126651420D01*
X123249059Y-126842598D01*
X123364023Y-127014655D01*
X123510345Y-127160977D01*
X123682402Y-127275941D01*
X123873580Y-127355130D01*
X124076535Y-127395500D01*
X124076538Y-127395500D01*
X124283462Y-127395500D01*
X124283465Y-127395500D01*
X124486420Y-127355130D01*
X124677598Y-127275941D01*
X124849655Y-127160977D01*
X124995977Y-127014655D01*
X125110941Y-126842598D01*
X125190130Y-126651420D01*
X125230500Y-126448465D01*
X125230500Y-126241535D01*
X125190130Y-126038580D01*
X125110941Y-125847402D01*
X124995977Y-125675345D01*
X124849655Y-125529023D01*
X124844933Y-125525868D01*
X124764207Y-125471929D01*
X124677598Y-125414059D01*
X124677596Y-125414058D01*
X124486423Y-125334871D01*
X124486417Y-125334869D01*
X124403755Y-125318427D01*
X124283465Y-125294500D01*
X124076535Y-125294500D01*
X123975520Y-125314592D01*
X123873582Y-125334869D01*
X123873576Y-125334871D01*
X123682403Y-125414058D01*
X123510345Y-125529022D01*
X123364022Y-125675345D01*
X123249058Y-125847403D01*
X123169871Y-126038576D01*
X123169869Y-126038582D01*
X123139523Y-126191142D01*
X123129500Y-126241535D01*
X122690500Y-126241535D01*
X122650130Y-126038580D01*
X122570941Y-125847402D01*
X122455977Y-125675345D01*
X122309655Y-125529023D01*
X122304933Y-125525868D01*
X122224207Y-125471929D01*
X122137598Y-125414059D01*
X122137596Y-125414058D01*
X121946423Y-125334871D01*
X121946417Y-125334869D01*
X121863755Y-125318427D01*
X121743465Y-125294500D01*
X121536535Y-125294500D01*
X121435520Y-125314592D01*
X121333582Y-125334869D01*
X121333576Y-125334871D01*
X121142403Y-125414058D01*
X120970345Y-125529022D01*
X120824022Y-125675345D01*
X120709058Y-125847403D01*
X120629871Y-126038576D01*
X120629869Y-126038582D01*
X120599523Y-126191142D01*
X120589500Y-126241535D01*
X120150500Y-126241535D01*
X120110130Y-126038580D01*
X120030941Y-125847402D01*
X119915977Y-125675345D01*
X119769655Y-125529023D01*
X119764933Y-125525868D01*
X119684207Y-125471929D01*
X119597598Y-125414059D01*
X119597596Y-125414058D01*
X119406423Y-125334871D01*
X119406417Y-125334869D01*
X119323755Y-125318427D01*
X119203465Y-125294500D01*
X118996535Y-125294500D01*
X118895520Y-125314592D01*
X118793582Y-125334869D01*
X118793576Y-125334871D01*
X118602403Y-125414058D01*
X118430345Y-125529022D01*
X118284022Y-125675345D01*
X118169058Y-125847403D01*
X118089871Y-126038576D01*
X118089869Y-126038582D01*
X118059523Y-126191142D01*
X118049500Y-126241535D01*
X93904147Y-126241535D01*
X93901427Y-126238815D01*
X93674225Y-125993027D01*
X93584273Y-125895716D01*
X93581776Y-125892793D01*
X93292521Y-125525871D01*
X93290260Y-125522759D01*
X93290257Y-125522755D01*
X93030682Y-125134267D01*
X93028672Y-125130986D01*
X92800384Y-124723344D01*
X92800376Y-124723330D01*
X92798636Y-124719915D01*
X92603020Y-124295583D01*
X92601555Y-124292045D01*
X92439838Y-123853683D01*
X92438659Y-123850055D01*
X92311832Y-123400347D01*
X92310937Y-123396622D01*
X92233942Y-123009527D01*
X92219783Y-122938342D01*
X92219184Y-122934551D01*
X92216807Y-122914470D01*
X92164271Y-122470564D01*
X92163970Y-122466739D01*
X92163488Y-122454470D01*
X92155083Y-122240473D01*
X92145538Y-121997475D01*
X92145500Y-121995552D01*
X92145501Y-121932056D01*
X92145500Y-121932052D01*
X92145500Y-116088083D01*
X92159852Y-116053435D01*
X92194500Y-116039083D01*
X92328787Y-116039083D01*
X92331001Y-116040000D01*
X92350000Y-116040000D01*
X97750000Y-116040000D01*
X97750000Y-113934104D01*
X101499500Y-113934104D01*
X101499500Y-114065895D01*
X101533607Y-114193184D01*
X101533608Y-114193188D01*
X101599500Y-114307314D01*
X101599501Y-114307315D01*
X101685146Y-114392961D01*
X101699498Y-114427609D01*
X101699496Y-122710439D01*
X101699496Y-122789565D01*
X101719973Y-122865985D01*
X101719974Y-122865987D01*
X101719975Y-122865990D01*
X101737986Y-122897187D01*
X101759533Y-122934509D01*
X101759535Y-122934511D01*
X101759536Y-122934513D01*
X102815488Y-123990461D01*
X102884011Y-124030022D01*
X102884013Y-124030022D01*
X102884014Y-124030023D01*
X102939949Y-124045010D01*
X102939954Y-124045010D01*
X102939959Y-124045012D01*
X102957349Y-124049672D01*
X102963408Y-124051730D01*
X102963445Y-124051745D01*
X102966669Y-124052170D01*
X102969731Y-124052990D01*
X102977070Y-124050500D01*
X103059847Y-124050500D01*
X103059853Y-124050498D01*
X125855231Y-124050492D01*
X125889879Y-124064844D01*
X126405146Y-124580118D01*
X126419498Y-124614766D01*
X126419498Y-125299677D01*
X126405146Y-125334325D01*
X126389250Y-125344947D01*
X126222403Y-125414058D01*
X126050345Y-125529022D01*
X125904022Y-125675345D01*
X125789058Y-125847403D01*
X125709871Y-126038576D01*
X125709869Y-126038582D01*
X125679523Y-126191142D01*
X125669500Y-126241535D01*
X125669500Y-126448465D01*
X125709870Y-126651420D01*
X125789059Y-126842598D01*
X125904023Y-127014655D01*
X126050345Y-127160977D01*
X126222402Y-127275941D01*
X126413580Y-127355130D01*
X126616535Y-127395500D01*
X126616538Y-127395500D01*
X126823462Y-127395500D01*
X126823465Y-127395500D01*
X127026420Y-127355130D01*
X127217598Y-127275941D01*
X127389655Y-127160977D01*
X127535977Y-127014655D01*
X127650941Y-126842598D01*
X127730130Y-126651420D01*
X127770500Y-126448465D01*
X127770500Y-126241535D01*
X127730130Y-126038580D01*
X127650941Y-125847402D01*
X127535977Y-125675345D01*
X127389655Y-125529023D01*
X127384933Y-125525868D01*
X127304207Y-125471929D01*
X127217598Y-125414059D01*
X127217596Y-125414058D01*
X127050746Y-125344946D01*
X127024228Y-125318427D01*
X127020498Y-125299676D01*
X127020498Y-124430436D01*
X127015616Y-124412220D01*
X127010735Y-124394002D01*
X127010735Y-124394001D01*
X127010735Y-124394000D01*
X127005378Y-124374008D01*
X127000021Y-124354014D01*
X126960460Y-124285491D01*
X126309115Y-123634135D01*
X126294765Y-123599488D01*
X126309117Y-123564839D01*
X126343765Y-123550488D01*
X127855235Y-123550488D01*
X127889883Y-123564840D01*
X128880313Y-124555263D01*
X128945161Y-124620110D01*
X128959513Y-124654758D01*
X128959508Y-125299673D01*
X128945156Y-125334322D01*
X128929260Y-125344943D01*
X128762403Y-125414058D01*
X128590345Y-125529022D01*
X128444022Y-125675345D01*
X128329058Y-125847403D01*
X128249871Y-126038576D01*
X128249869Y-126038582D01*
X128219523Y-126191142D01*
X128209500Y-126241535D01*
X128209500Y-126448465D01*
X128249870Y-126651420D01*
X128329059Y-126842598D01*
X128444023Y-127014655D01*
X128590345Y-127160977D01*
X128762402Y-127275941D01*
X128953580Y-127355130D01*
X129156535Y-127395500D01*
X129156538Y-127395500D01*
X129363462Y-127395500D01*
X129363465Y-127395500D01*
X129566420Y-127355130D01*
X129757598Y-127275941D01*
X129929655Y-127160977D01*
X130075977Y-127014655D01*
X130190941Y-126842598D01*
X130270130Y-126651420D01*
X130310500Y-126448465D01*
X130310500Y-126241535D01*
X130749500Y-126241535D01*
X130749500Y-126448465D01*
X130789870Y-126651420D01*
X130869059Y-126842598D01*
X130984023Y-127014655D01*
X131130345Y-127160977D01*
X131302402Y-127275941D01*
X131493580Y-127355130D01*
X131696535Y-127395500D01*
X131696538Y-127395500D01*
X131903462Y-127395500D01*
X131903465Y-127395500D01*
X132106420Y-127355130D01*
X132297598Y-127275941D01*
X132469655Y-127160977D01*
X132615977Y-127014655D01*
X132730941Y-126842598D01*
X132810130Y-126651420D01*
X132850500Y-126448465D01*
X132850500Y-126241535D01*
X133289500Y-126241535D01*
X133289500Y-126448465D01*
X133329870Y-126651420D01*
X133409059Y-126842598D01*
X133524023Y-127014655D01*
X133670345Y-127160977D01*
X133842402Y-127275941D01*
X134033580Y-127355130D01*
X134236535Y-127395500D01*
X134236538Y-127395500D01*
X134443462Y-127395500D01*
X134443465Y-127395500D01*
X134646420Y-127355130D01*
X134837598Y-127275941D01*
X135009655Y-127160977D01*
X135155977Y-127014655D01*
X135270941Y-126842598D01*
X135350130Y-126651420D01*
X135390500Y-126448465D01*
X135390500Y-126241535D01*
X135829500Y-126241535D01*
X135829500Y-126448465D01*
X135869870Y-126651420D01*
X135949059Y-126842598D01*
X136064023Y-127014655D01*
X136210345Y-127160977D01*
X136382402Y-127275941D01*
X136573580Y-127355130D01*
X136776535Y-127395500D01*
X136776538Y-127395500D01*
X136983462Y-127395500D01*
X136983465Y-127395500D01*
X137186420Y-127355130D01*
X137377598Y-127275941D01*
X137549655Y-127160977D01*
X137695977Y-127014655D01*
X137810941Y-126842598D01*
X137890130Y-126651420D01*
X137930500Y-126448465D01*
X137930500Y-126241535D01*
X138369500Y-126241535D01*
X138369500Y-126448465D01*
X138409870Y-126651420D01*
X138489059Y-126842598D01*
X138604023Y-127014655D01*
X138750345Y-127160977D01*
X138922402Y-127275941D01*
X139113580Y-127355130D01*
X139316535Y-127395500D01*
X139316538Y-127395500D01*
X139523462Y-127395500D01*
X139523465Y-127395500D01*
X139726420Y-127355130D01*
X139917598Y-127275941D01*
X140089655Y-127160977D01*
X140235977Y-127014655D01*
X140350941Y-126842598D01*
X140430130Y-126651420D01*
X140470500Y-126448465D01*
X140470500Y-126241535D01*
X140909500Y-126241535D01*
X140909500Y-126448465D01*
X140949870Y-126651420D01*
X141029059Y-126842598D01*
X141144023Y-127014655D01*
X141290345Y-127160977D01*
X141462402Y-127275941D01*
X141653580Y-127355130D01*
X141856535Y-127395500D01*
X141856538Y-127395500D01*
X142063462Y-127395500D01*
X142063465Y-127395500D01*
X142266420Y-127355130D01*
X142457598Y-127275941D01*
X142629655Y-127160977D01*
X142775977Y-127014655D01*
X142890941Y-126842598D01*
X142970130Y-126651420D01*
X143010500Y-126448465D01*
X143010500Y-126241535D01*
X143449500Y-126241535D01*
X143449500Y-126448465D01*
X143489870Y-126651420D01*
X143569059Y-126842598D01*
X143684023Y-127014655D01*
X143830345Y-127160977D01*
X144002402Y-127275941D01*
X144193580Y-127355130D01*
X144396535Y-127395500D01*
X144396538Y-127395500D01*
X144603462Y-127395500D01*
X144603465Y-127395500D01*
X144806420Y-127355130D01*
X144997598Y-127275941D01*
X145169655Y-127160977D01*
X145315977Y-127014655D01*
X145430941Y-126842598D01*
X145510130Y-126651420D01*
X145550500Y-126448465D01*
X145550500Y-126241535D01*
X145510130Y-126038580D01*
X145430941Y-125847402D01*
X145315977Y-125675345D01*
X145169655Y-125529023D01*
X145164933Y-125525868D01*
X145084207Y-125471929D01*
X144997598Y-125414059D01*
X144997596Y-125414058D01*
X144806423Y-125334871D01*
X144806417Y-125334869D01*
X144723755Y-125318427D01*
X144603465Y-125294500D01*
X144396535Y-125294500D01*
X144295520Y-125314592D01*
X144193582Y-125334869D01*
X144193576Y-125334871D01*
X144002403Y-125414058D01*
X143830345Y-125529022D01*
X143684022Y-125675345D01*
X143569058Y-125847403D01*
X143489871Y-126038576D01*
X143489869Y-126038582D01*
X143459523Y-126191142D01*
X143449500Y-126241535D01*
X143010500Y-126241535D01*
X142970130Y-126038580D01*
X142890941Y-125847402D01*
X142775977Y-125675345D01*
X142629655Y-125529023D01*
X142624933Y-125525868D01*
X142544207Y-125471929D01*
X142457598Y-125414059D01*
X142457596Y-125414058D01*
X142266423Y-125334871D01*
X142266417Y-125334869D01*
X142183755Y-125318427D01*
X142063465Y-125294500D01*
X141856535Y-125294500D01*
X141755520Y-125314592D01*
X141653582Y-125334869D01*
X141653576Y-125334871D01*
X141462403Y-125414058D01*
X141290345Y-125529022D01*
X141144022Y-125675345D01*
X141029058Y-125847403D01*
X140949871Y-126038576D01*
X140949869Y-126038582D01*
X140919523Y-126191142D01*
X140909500Y-126241535D01*
X140470500Y-126241535D01*
X140430130Y-126038580D01*
X140350941Y-125847402D01*
X140235977Y-125675345D01*
X140089655Y-125529023D01*
X140084933Y-125525868D01*
X140004207Y-125471929D01*
X139917598Y-125414059D01*
X139917596Y-125414058D01*
X139726423Y-125334871D01*
X139726417Y-125334869D01*
X139643755Y-125318427D01*
X139523465Y-125294500D01*
X139316535Y-125294500D01*
X139215520Y-125314592D01*
X139113582Y-125334869D01*
X139113576Y-125334871D01*
X138922403Y-125414058D01*
X138750345Y-125529022D01*
X138604022Y-125675345D01*
X138489058Y-125847403D01*
X138409871Y-126038576D01*
X138409869Y-126038582D01*
X138379523Y-126191142D01*
X138369500Y-126241535D01*
X137930500Y-126241535D01*
X137890130Y-126038580D01*
X137810941Y-125847402D01*
X137695977Y-125675345D01*
X137549655Y-125529023D01*
X137544933Y-125525868D01*
X137464207Y-125471929D01*
X137377598Y-125414059D01*
X137377596Y-125414058D01*
X137186423Y-125334871D01*
X137186417Y-125334869D01*
X137103755Y-125318427D01*
X136983465Y-125294500D01*
X136776535Y-125294500D01*
X136675520Y-125314592D01*
X136573582Y-125334869D01*
X136573576Y-125334871D01*
X136382403Y-125414058D01*
X136210345Y-125529022D01*
X136064022Y-125675345D01*
X135949058Y-125847403D01*
X135869871Y-126038576D01*
X135869869Y-126038582D01*
X135839523Y-126191142D01*
X135829500Y-126241535D01*
X135390500Y-126241535D01*
X135350130Y-126038580D01*
X135270941Y-125847402D01*
X135155977Y-125675345D01*
X135009655Y-125529023D01*
X135004933Y-125525868D01*
X134924207Y-125471929D01*
X134837598Y-125414059D01*
X134837596Y-125414058D01*
X134646423Y-125334871D01*
X134646417Y-125334869D01*
X134563755Y-125318427D01*
X134443465Y-125294500D01*
X134236535Y-125294500D01*
X134135520Y-125314592D01*
X134033582Y-125334869D01*
X134033576Y-125334871D01*
X133842403Y-125414058D01*
X133670345Y-125529022D01*
X133524022Y-125675345D01*
X133409058Y-125847403D01*
X133329871Y-126038576D01*
X133329869Y-126038582D01*
X133299523Y-126191142D01*
X133289500Y-126241535D01*
X132850500Y-126241535D01*
X132810130Y-126038580D01*
X132730941Y-125847402D01*
X132615977Y-125675345D01*
X132469655Y-125529023D01*
X132464933Y-125525868D01*
X132384207Y-125471929D01*
X132297598Y-125414059D01*
X132297596Y-125414058D01*
X132106423Y-125334871D01*
X132106417Y-125334869D01*
X132023755Y-125318427D01*
X131903465Y-125294500D01*
X131696535Y-125294500D01*
X131595520Y-125314592D01*
X131493582Y-125334869D01*
X131493576Y-125334871D01*
X131302403Y-125414058D01*
X131130345Y-125529022D01*
X130984022Y-125675345D01*
X130869058Y-125847403D01*
X130789871Y-126038576D01*
X130789869Y-126038582D01*
X130759523Y-126191142D01*
X130749500Y-126241535D01*
X130310500Y-126241535D01*
X130270130Y-126038580D01*
X130190941Y-125847402D01*
X130075977Y-125675345D01*
X129929655Y-125529023D01*
X129924933Y-125525868D01*
X129844207Y-125471929D01*
X129757598Y-125414059D01*
X129757596Y-125414058D01*
X129590756Y-125344950D01*
X129564238Y-125318431D01*
X129560508Y-125299680D01*
X129560508Y-125294500D01*
X129560514Y-124555258D01*
X129560516Y-124555254D01*
X129560516Y-124470428D01*
X129540037Y-124394003D01*
X129540036Y-124394001D01*
X129516949Y-124354014D01*
X129516948Y-124354013D01*
X129501193Y-124326723D01*
X129500619Y-124325655D01*
X129500527Y-124325532D01*
X128184515Y-123009529D01*
X128184509Y-123009524D01*
X128147187Y-122987977D01*
X128115990Y-122969966D01*
X128115987Y-122969965D01*
X128115985Y-122969964D01*
X128067538Y-122956983D01*
X128058213Y-122954484D01*
X128039567Y-122949488D01*
X128039565Y-122949488D01*
X128039564Y-122949488D01*
X127960440Y-122949488D01*
X127960439Y-122949488D01*
X103894764Y-122949498D01*
X103860116Y-122935146D01*
X103064848Y-122139879D01*
X103050496Y-122105231D01*
X103050496Y-120719955D01*
X103050498Y-113677608D01*
X103064849Y-113642964D01*
X103150500Y-113557314D01*
X103216392Y-113443186D01*
X103250499Y-113315895D01*
X103250500Y-113315895D01*
X103250500Y-113184105D01*
X103250499Y-113184104D01*
X103216392Y-113056815D01*
X103216391Y-113056811D01*
X103174617Y-112984457D01*
X103150500Y-112942686D01*
X103057314Y-112849500D01*
X102943188Y-112783608D01*
X102943184Y-112783607D01*
X102815895Y-112749500D01*
X102815892Y-112749500D01*
X102684108Y-112749500D01*
X102684105Y-112749500D01*
X102556815Y-112783607D01*
X102556811Y-112783608D01*
X102442685Y-112849500D01*
X102442685Y-112849501D01*
X102349501Y-112942685D01*
X102349500Y-112942685D01*
X102283608Y-113056811D01*
X102283607Y-113056815D01*
X102249500Y-113184104D01*
X102249500Y-113315895D01*
X102283607Y-113443184D01*
X102283608Y-113443188D01*
X102315692Y-113498757D01*
X102320587Y-113535939D01*
X102297757Y-113565692D01*
X102260575Y-113570587D01*
X102248757Y-113565692D01*
X102193188Y-113533608D01*
X102193184Y-113533607D01*
X102065895Y-113499500D01*
X102065892Y-113499500D01*
X101934108Y-113499500D01*
X101934105Y-113499500D01*
X101806815Y-113533607D01*
X101806811Y-113533608D01*
X101692685Y-113599500D01*
X101692685Y-113599501D01*
X101599501Y-113692685D01*
X101599500Y-113692685D01*
X101533608Y-113806811D01*
X101533607Y-113806815D01*
X101499500Y-113934104D01*
X97750000Y-113934104D01*
X97750000Y-108460439D01*
X101199496Y-108460439D01*
X101199496Y-108539565D01*
X101219973Y-108615985D01*
X101219974Y-108615987D01*
X101219975Y-108615990D01*
X101237986Y-108647187D01*
X101259533Y-108684509D01*
X101259535Y-108684511D01*
X101259536Y-108684513D01*
X102315488Y-109740461D01*
X102384011Y-109780022D01*
X102384013Y-109780022D01*
X102384014Y-109780023D01*
X102439949Y-109795010D01*
X102439954Y-109795010D01*
X102439959Y-109795012D01*
X102457349Y-109799672D01*
X102463408Y-109801730D01*
X102463445Y-109801745D01*
X102466669Y-109802170D01*
X102469731Y-109802990D01*
X102477070Y-109800500D01*
X102559857Y-109800500D01*
X102559859Y-109800499D01*
X106920505Y-109800499D01*
X106955153Y-109814851D01*
X107020539Y-109880237D01*
X107060781Y-109903471D01*
X107134664Y-109946128D01*
X107134666Y-109946128D01*
X107134667Y-109946129D01*
X107235060Y-109973029D01*
X107261957Y-109980236D01*
X107261958Y-109980237D01*
X107261961Y-109980237D01*
X107393748Y-109980237D01*
X107393748Y-109980236D01*
X107521039Y-109946129D01*
X107625989Y-109885535D01*
X107663169Y-109880640D01*
X107692922Y-109903471D01*
X107699487Y-109927971D01*
X107699459Y-120434515D01*
X107699458Y-120960458D01*
X107699456Y-120960467D01*
X107699458Y-121002064D01*
X107699458Y-121039582D01*
X107699459Y-121039587D01*
X107709604Y-121077444D01*
X107719936Y-121116002D01*
X107719952Y-121116039D01*
X107720090Y-121116273D01*
X107720092Y-121116275D01*
X107736605Y-121144875D01*
X107736607Y-121144878D01*
X107759497Y-121184526D01*
X107759501Y-121184532D01*
X107783679Y-121208708D01*
X107783678Y-121208708D01*
X107783680Y-121208709D01*
X107818225Y-121243254D01*
X107818245Y-121243271D01*
X108190865Y-121615860D01*
X108205218Y-121650508D01*
X108190868Y-121685157D01*
X108156220Y-121699510D01*
X107644754Y-121699510D01*
X107610107Y-121685160D01*
X107314811Y-121389889D01*
X107300458Y-121355241D01*
X107300458Y-121355239D01*
X107300458Y-121300494D01*
X107300497Y-111927609D01*
X107314848Y-111892965D01*
X107400500Y-111807314D01*
X107466392Y-111693186D01*
X107500499Y-111565895D01*
X107500500Y-111565895D01*
X107500500Y-111434105D01*
X107500499Y-111434104D01*
X107466392Y-111306815D01*
X107466391Y-111306811D01*
X107400499Y-111192685D01*
X107307314Y-111099500D01*
X107193188Y-111033608D01*
X107193184Y-111033607D01*
X107065895Y-110999500D01*
X107065892Y-110999500D01*
X106934108Y-110999500D01*
X106934105Y-110999500D01*
X106806815Y-111033607D01*
X106806811Y-111033608D01*
X106692685Y-111099500D01*
X106692685Y-111099501D01*
X106599501Y-111192685D01*
X106599500Y-111192685D01*
X106533608Y-111306811D01*
X106533607Y-111306815D01*
X106499500Y-111434104D01*
X106499500Y-111565895D01*
X106533607Y-111693184D01*
X106533608Y-111693188D01*
X106599500Y-111807314D01*
X106685145Y-111892959D01*
X106699497Y-111927607D01*
X106699460Y-120875537D01*
X106699458Y-121460458D01*
X106699456Y-121460467D01*
X106699458Y-121497443D01*
X106699458Y-121539582D01*
X106699459Y-121539587D01*
X106709604Y-121577444D01*
X106719936Y-121616002D01*
X106719952Y-121616039D01*
X106720090Y-121616273D01*
X106720092Y-121616275D01*
X106736605Y-121644875D01*
X106736607Y-121644878D01*
X106759497Y-121684526D01*
X106759501Y-121684532D01*
X106783679Y-121708708D01*
X106783678Y-121708708D01*
X106783680Y-121708709D01*
X106818225Y-121743254D01*
X106818245Y-121743271D01*
X107285453Y-122210440D01*
X107315484Y-122240471D01*
X107315488Y-122240473D01*
X107315494Y-122240479D01*
X107352216Y-122261678D01*
X107378188Y-122276673D01*
X107381425Y-122278542D01*
X107382682Y-122279268D01*
X107383783Y-122279952D01*
X107384015Y-122280035D01*
X107384018Y-122280037D01*
X107384025Y-122280039D01*
X107384837Y-122280330D01*
X107386267Y-122280640D01*
X107400200Y-122284372D01*
X107418114Y-122289171D01*
X107460433Y-122300511D01*
X107460436Y-122300510D01*
X107460438Y-122300511D01*
X107460443Y-122300511D01*
X107460445Y-122300512D01*
X107487143Y-122300510D01*
X107487148Y-122300510D01*
X107487148Y-122300509D01*
X146105231Y-122300493D01*
X146139879Y-122314845D01*
X146279503Y-122454470D01*
X146725147Y-122900118D01*
X146739499Y-122934765D01*
X146739499Y-125299677D01*
X146725147Y-125334325D01*
X146709251Y-125344947D01*
X146542403Y-125414058D01*
X146370345Y-125529022D01*
X146224022Y-125675345D01*
X146109058Y-125847403D01*
X146029871Y-126038576D01*
X146029869Y-126038582D01*
X145999523Y-126191142D01*
X145989500Y-126241535D01*
X145989500Y-126448465D01*
X146029870Y-126651420D01*
X146109059Y-126842598D01*
X146224023Y-127014655D01*
X146370345Y-127160977D01*
X146542402Y-127275941D01*
X146733580Y-127355130D01*
X146936535Y-127395500D01*
X146936538Y-127395500D01*
X147143462Y-127395500D01*
X147143465Y-127395500D01*
X147346420Y-127355130D01*
X147537598Y-127275941D01*
X147709655Y-127160977D01*
X147855977Y-127014655D01*
X147970941Y-126842598D01*
X148050130Y-126651420D01*
X148090500Y-126448465D01*
X148090500Y-126241535D01*
X148050130Y-126038580D01*
X147970941Y-125847402D01*
X147855977Y-125675345D01*
X147709655Y-125529023D01*
X147704933Y-125525868D01*
X147624207Y-125471929D01*
X147537598Y-125414059D01*
X147537596Y-125414058D01*
X147370747Y-125344946D01*
X147344229Y-125318427D01*
X147340499Y-125299676D01*
X147340499Y-122750436D01*
X147329781Y-122710439D01*
X147320020Y-122674011D01*
X147320019Y-122674009D01*
X147320019Y-122674008D01*
X147280458Y-122605488D01*
X147240460Y-122565490D01*
X146820462Y-122145488D01*
X146559123Y-121884146D01*
X146544772Y-121849499D01*
X146559124Y-121814851D01*
X146593772Y-121800499D01*
X148605231Y-121800499D01*
X148639879Y-121814851D01*
X149265147Y-122440118D01*
X149279499Y-122474766D01*
X149279499Y-125299677D01*
X149265147Y-125334325D01*
X149249251Y-125344947D01*
X149082403Y-125414058D01*
X148910345Y-125529022D01*
X148764022Y-125675345D01*
X148649058Y-125847403D01*
X148569871Y-126038576D01*
X148569869Y-126038582D01*
X148539523Y-126191142D01*
X148529500Y-126241535D01*
X148529500Y-126448465D01*
X148569870Y-126651420D01*
X148649059Y-126842598D01*
X148764023Y-127014655D01*
X148910345Y-127160977D01*
X149082402Y-127275941D01*
X149273580Y-127355130D01*
X149476535Y-127395500D01*
X149476538Y-127395500D01*
X149683462Y-127395500D01*
X149683465Y-127395500D01*
X149886420Y-127355130D01*
X150077598Y-127275941D01*
X150249655Y-127160977D01*
X150395977Y-127014655D01*
X150510941Y-126842598D01*
X150590130Y-126651420D01*
X150630500Y-126448465D01*
X150630500Y-126241535D01*
X150590130Y-126038580D01*
X150510941Y-125847402D01*
X150395977Y-125675345D01*
X150249655Y-125529023D01*
X150244933Y-125525868D01*
X150164207Y-125471929D01*
X150077598Y-125414059D01*
X150077596Y-125414058D01*
X149910747Y-125344946D01*
X149884229Y-125318427D01*
X149880499Y-125299676D01*
X149880499Y-122290436D01*
X149869119Y-122247968D01*
X149860020Y-122214011D01*
X149860019Y-122214009D01*
X149860019Y-122214008D01*
X149820458Y-122145488D01*
X149374480Y-121699510D01*
X149059111Y-121384140D01*
X149044760Y-121349494D01*
X149059112Y-121314846D01*
X149093759Y-121300494D01*
X151355232Y-121300494D01*
X151389877Y-121314845D01*
X151805147Y-121730119D01*
X151819499Y-121764766D01*
X151819499Y-125299677D01*
X151805147Y-125334325D01*
X151789251Y-125344947D01*
X151622403Y-125414058D01*
X151450345Y-125529022D01*
X151304022Y-125675345D01*
X151189058Y-125847403D01*
X151109871Y-126038576D01*
X151109869Y-126038582D01*
X151079523Y-126191142D01*
X151069500Y-126241535D01*
X151069500Y-126448465D01*
X151109870Y-126651420D01*
X151189059Y-126842598D01*
X151304023Y-127014655D01*
X151450345Y-127160977D01*
X151622402Y-127275941D01*
X151813580Y-127355130D01*
X152016535Y-127395500D01*
X152016538Y-127395500D01*
X152223462Y-127395500D01*
X152223465Y-127395500D01*
X152426420Y-127355130D01*
X152617598Y-127275941D01*
X152789655Y-127160977D01*
X152935977Y-127014655D01*
X153050941Y-126842598D01*
X153130130Y-126651420D01*
X153170500Y-126448465D01*
X153170500Y-126241535D01*
X153609500Y-126241535D01*
X153609500Y-126448465D01*
X153649870Y-126651420D01*
X153729059Y-126842598D01*
X153844023Y-127014655D01*
X153990345Y-127160977D01*
X154162402Y-127275941D01*
X154353580Y-127355130D01*
X154556535Y-127395500D01*
X154556538Y-127395500D01*
X154763462Y-127395500D01*
X154763465Y-127395500D01*
X154966420Y-127355130D01*
X155157598Y-127275941D01*
X155329655Y-127160977D01*
X155475977Y-127014655D01*
X155590941Y-126842598D01*
X155670130Y-126651420D01*
X155710500Y-126448465D01*
X155710500Y-126241535D01*
X156149500Y-126241535D01*
X156149500Y-126448465D01*
X156189870Y-126651420D01*
X156269059Y-126842598D01*
X156384023Y-127014655D01*
X156530345Y-127160977D01*
X156702402Y-127275941D01*
X156893580Y-127355130D01*
X157096535Y-127395500D01*
X157096538Y-127395500D01*
X157303462Y-127395500D01*
X157303465Y-127395500D01*
X157506420Y-127355130D01*
X157697598Y-127275941D01*
X157869655Y-127160977D01*
X158015977Y-127014655D01*
X158130941Y-126842598D01*
X158210130Y-126651420D01*
X158250500Y-126448465D01*
X158250500Y-126241535D01*
X158210130Y-126038580D01*
X158130941Y-125847402D01*
X158015977Y-125675345D01*
X157869655Y-125529023D01*
X157864933Y-125525868D01*
X157784207Y-125471929D01*
X157697598Y-125414059D01*
X157697596Y-125414058D01*
X157506423Y-125334871D01*
X157506417Y-125334869D01*
X157423755Y-125318427D01*
X157303465Y-125294500D01*
X157096535Y-125294500D01*
X156995520Y-125314592D01*
X156893582Y-125334869D01*
X156893576Y-125334871D01*
X156702403Y-125414058D01*
X156530345Y-125529022D01*
X156384022Y-125675345D01*
X156269058Y-125847403D01*
X156189871Y-126038576D01*
X156189869Y-126038582D01*
X156159523Y-126191142D01*
X156149500Y-126241535D01*
X155710500Y-126241535D01*
X155670130Y-126038580D01*
X155590941Y-125847402D01*
X155475977Y-125675345D01*
X155329655Y-125529023D01*
X155324933Y-125525868D01*
X155244207Y-125471929D01*
X155157598Y-125414059D01*
X155157596Y-125414058D01*
X154966423Y-125334871D01*
X154966417Y-125334869D01*
X154883755Y-125318427D01*
X154763465Y-125294500D01*
X154556535Y-125294500D01*
X154455520Y-125314592D01*
X154353582Y-125334869D01*
X154353576Y-125334871D01*
X154162403Y-125414058D01*
X153990345Y-125529022D01*
X153844022Y-125675345D01*
X153729058Y-125847403D01*
X153649871Y-126038576D01*
X153649869Y-126038582D01*
X153619523Y-126191142D01*
X153609500Y-126241535D01*
X153170500Y-126241535D01*
X153130130Y-126038580D01*
X153050941Y-125847402D01*
X152935977Y-125675345D01*
X152789655Y-125529023D01*
X152784933Y-125525868D01*
X152704207Y-125471929D01*
X152617598Y-125414059D01*
X152617596Y-125414058D01*
X152450747Y-125344946D01*
X152424229Y-125318427D01*
X152420499Y-125299676D01*
X152420499Y-121580436D01*
X152409550Y-121539577D01*
X152400020Y-121504011D01*
X152400019Y-121504009D01*
X152400019Y-121504008D01*
X152360458Y-121435488D01*
X152304510Y-121379540D01*
X151684512Y-120759537D01*
X151684511Y-120759536D01*
X151615989Y-120719975D01*
X151615914Y-120719955D01*
X151539563Y-120699496D01*
X151539562Y-120699496D01*
X151533570Y-120699495D01*
X151533566Y-120699495D01*
X109644767Y-120699476D01*
X109610121Y-120685126D01*
X109176125Y-120251167D01*
X109064829Y-120139880D01*
X109050476Y-120105232D01*
X109050476Y-120105230D01*
X109050482Y-116434104D01*
X109749500Y-116434104D01*
X109749500Y-116565895D01*
X109783607Y-116693184D01*
X109783608Y-116693188D01*
X109845566Y-116800500D01*
X109849500Y-116807314D01*
X109942686Y-116900500D01*
X109953624Y-116906815D01*
X110056811Y-116966391D01*
X110056813Y-116966391D01*
X110056814Y-116966392D01*
X110157207Y-116993292D01*
X110184104Y-117000499D01*
X110184105Y-117000500D01*
X110184108Y-117000500D01*
X110315895Y-117000500D01*
X110315895Y-117000499D01*
X110443186Y-116966392D01*
X110557314Y-116900500D01*
X110642962Y-116814852D01*
X110677610Y-116800500D01*
X111442211Y-116800500D01*
X111476859Y-116814852D01*
X111491211Y-116849500D01*
X111476859Y-116884148D01*
X111460962Y-116894770D01*
X111451876Y-116898533D01*
X111345331Y-116969723D01*
X111254723Y-117060331D01*
X111183534Y-117166874D01*
X111134498Y-117285257D01*
X111134497Y-117285262D01*
X111109500Y-117410927D01*
X111109500Y-117539072D01*
X111134497Y-117664737D01*
X111134498Y-117664742D01*
X111147169Y-117695331D01*
X111183535Y-117783127D01*
X111254724Y-117889669D01*
X111345331Y-117980276D01*
X111451873Y-118051465D01*
X111570256Y-118100501D01*
X111695931Y-118125500D01*
X111753101Y-118125500D01*
X111787749Y-118139852D01*
X112509386Y-118861488D01*
X112509387Y-118861489D01*
X112509389Y-118861490D01*
X112532400Y-118874775D01*
X112568696Y-118895730D01*
X112612114Y-118920798D01*
X112612116Y-118920798D01*
X112612117Y-118920799D01*
X112726687Y-118951498D01*
X112726688Y-118951499D01*
X112726703Y-118951499D01*
X152310412Y-118951504D01*
X152310413Y-118951505D01*
X152312501Y-118951504D01*
X152429028Y-118951505D01*
X152543605Y-118920804D01*
X152543605Y-118920803D01*
X152543608Y-118920803D01*
X152543611Y-118920801D01*
X152547760Y-118919689D01*
X152552042Y-118915933D01*
X152646335Y-118861493D01*
X152732975Y-118774851D01*
X152767623Y-118760500D01*
X152824788Y-118760500D01*
X152950463Y-118735501D01*
X153068846Y-118686465D01*
X153175388Y-118615276D01*
X153265995Y-118524669D01*
X153337184Y-118418127D01*
X153386220Y-118299744D01*
X153411219Y-118174069D01*
X153411219Y-118045931D01*
X153386220Y-117920256D01*
X153337184Y-117801873D01*
X153265995Y-117695331D01*
X153175388Y-117604724D01*
X153169066Y-117600500D01*
X153118020Y-117566392D01*
X153068846Y-117533535D01*
X152989091Y-117500499D01*
X152950461Y-117484498D01*
X152950456Y-117484497D01*
X152824791Y-117459500D01*
X152824788Y-117459500D01*
X152696650Y-117459500D01*
X152696646Y-117459500D01*
X152570981Y-117484497D01*
X152570976Y-117484498D01*
X152452593Y-117533534D01*
X152346050Y-117604723D01*
X152255442Y-117695331D01*
X152184253Y-117801874D01*
X152135217Y-117920257D01*
X152135215Y-117920262D01*
X152117154Y-118011063D01*
X152096319Y-118042245D01*
X152069096Y-118050503D01*
X112992899Y-118050499D01*
X112958251Y-118036147D01*
X112424852Y-117502748D01*
X112410500Y-117468100D01*
X112410500Y-117410931D01*
X112410499Y-117410927D01*
X112409780Y-117407314D01*
X112385501Y-117285256D01*
X112336465Y-117166873D01*
X112265276Y-117060331D01*
X112174669Y-116969724D01*
X112169682Y-116966392D01*
X112139473Y-116946207D01*
X112068127Y-116898535D01*
X112068124Y-116898533D01*
X112068123Y-116898533D01*
X112059038Y-116894770D01*
X112032519Y-116868251D01*
X112032519Y-116830749D01*
X112059038Y-116804230D01*
X112077789Y-116800500D01*
X112760118Y-116800500D01*
X112794766Y-116814852D01*
X112809118Y-116849500D01*
X112802553Y-116874000D01*
X112783608Y-116906811D01*
X112783607Y-116906815D01*
X112749500Y-117034104D01*
X112749500Y-117165895D01*
X112783607Y-117293184D01*
X112783608Y-117293188D01*
X112845566Y-117400500D01*
X112849500Y-117407314D01*
X112942686Y-117500500D01*
X112946580Y-117502748D01*
X113056811Y-117566391D01*
X113056813Y-117566391D01*
X113056814Y-117566392D01*
X113157207Y-117593292D01*
X113184104Y-117600499D01*
X113184105Y-117600500D01*
X113184108Y-117600500D01*
X113315895Y-117600500D01*
X113315895Y-117600499D01*
X113443186Y-117566392D01*
X113557314Y-117500500D01*
X113642962Y-117414852D01*
X113677610Y-117400500D01*
X121322390Y-117400500D01*
X121357038Y-117414852D01*
X121442686Y-117500500D01*
X121446580Y-117502748D01*
X121556811Y-117566391D01*
X121556813Y-117566391D01*
X121556814Y-117566392D01*
X121657207Y-117593292D01*
X121684104Y-117600499D01*
X121684105Y-117600500D01*
X121684108Y-117600500D01*
X121815895Y-117600500D01*
X121815895Y-117600499D01*
X121943186Y-117566392D01*
X122057314Y-117500500D01*
X122150500Y-117407314D01*
X122216392Y-117293186D01*
X122250499Y-117165895D01*
X122250500Y-117165895D01*
X122250500Y-117034105D01*
X122250499Y-117034104D01*
X122241495Y-117000499D01*
X122216392Y-116906814D01*
X122216391Y-116906813D01*
X122216391Y-116906811D01*
X122197447Y-116874000D01*
X122192552Y-116836818D01*
X122215382Y-116807065D01*
X122239882Y-116800500D01*
X122572390Y-116800500D01*
X122607038Y-116814852D01*
X122692686Y-116900500D01*
X122703624Y-116906815D01*
X122806811Y-116966391D01*
X122806813Y-116966391D01*
X122806814Y-116966392D01*
X122907207Y-116993292D01*
X122934104Y-117000499D01*
X122934105Y-117000500D01*
X122934108Y-117000500D01*
X123065895Y-117000500D01*
X123065895Y-117000499D01*
X123193186Y-116966392D01*
X123307314Y-116900500D01*
X123400500Y-116807314D01*
X123466392Y-116693186D01*
X123500499Y-116565895D01*
X123500500Y-116565895D01*
X123500500Y-116434105D01*
X123500499Y-116434104D01*
X123466392Y-116306815D01*
X123466391Y-116306811D01*
X123400499Y-116192685D01*
X123341962Y-116134148D01*
X123327610Y-116099500D01*
X123341962Y-116064852D01*
X123376610Y-116050500D01*
X123822390Y-116050500D01*
X123857038Y-116064852D01*
X123942686Y-116150500D01*
X123984457Y-116174617D01*
X124056811Y-116216391D01*
X124056813Y-116216391D01*
X124056814Y-116216392D01*
X124157207Y-116243292D01*
X124184104Y-116250499D01*
X124184105Y-116250500D01*
X124184108Y-116250500D01*
X124315895Y-116250500D01*
X124315895Y-116250499D01*
X124443186Y-116216392D01*
X124557314Y-116150500D01*
X124650500Y-116057314D01*
X124716392Y-115943186D01*
X124750499Y-115815895D01*
X124750500Y-115815895D01*
X124750500Y-115684105D01*
X124750499Y-115684104D01*
X124743292Y-115657207D01*
X124716392Y-115556814D01*
X124716391Y-115556813D01*
X124716391Y-115556811D01*
X124650499Y-115442685D01*
X124557314Y-115349500D01*
X124443188Y-115283608D01*
X124443184Y-115283607D01*
X124315895Y-115249500D01*
X124315892Y-115249500D01*
X124184108Y-115249500D01*
X124184105Y-115249500D01*
X124056815Y-115283607D01*
X124056811Y-115283608D01*
X123942685Y-115349500D01*
X123942685Y-115349501D01*
X123857038Y-115435148D01*
X123822390Y-115449500D01*
X113424500Y-115449500D01*
X113389852Y-115435148D01*
X113375500Y-115400500D01*
X113375500Y-115309105D01*
X113375499Y-115309104D01*
X113341392Y-115181815D01*
X113341391Y-115181811D01*
X113275499Y-115067685D01*
X113182314Y-114974500D01*
X113068188Y-114908608D01*
X113068184Y-114908607D01*
X112940895Y-114874500D01*
X112940892Y-114874500D01*
X112809108Y-114874500D01*
X112809105Y-114874500D01*
X112681815Y-114908607D01*
X112681811Y-114908608D01*
X112567685Y-114974500D01*
X112567685Y-114974501D01*
X112474501Y-115067685D01*
X112474500Y-115067685D01*
X112408608Y-115181811D01*
X112408607Y-115181815D01*
X112374500Y-115309104D01*
X112374500Y-115440895D01*
X112408607Y-115568184D01*
X112408608Y-115568188D01*
X112474500Y-115682314D01*
X112567686Y-115775500D01*
X112609457Y-115799617D01*
X112681811Y-115841391D01*
X112681813Y-115841391D01*
X112681814Y-115841392D01*
X112782207Y-115868292D01*
X112809104Y-115875499D01*
X112809105Y-115875500D01*
X112930233Y-115875500D01*
X112964881Y-115889852D01*
X113009540Y-115934511D01*
X113065489Y-115990460D01*
X113134011Y-116030021D01*
X113167830Y-116039083D01*
X113210436Y-116050500D01*
X113210438Y-116050500D01*
X122623390Y-116050500D01*
X122658038Y-116064852D01*
X122672390Y-116099500D01*
X122658038Y-116134148D01*
X122607038Y-116185148D01*
X122572390Y-116199500D01*
X110677610Y-116199500D01*
X110642962Y-116185148D01*
X110557314Y-116099500D01*
X110443188Y-116033608D01*
X110443184Y-116033607D01*
X110315895Y-115999500D01*
X110315892Y-115999500D01*
X110184108Y-115999500D01*
X110184105Y-115999500D01*
X110056815Y-116033607D01*
X110056811Y-116033608D01*
X109942685Y-116099500D01*
X109849501Y-116192685D01*
X109849500Y-116192685D01*
X109783608Y-116306811D01*
X109783607Y-116306815D01*
X109749500Y-116434104D01*
X109050482Y-116434104D01*
X109050482Y-116430896D01*
X109050488Y-112684104D01*
X116249500Y-112684104D01*
X116249500Y-112815895D01*
X116283607Y-112943184D01*
X116283608Y-112943188D01*
X116345566Y-113050500D01*
X116349500Y-113057314D01*
X116442686Y-113150500D01*
X116484457Y-113174617D01*
X116556811Y-113216391D01*
X116556813Y-113216391D01*
X116556814Y-113216392D01*
X116657207Y-113243292D01*
X116684104Y-113250499D01*
X116684105Y-113250500D01*
X116684108Y-113250500D01*
X116815895Y-113250500D01*
X116815895Y-113250499D01*
X116943186Y-113216392D01*
X117057314Y-113150500D01*
X117142962Y-113064852D01*
X117177610Y-113050500D01*
X120322390Y-113050500D01*
X120357038Y-113064852D01*
X120442686Y-113150500D01*
X120484457Y-113174617D01*
X120556811Y-113216391D01*
X120556813Y-113216391D01*
X120556814Y-113216392D01*
X120657207Y-113243292D01*
X120684104Y-113250499D01*
X120684105Y-113250500D01*
X120684108Y-113250500D01*
X120815895Y-113250500D01*
X120815895Y-113250499D01*
X120943186Y-113216392D01*
X121057314Y-113150500D01*
X121150500Y-113057314D01*
X121216392Y-112943186D01*
X121250499Y-112815895D01*
X121250500Y-112815895D01*
X121250500Y-112684105D01*
X121250499Y-112684104D01*
X121216392Y-112556815D01*
X121216391Y-112556811D01*
X121150499Y-112442685D01*
X121057314Y-112349500D01*
X120943188Y-112283608D01*
X120943184Y-112283607D01*
X120815895Y-112249500D01*
X120815892Y-112249500D01*
X120684108Y-112249500D01*
X120684105Y-112249500D01*
X120556815Y-112283607D01*
X120556811Y-112283608D01*
X120442685Y-112349500D01*
X120442685Y-112349501D01*
X120357038Y-112435148D01*
X120322390Y-112449500D01*
X117177610Y-112449500D01*
X117142962Y-112435148D01*
X117057314Y-112349500D01*
X116943188Y-112283608D01*
X116943184Y-112283607D01*
X116815895Y-112249500D01*
X116815892Y-112249500D01*
X116684108Y-112249500D01*
X116684105Y-112249500D01*
X116556815Y-112283607D01*
X116556811Y-112283608D01*
X116442685Y-112349500D01*
X116442685Y-112349501D01*
X116349501Y-112442685D01*
X116349500Y-112442685D01*
X116283608Y-112556811D01*
X116283607Y-112556815D01*
X116249500Y-112684104D01*
X109050488Y-112684104D01*
X109050488Y-112680896D01*
X109050492Y-109740458D01*
X109050498Y-105710438D01*
X109030019Y-105634011D01*
X109030018Y-105634009D01*
X109030018Y-105634008D01*
X108990692Y-105565895D01*
X108990458Y-105565489D01*
X108934509Y-105509540D01*
X108934508Y-105509539D01*
X107934509Y-104509541D01*
X107934507Y-104509540D01*
X107934505Y-104509538D01*
X107925062Y-104504087D01*
X107925062Y-104504086D01*
X107925060Y-104504086D01*
X107865989Y-104469980D01*
X107865985Y-104469979D01*
X107789560Y-104449500D01*
X104177610Y-104449500D01*
X104142962Y-104435148D01*
X104057314Y-104349500D01*
X103943188Y-104283608D01*
X103943184Y-104283607D01*
X103815895Y-104249500D01*
X103815892Y-104249500D01*
X103684108Y-104249500D01*
X103684105Y-104249500D01*
X103556815Y-104283607D01*
X103556811Y-104283608D01*
X103442685Y-104349500D01*
X103442685Y-104349501D01*
X103349501Y-104442685D01*
X103349500Y-104442685D01*
X103283608Y-104556811D01*
X103283607Y-104556815D01*
X103249500Y-104684104D01*
X103249500Y-104815895D01*
X103283607Y-104943184D01*
X103283608Y-104943188D01*
X103315692Y-104998757D01*
X103320587Y-105035939D01*
X103297757Y-105065692D01*
X103260575Y-105070587D01*
X103248757Y-105065692D01*
X103193188Y-105033608D01*
X103193184Y-105033607D01*
X103065895Y-104999500D01*
X103065892Y-104999500D01*
X102934108Y-104999500D01*
X102934105Y-104999500D01*
X102806815Y-105033607D01*
X102806811Y-105033608D01*
X102692685Y-105099500D01*
X102599501Y-105192685D01*
X102599500Y-105192685D01*
X102533608Y-105306811D01*
X102533607Y-105306815D01*
X102499500Y-105434104D01*
X102499500Y-105565895D01*
X102533607Y-105693184D01*
X102533608Y-105693188D01*
X102595566Y-105800500D01*
X102599500Y-105807314D01*
X102692686Y-105900500D01*
X102734457Y-105924617D01*
X102806811Y-105966391D01*
X102806813Y-105966391D01*
X102806814Y-105966392D01*
X102907207Y-105993292D01*
X102934104Y-106000499D01*
X102934105Y-106000500D01*
X102934108Y-106000500D01*
X103065895Y-106000500D01*
X103065895Y-106000499D01*
X103193186Y-105966392D01*
X103307314Y-105900500D01*
X103392962Y-105814852D01*
X103427610Y-105800500D01*
X106855231Y-105800500D01*
X106889879Y-105814852D01*
X107685144Y-106610117D01*
X107699496Y-106644765D01*
X107699490Y-109031504D01*
X107685138Y-109066152D01*
X107650490Y-109080504D01*
X107625991Y-109073939D01*
X107601207Y-109059630D01*
X107521041Y-109013345D01*
X107521037Y-109013344D01*
X107393748Y-108979237D01*
X107393745Y-108979237D01*
X107356962Y-108979237D01*
X107322314Y-108964885D01*
X107307962Y-108930237D01*
X107314527Y-108905737D01*
X107356405Y-108833202D01*
X107356405Y-108833201D01*
X107356406Y-108833200D01*
X107390513Y-108705909D01*
X107390514Y-108705909D01*
X107390514Y-108574119D01*
X107390513Y-108574118D01*
X107356406Y-108446829D01*
X107356405Y-108446825D01*
X107290513Y-108332699D01*
X107197328Y-108239514D01*
X107083202Y-108173622D01*
X107083198Y-108173621D01*
X106955909Y-108139514D01*
X106955906Y-108139514D01*
X106824122Y-108139514D01*
X106824119Y-108139514D01*
X106696829Y-108173621D01*
X106696825Y-108173622D01*
X106582699Y-108239514D01*
X106582699Y-108239515D01*
X106497052Y-108325162D01*
X106462404Y-108339514D01*
X102784750Y-108339514D01*
X102750102Y-108325162D01*
X102314829Y-107889889D01*
X102300477Y-107855241D01*
X102300482Y-106315486D01*
X102300496Y-102241535D01*
X116019944Y-102241535D01*
X116019944Y-102448465D01*
X116025865Y-102478230D01*
X116060313Y-102651417D01*
X116060315Y-102651423D01*
X116132314Y-102825243D01*
X116139503Y-102842598D01*
X116254467Y-103014655D01*
X116400789Y-103160977D01*
X116572846Y-103275941D01*
X116764024Y-103355130D01*
X116966979Y-103395500D01*
X116966982Y-103395500D01*
X117173906Y-103395500D01*
X117173909Y-103395500D01*
X117376864Y-103355130D01*
X117568042Y-103275941D01*
X117740099Y-103160977D01*
X117886421Y-103014655D01*
X118001385Y-102842598D01*
X118080574Y-102651420D01*
X118120944Y-102448465D01*
X118120944Y-102241535D01*
X118559944Y-102241535D01*
X118559944Y-102448465D01*
X118565865Y-102478230D01*
X118600313Y-102651417D01*
X118600315Y-102651423D01*
X118672314Y-102825243D01*
X118679503Y-102842598D01*
X118794467Y-103014655D01*
X118940789Y-103160977D01*
X119112846Y-103275941D01*
X119304024Y-103355130D01*
X119506979Y-103395500D01*
X119506982Y-103395500D01*
X119713906Y-103395500D01*
X119713909Y-103395500D01*
X119916864Y-103355130D01*
X120108042Y-103275941D01*
X120280099Y-103160977D01*
X120426421Y-103014655D01*
X120541385Y-102842598D01*
X120620574Y-102651420D01*
X120660944Y-102448465D01*
X120660944Y-102241535D01*
X120620574Y-102038580D01*
X120541385Y-101847402D01*
X120426421Y-101675345D01*
X120280099Y-101529023D01*
X120108042Y-101414059D01*
X120108040Y-101414058D01*
X119916867Y-101334871D01*
X119916861Y-101334869D01*
X119835016Y-101318589D01*
X119713909Y-101294500D01*
X119506979Y-101294500D01*
X119405964Y-101314592D01*
X119304026Y-101334869D01*
X119304020Y-101334871D01*
X119112847Y-101414058D01*
X118940789Y-101529022D01*
X118794466Y-101675345D01*
X118679502Y-101847403D01*
X118600315Y-102038576D01*
X118600313Y-102038582D01*
X118592715Y-102076782D01*
X118559944Y-102241535D01*
X118120944Y-102241535D01*
X118080574Y-102038580D01*
X118001385Y-101847402D01*
X117886421Y-101675345D01*
X117740099Y-101529023D01*
X117568042Y-101414059D01*
X117568040Y-101414058D01*
X117376867Y-101334871D01*
X117376861Y-101334869D01*
X117295016Y-101318589D01*
X117173909Y-101294500D01*
X116966979Y-101294500D01*
X116865964Y-101314592D01*
X116764026Y-101334869D01*
X116764020Y-101334871D01*
X116572847Y-101414058D01*
X116400789Y-101529022D01*
X116254466Y-101675345D01*
X116139502Y-101847403D01*
X116060315Y-102038576D01*
X116060313Y-102038582D01*
X116052715Y-102076782D01*
X116019944Y-102241535D01*
X102300496Y-102241535D01*
X102300498Y-101644763D01*
X102314849Y-101610119D01*
X103110117Y-100814847D01*
X103144764Y-100800496D01*
X116700694Y-100800503D01*
X116700698Y-100800505D01*
X116710441Y-100800505D01*
X116789566Y-100800505D01*
X116816232Y-100793359D01*
X116865990Y-100780026D01*
X116865994Y-100780023D01*
X116865996Y-100780023D01*
X116868905Y-100778344D01*
X116868906Y-100778343D01*
X116888396Y-100767089D01*
X116934512Y-100740465D01*
X116990461Y-100684516D01*
X116990461Y-100684515D01*
X116997350Y-100677626D01*
X116997352Y-100677622D01*
X117094721Y-100580252D01*
X162991747Y-100580252D01*
X162991747Y-102419748D01*
X163003380Y-102478231D01*
X163021129Y-102504795D01*
X163047694Y-102544552D01*
X163074259Y-102562301D01*
X163114016Y-102588867D01*
X163172499Y-102600500D01*
X163172502Y-102600500D01*
X165011992Y-102600500D01*
X165011995Y-102600500D01*
X165070478Y-102588867D01*
X165136799Y-102544552D01*
X165181114Y-102478231D01*
X165192747Y-102419748D01*
X165192747Y-101413389D01*
X168071747Y-101413389D01*
X168071747Y-101586610D01*
X168098844Y-101757698D01*
X168098845Y-101757701D01*
X168152374Y-101922446D01*
X168231011Y-102076782D01*
X168231014Y-102076786D01*
X168231015Y-102076788D01*
X168332833Y-102216928D01*
X168332835Y-102216930D01*
X168332838Y-102216934D01*
X168455312Y-102339408D01*
X168455315Y-102339410D01*
X168455319Y-102339414D01*
X168595459Y-102441232D01*
X168595461Y-102441233D01*
X168595464Y-102441235D01*
X168668072Y-102478230D01*
X168749802Y-102519873D01*
X168914546Y-102573402D01*
X169085636Y-102600500D01*
X169085637Y-102600500D01*
X169258857Y-102600500D01*
X169258858Y-102600500D01*
X169429948Y-102573402D01*
X169594692Y-102519873D01*
X169749035Y-102441232D01*
X169889175Y-102339414D01*
X170011661Y-102216928D01*
X170113479Y-102076788D01*
X170192120Y-101922445D01*
X170245649Y-101757701D01*
X170272747Y-101586611D01*
X170272747Y-101413389D01*
X170245649Y-101242299D01*
X170192120Y-101077555D01*
X170113479Y-100923212D01*
X170011661Y-100783072D01*
X170011657Y-100783068D01*
X170011655Y-100783065D01*
X169889181Y-100660591D01*
X169889182Y-100660591D01*
X169749029Y-100558764D01*
X169594693Y-100480127D01*
X169429948Y-100426598D01*
X169429945Y-100426597D01*
X169298518Y-100405781D01*
X169258858Y-100399500D01*
X169085636Y-100399500D01*
X169053439Y-100404599D01*
X168914548Y-100426597D01*
X168914545Y-100426598D01*
X168749800Y-100480127D01*
X168595464Y-100558764D01*
X168455312Y-100660591D01*
X168332838Y-100783065D01*
X168231011Y-100923217D01*
X168152374Y-101077553D01*
X168098845Y-101242298D01*
X168098844Y-101242301D01*
X168071747Y-101413389D01*
X165192747Y-101413389D01*
X165192747Y-100580252D01*
X165181114Y-100521769D01*
X165153289Y-100480127D01*
X165136799Y-100455447D01*
X165093621Y-100426597D01*
X165070478Y-100411133D01*
X165011995Y-100399500D01*
X163172499Y-100399500D01*
X163114016Y-100411133D01*
X163047694Y-100455447D01*
X163003380Y-100521769D01*
X162991747Y-100580252D01*
X117094721Y-100580252D01*
X118860115Y-98814842D01*
X118894762Y-98800491D01*
X126072390Y-98800498D01*
X126107036Y-98814850D01*
X126192686Y-98900500D01*
X126234457Y-98924617D01*
X126306811Y-98966391D01*
X126306813Y-98966391D01*
X126306814Y-98966392D01*
X126407207Y-98993292D01*
X126434104Y-99000499D01*
X126434105Y-99000500D01*
X126434108Y-99000500D01*
X126565895Y-99000500D01*
X126565895Y-99000499D01*
X126693186Y-98966392D01*
X126807314Y-98900500D01*
X126900500Y-98807314D01*
X126966392Y-98693186D01*
X127000499Y-98565895D01*
X127000500Y-98565895D01*
X127000500Y-98434105D01*
X127000499Y-98434104D01*
X126966392Y-98306815D01*
X126966391Y-98306811D01*
X126900499Y-98192685D01*
X126807314Y-98099500D01*
X126693188Y-98033608D01*
X126693184Y-98033607D01*
X126565895Y-97999500D01*
X126565892Y-97999500D01*
X126515161Y-97999500D01*
X126480513Y-97985148D01*
X126466161Y-97950500D01*
X126467831Y-97937818D01*
X126500499Y-97815895D01*
X126500500Y-97815895D01*
X126500500Y-97684105D01*
X126500499Y-97684104D01*
X126493292Y-97657207D01*
X126466392Y-97556814D01*
X126466391Y-97556813D01*
X126466391Y-97556811D01*
X126404438Y-97449507D01*
X126400500Y-97442686D01*
X126307314Y-97349500D01*
X126193188Y-97283608D01*
X126193184Y-97283607D01*
X126065895Y-97249500D01*
X126065892Y-97249500D01*
X125934108Y-97249500D01*
X125934105Y-97249500D01*
X125806815Y-97283607D01*
X125806811Y-97283608D01*
X125692685Y-97349500D01*
X125607037Y-97435148D01*
X125572389Y-97449500D01*
X118460439Y-97449506D01*
X118460438Y-97449507D01*
X118432467Y-97457002D01*
X118384022Y-97469982D01*
X118384016Y-97469985D01*
X118315496Y-97509543D01*
X118315490Y-97509548D01*
X116139877Y-99685143D01*
X116105229Y-99699495D01*
X102466431Y-99699495D01*
X102466426Y-99699495D01*
X102460436Y-99699496D01*
X102460435Y-99699496D01*
X102384038Y-99719967D01*
X102384007Y-99719975D01*
X102315486Y-99759536D01*
X102315486Y-99759537D01*
X101315489Y-100759539D01*
X101259541Y-100815487D01*
X101259540Y-100815487D01*
X101219979Y-100884007D01*
X101219979Y-100884009D01*
X101199499Y-100960435D01*
X101199496Y-108460439D01*
X97750000Y-108460439D01*
X97750000Y-102840000D01*
X92920701Y-102840000D01*
X92919723Y-102839595D01*
X92900000Y-102839595D01*
X92194500Y-102839595D01*
X92159852Y-102825243D01*
X92145500Y-102790595D01*
X92145500Y-97564796D01*
X106652444Y-97564796D01*
X106652444Y-97752028D01*
X106665148Y-97815895D01*
X106688970Y-97935660D01*
X106688973Y-97935670D01*
X106760619Y-98108637D01*
X106760620Y-98108639D01*
X106760622Y-98108643D01*
X106821330Y-98199499D01*
X106861442Y-98259532D01*
X106864642Y-98264320D01*
X106997036Y-98396714D01*
X107152713Y-98500734D01*
X107152718Y-98500736D01*
X107325685Y-98572382D01*
X107325687Y-98572382D01*
X107325693Y-98572385D01*
X107509328Y-98608912D01*
X107509331Y-98608912D01*
X107696557Y-98608912D01*
X107696560Y-98608912D01*
X107880195Y-98572385D01*
X108053175Y-98500734D01*
X108208852Y-98396714D01*
X108341246Y-98264320D01*
X108445266Y-98108643D01*
X108516917Y-97935663D01*
X108553444Y-97752028D01*
X108553444Y-97564796D01*
X109192444Y-97564796D01*
X109192444Y-97752028D01*
X109205148Y-97815895D01*
X109228970Y-97935660D01*
X109228973Y-97935670D01*
X109300619Y-98108637D01*
X109300620Y-98108639D01*
X109300622Y-98108643D01*
X109361330Y-98199499D01*
X109401442Y-98259532D01*
X109404642Y-98264320D01*
X109537036Y-98396714D01*
X109692713Y-98500734D01*
X109692718Y-98500736D01*
X109865685Y-98572382D01*
X109865687Y-98572382D01*
X109865693Y-98572385D01*
X110049328Y-98608912D01*
X110049331Y-98608912D01*
X110236557Y-98608912D01*
X110236560Y-98608912D01*
X110420195Y-98572385D01*
X110593175Y-98500734D01*
X110748852Y-98396714D01*
X110881246Y-98264320D01*
X110985266Y-98108643D01*
X111056917Y-97935663D01*
X111093444Y-97752028D01*
X111093444Y-97564796D01*
X111056917Y-97381161D01*
X110985266Y-97208181D01*
X110881246Y-97052504D01*
X110748852Y-96920110D01*
X110593175Y-96816090D01*
X110593171Y-96816088D01*
X110593169Y-96816087D01*
X110420202Y-96744441D01*
X110420192Y-96744438D01*
X110326761Y-96725854D01*
X110236560Y-96707912D01*
X110049328Y-96707912D01*
X109959127Y-96725854D01*
X109865695Y-96744438D01*
X109865685Y-96744441D01*
X109692718Y-96816087D01*
X109692714Y-96816089D01*
X109692713Y-96816090D01*
X109653139Y-96842532D01*
X109537036Y-96920109D01*
X109404641Y-97052504D01*
X109300619Y-97208186D01*
X109228973Y-97381153D01*
X109228970Y-97381163D01*
X109215376Y-97449506D01*
X109192444Y-97564796D01*
X108553444Y-97564796D01*
X108516917Y-97381161D01*
X108445266Y-97208181D01*
X108341246Y-97052504D01*
X108208852Y-96920110D01*
X108053175Y-96816090D01*
X108053171Y-96816088D01*
X108053169Y-96816087D01*
X107880202Y-96744441D01*
X107880192Y-96744438D01*
X107786761Y-96725854D01*
X107696560Y-96707912D01*
X107509328Y-96707912D01*
X107419127Y-96725854D01*
X107325695Y-96744438D01*
X107325685Y-96744441D01*
X107152718Y-96816087D01*
X107152714Y-96816089D01*
X107152713Y-96816090D01*
X107113139Y-96842532D01*
X106997036Y-96920109D01*
X106864641Y-97052504D01*
X106760619Y-97208186D01*
X106688973Y-97381153D01*
X106688970Y-97381163D01*
X106675376Y-97449506D01*
X106652444Y-97564796D01*
X92145500Y-97564796D01*
X92145500Y-95024796D01*
X107922444Y-95024796D01*
X107922444Y-95212028D01*
X107946684Y-95333891D01*
X107958970Y-95395660D01*
X107958973Y-95395670D01*
X108030619Y-95568637D01*
X108030620Y-95568639D01*
X108030622Y-95568643D01*
X108134642Y-95724320D01*
X108267036Y-95856714D01*
X108422713Y-95960734D01*
X108422718Y-95960736D01*
X108595685Y-96032382D01*
X108595687Y-96032382D01*
X108595693Y-96032385D01*
X108779328Y-96068912D01*
X108779331Y-96068912D01*
X108966557Y-96068912D01*
X108966560Y-96068912D01*
X109150195Y-96032385D01*
X109323175Y-95960734D01*
X109478852Y-95856714D01*
X109611246Y-95724320D01*
X109715266Y-95568643D01*
X109786917Y-95395663D01*
X109823444Y-95212028D01*
X109823444Y-95024796D01*
X110462444Y-95024796D01*
X110462444Y-95212028D01*
X110486684Y-95333891D01*
X110498970Y-95395660D01*
X110498973Y-95395670D01*
X110570619Y-95568637D01*
X110570620Y-95568639D01*
X110570622Y-95568643D01*
X110648899Y-95685793D01*
X110674641Y-95724319D01*
X110807036Y-95856714D01*
X110927723Y-95937354D01*
X110948558Y-95968536D01*
X110949500Y-95978096D01*
X110949500Y-96434778D01*
X110973713Y-96525140D01*
X110973713Y-96525141D01*
X110980200Y-96549354D01*
X110980201Y-96549356D01*
X111039511Y-96652082D01*
X111039512Y-96652083D01*
X111750386Y-97362958D01*
X111764738Y-97397606D01*
X111763797Y-97407165D01*
X111745116Y-97501085D01*
X111732444Y-97564796D01*
X111732444Y-97752028D01*
X111745148Y-97815895D01*
X111768970Y-97935660D01*
X111768973Y-97935670D01*
X111840619Y-98108637D01*
X111840620Y-98108639D01*
X111840622Y-98108643D01*
X111901330Y-98199499D01*
X111941442Y-98259532D01*
X111944642Y-98264320D01*
X112077036Y-98396714D01*
X112232713Y-98500734D01*
X112232718Y-98500736D01*
X112405685Y-98572382D01*
X112405687Y-98572382D01*
X112405693Y-98572385D01*
X112589328Y-98608912D01*
X112589331Y-98608912D01*
X112776557Y-98608912D01*
X112776560Y-98608912D01*
X112960195Y-98572385D01*
X113133175Y-98500734D01*
X113288852Y-98396714D01*
X113421246Y-98264320D01*
X113525266Y-98108643D01*
X113596917Y-97935663D01*
X113633444Y-97752028D01*
X113633444Y-97564796D01*
X113596917Y-97381161D01*
X113525266Y-97208181D01*
X113421246Y-97052504D01*
X113288852Y-96920110D01*
X113133175Y-96816090D01*
X113133171Y-96816088D01*
X113133169Y-96816087D01*
X112960202Y-96744441D01*
X112960192Y-96744438D01*
X112866761Y-96725854D01*
X112776560Y-96707912D01*
X112589328Y-96707912D01*
X112525617Y-96720584D01*
X112431697Y-96739265D01*
X112394914Y-96731948D01*
X112387490Y-96725854D01*
X111864852Y-96203216D01*
X111850500Y-96168568D01*
X111850500Y-95995393D01*
X111864852Y-95960745D01*
X111872268Y-95954657D01*
X112018852Y-95856714D01*
X112151246Y-95724320D01*
X112255266Y-95568643D01*
X112326917Y-95395663D01*
X112363444Y-95212028D01*
X112363444Y-95024796D01*
X113002444Y-95024796D01*
X113002444Y-95212028D01*
X113026684Y-95333891D01*
X113038970Y-95395660D01*
X113038973Y-95395670D01*
X113110619Y-95568637D01*
X113110620Y-95568639D01*
X113110622Y-95568643D01*
X113214642Y-95724320D01*
X113347036Y-95856714D01*
X113502713Y-95960734D01*
X113502718Y-95960736D01*
X113675685Y-96032382D01*
X113675687Y-96032382D01*
X113675693Y-96032385D01*
X113859328Y-96068912D01*
X113859331Y-96068912D01*
X114046557Y-96068912D01*
X114046560Y-96068912D01*
X114230195Y-96032385D01*
X114403175Y-95960734D01*
X114558852Y-95856714D01*
X114691246Y-95724320D01*
X114795266Y-95568643D01*
X114866917Y-95395663D01*
X114903444Y-95212028D01*
X114903444Y-95024796D01*
X114866917Y-94841161D01*
X114795266Y-94668181D01*
X114691246Y-94512504D01*
X114558852Y-94380110D01*
X114403175Y-94276090D01*
X114403171Y-94276088D01*
X114403169Y-94276087D01*
X114230202Y-94204441D01*
X114230192Y-94204438D01*
X114156138Y-94189708D01*
X114046560Y-94167912D01*
X113859328Y-94167912D01*
X113767930Y-94186092D01*
X113675695Y-94204438D01*
X113675685Y-94204441D01*
X113502718Y-94276087D01*
X113502714Y-94276089D01*
X113502713Y-94276090D01*
X113489501Y-94284918D01*
X113347036Y-94380109D01*
X113214641Y-94512504D01*
X113110619Y-94668186D01*
X113038973Y-94841153D01*
X113038970Y-94841163D01*
X113020624Y-94933398D01*
X113002444Y-95024796D01*
X112363444Y-95024796D01*
X112326917Y-94841161D01*
X112255266Y-94668181D01*
X112151246Y-94512504D01*
X112018852Y-94380110D01*
X112018851Y-94380109D01*
X112018852Y-94380109D01*
X111911522Y-94308394D01*
X111890686Y-94277211D01*
X111898003Y-94240429D01*
X111904092Y-94233009D01*
X112572251Y-93564852D01*
X112606899Y-93550500D01*
X141993101Y-93550500D01*
X142027749Y-93564852D01*
X142973386Y-94510489D01*
X143076113Y-94569799D01*
X143100326Y-94576286D01*
X143145508Y-94588393D01*
X143190689Y-94600500D01*
X143190691Y-94600500D01*
X163109311Y-94600500D01*
X163139430Y-94592428D01*
X163199673Y-94576286D01*
X163223887Y-94569799D01*
X163326614Y-94510489D01*
X164610489Y-93226614D01*
X164669798Y-93123887D01*
X164669799Y-93123886D01*
X164676066Y-93100500D01*
X164700499Y-93009312D01*
X164700500Y-93009312D01*
X164700500Y-87188334D01*
X164714852Y-87153686D01*
X164734354Y-87141734D01*
X164914379Y-87083241D01*
X165138845Y-86968870D01*
X165342656Y-86820793D01*
X165342659Y-86820789D01*
X165342662Y-86820788D01*
X165520788Y-86642662D01*
X165520789Y-86642659D01*
X165520793Y-86642656D01*
X165668870Y-86438845D01*
X165783241Y-86214379D01*
X165861090Y-85974785D01*
X165900500Y-85725962D01*
X165900500Y-85474038D01*
X165861090Y-85225215D01*
X165783241Y-84985621D01*
X165668870Y-84761155D01*
X165520793Y-84557344D01*
X165520791Y-84557342D01*
X165520788Y-84557338D01*
X165342662Y-84379212D01*
X165342657Y-84379208D01*
X165138842Y-84231128D01*
X164914380Y-84116759D01*
X164674785Y-84038910D01*
X164674782Y-84038909D01*
X164483642Y-84008635D01*
X164425962Y-83999500D01*
X164174038Y-83999500D01*
X164127212Y-84006916D01*
X163925217Y-84038909D01*
X163925214Y-84038910D01*
X163685619Y-84116759D01*
X163461157Y-84231128D01*
X163257342Y-84379208D01*
X163079208Y-84557342D01*
X162931128Y-84761157D01*
X162816759Y-84985619D01*
X162738910Y-85225214D01*
X162738909Y-85225217D01*
X162699500Y-85474038D01*
X162699500Y-85725961D01*
X162738909Y-85974782D01*
X162738910Y-85974785D01*
X162816759Y-86214380D01*
X162931128Y-86438842D01*
X162931130Y-86438845D01*
X162996745Y-86529157D01*
X163079208Y-86642657D01*
X163079212Y-86642662D01*
X163257338Y-86820788D01*
X163257342Y-86820791D01*
X163257344Y-86820793D01*
X163461155Y-86968870D01*
X163685621Y-87083241D01*
X163753168Y-87105188D01*
X163765642Y-87109241D01*
X163794159Y-87133597D01*
X163799500Y-87155843D01*
X163799500Y-92743101D01*
X163785148Y-92777749D01*
X162877749Y-93685148D01*
X162843101Y-93699500D01*
X143456899Y-93699500D01*
X143422251Y-93685148D01*
X142476614Y-92739511D01*
X142373890Y-92680202D01*
X142373887Y-92680201D01*
X142348452Y-92673386D01*
X142318737Y-92665424D01*
X142259311Y-92649500D01*
X142259309Y-92649500D01*
X112340691Y-92649500D01*
X112340688Y-92649500D01*
X112226115Y-92680200D01*
X112226111Y-92680201D01*
X112123393Y-92739505D01*
X112123384Y-92739512D01*
X111039512Y-93823385D01*
X111039511Y-93823385D01*
X110980201Y-93926111D01*
X110978532Y-93932343D01*
X110978531Y-93932342D01*
X110978531Y-93932346D01*
X110949500Y-94040688D01*
X110949500Y-94258726D01*
X110935148Y-94293374D01*
X110927723Y-94299468D01*
X110807038Y-94380107D01*
X110674641Y-94512504D01*
X110570619Y-94668186D01*
X110498973Y-94841153D01*
X110498970Y-94841163D01*
X110480624Y-94933398D01*
X110462444Y-95024796D01*
X109823444Y-95024796D01*
X109786917Y-94841161D01*
X109715266Y-94668181D01*
X109611246Y-94512504D01*
X109478852Y-94380110D01*
X109323175Y-94276090D01*
X109323171Y-94276088D01*
X109323169Y-94276087D01*
X109150202Y-94204441D01*
X109150192Y-94204438D01*
X109076138Y-94189708D01*
X108966560Y-94167912D01*
X108779328Y-94167912D01*
X108687930Y-94186092D01*
X108595695Y-94204438D01*
X108595685Y-94204441D01*
X108422718Y-94276087D01*
X108422714Y-94276089D01*
X108422713Y-94276090D01*
X108409501Y-94284918D01*
X108267036Y-94380109D01*
X108134641Y-94512504D01*
X108030619Y-94668186D01*
X107958973Y-94841153D01*
X107958970Y-94841163D01*
X107940624Y-94933398D01*
X107922444Y-95024796D01*
X92145500Y-95024796D01*
X92145500Y-92385927D01*
X143499500Y-92385927D01*
X143499500Y-92514072D01*
X143524497Y-92639737D01*
X143524498Y-92639742D01*
X143565824Y-92739510D01*
X143573535Y-92758127D01*
X143644724Y-92864669D01*
X143735331Y-92955276D01*
X143841873Y-93026465D01*
X143960256Y-93075501D01*
X144085931Y-93100500D01*
X144214069Y-93100500D01*
X144339744Y-93075501D01*
X144458127Y-93026465D01*
X144564669Y-92955276D01*
X144655276Y-92864669D01*
X144726465Y-92758127D01*
X144775501Y-92639744D01*
X144800500Y-92514069D01*
X144800500Y-92456899D01*
X144814852Y-92422251D01*
X146522252Y-90714852D01*
X146556900Y-90700500D01*
X149260244Y-90700500D01*
X149294892Y-90714852D01*
X149335318Y-90755278D01*
X149441860Y-90826467D01*
X149560243Y-90875503D01*
X149685918Y-90900502D01*
X149814056Y-90900502D01*
X149939731Y-90875503D01*
X150058114Y-90826467D01*
X150164656Y-90755278D01*
X150255263Y-90664671D01*
X150326452Y-90558129D01*
X150375488Y-90439746D01*
X150400487Y-90314071D01*
X150400487Y-90185933D01*
X150375488Y-90060258D01*
X150326452Y-89941875D01*
X150255263Y-89835333D01*
X150164656Y-89744726D01*
X150058114Y-89673537D01*
X149939731Y-89624501D01*
X149939729Y-89624500D01*
X149939724Y-89624499D01*
X149814059Y-89599502D01*
X149814056Y-89599502D01*
X149685918Y-89599502D01*
X149685914Y-89599502D01*
X149560249Y-89624499D01*
X149560244Y-89624500D01*
X149441861Y-89673536D01*
X149335318Y-89744725D01*
X149294896Y-89785148D01*
X149260248Y-89799500D01*
X146290688Y-89799500D01*
X146200326Y-89823713D01*
X146176113Y-89830200D01*
X146176110Y-89830201D01*
X146073385Y-89889510D01*
X144177749Y-91785148D01*
X144143101Y-91799500D01*
X144085927Y-91799500D01*
X143960262Y-91824497D01*
X143960257Y-91824498D01*
X143841874Y-91873534D01*
X143735331Y-91944723D01*
X143644723Y-92035331D01*
X143573534Y-92141874D01*
X143524498Y-92260257D01*
X143524497Y-92260262D01*
X143499500Y-92385927D01*
X92145500Y-92385927D01*
X92145500Y-88647124D01*
X104482444Y-88647124D01*
X104482444Y-88889700D01*
X104514106Y-89130201D01*
X104514107Y-89130205D01*
X104514108Y-89130212D01*
X104576888Y-89364507D01*
X104576890Y-89364513D01*
X104669720Y-89588625D01*
X104791006Y-89798698D01*
X104791016Y-89798713D01*
X104938674Y-89991144D01*
X104938684Y-89991156D01*
X105110199Y-90162671D01*
X105110211Y-90162681D01*
X105302642Y-90310339D01*
X105302651Y-90310345D01*
X105302655Y-90310348D01*
X105512732Y-90431636D01*
X105736844Y-90524466D01*
X105736848Y-90524467D01*
X105971143Y-90587247D01*
X105971144Y-90587247D01*
X105971155Y-90587250D01*
X106211656Y-90618912D01*
X106211660Y-90618912D01*
X106454228Y-90618912D01*
X106454232Y-90618912D01*
X106694733Y-90587250D01*
X106929044Y-90524466D01*
X107153156Y-90431636D01*
X107363233Y-90310348D01*
X107555682Y-90162677D01*
X107727209Y-89991150D01*
X107874880Y-89798701D01*
X107996168Y-89588624D01*
X108088998Y-89364512D01*
X108151782Y-89130201D01*
X108183444Y-88889700D01*
X108183444Y-88647124D01*
X115912444Y-88647124D01*
X115912444Y-88889700D01*
X115944106Y-89130201D01*
X115944107Y-89130205D01*
X115944108Y-89130212D01*
X116006888Y-89364507D01*
X116006890Y-89364513D01*
X116099720Y-89588625D01*
X116221006Y-89798698D01*
X116221016Y-89798713D01*
X116368674Y-89991144D01*
X116368684Y-89991156D01*
X116540199Y-90162671D01*
X116540211Y-90162681D01*
X116732642Y-90310339D01*
X116732651Y-90310345D01*
X116732655Y-90310348D01*
X116942732Y-90431636D01*
X117166844Y-90524466D01*
X117166848Y-90524467D01*
X117401143Y-90587247D01*
X117401144Y-90587247D01*
X117401155Y-90587250D01*
X117641656Y-90618912D01*
X117641660Y-90618912D01*
X117884228Y-90618912D01*
X117884232Y-90618912D01*
X118124733Y-90587250D01*
X118359044Y-90524466D01*
X118583156Y-90431636D01*
X118793233Y-90310348D01*
X118985682Y-90162677D01*
X119157209Y-89991150D01*
X119304880Y-89798701D01*
X119426168Y-89588624D01*
X119518998Y-89364512D01*
X119581782Y-89130201D01*
X119613444Y-88889700D01*
X119613444Y-88647124D01*
X119581782Y-88406623D01*
X119518998Y-88172312D01*
X119426168Y-87948200D01*
X119304880Y-87738123D01*
X119304877Y-87738119D01*
X119304871Y-87738110D01*
X119157213Y-87545679D01*
X119157203Y-87545667D01*
X118985688Y-87374152D01*
X118985676Y-87374142D01*
X118793245Y-87226484D01*
X118793230Y-87226474D01*
X118583156Y-87105188D01*
X118583157Y-87105188D01*
X118359045Y-87012358D01*
X118359039Y-87012356D01*
X118124744Y-86949576D01*
X118124737Y-86949575D01*
X118124733Y-86949574D01*
X117884232Y-86917912D01*
X117641656Y-86917912D01*
X117401155Y-86949574D01*
X117401151Y-86949574D01*
X117401143Y-86949576D01*
X117166848Y-87012356D01*
X117166842Y-87012358D01*
X116942730Y-87105188D01*
X116732657Y-87226474D01*
X116732642Y-87226484D01*
X116540211Y-87374142D01*
X116540199Y-87374152D01*
X116368684Y-87545667D01*
X116368674Y-87545679D01*
X116221016Y-87738110D01*
X116221006Y-87738125D01*
X116099720Y-87948198D01*
X116006890Y-88172310D01*
X116006888Y-88172316D01*
X115944108Y-88406611D01*
X115944106Y-88406619D01*
X115944106Y-88406623D01*
X115912444Y-88647124D01*
X108183444Y-88647124D01*
X108151782Y-88406623D01*
X108088998Y-88172312D01*
X107996168Y-87948200D01*
X107874880Y-87738123D01*
X107874877Y-87738119D01*
X107874871Y-87738110D01*
X107727213Y-87545679D01*
X107727203Y-87545667D01*
X107555688Y-87374152D01*
X107555676Y-87374142D01*
X107363245Y-87226484D01*
X107363230Y-87226474D01*
X107153156Y-87105188D01*
X107153157Y-87105188D01*
X106929045Y-87012358D01*
X106929039Y-87012356D01*
X106694744Y-86949576D01*
X106694737Y-86949575D01*
X106694733Y-86949574D01*
X106454232Y-86917912D01*
X106211656Y-86917912D01*
X105971155Y-86949574D01*
X105971151Y-86949574D01*
X105971143Y-86949576D01*
X105736848Y-87012356D01*
X105736842Y-87012358D01*
X105512730Y-87105188D01*
X105302657Y-87226474D01*
X105302642Y-87226484D01*
X105110211Y-87374142D01*
X105110199Y-87374152D01*
X104938684Y-87545667D01*
X104938674Y-87545679D01*
X104791016Y-87738110D01*
X104791006Y-87738125D01*
X104669720Y-87948198D01*
X104576890Y-88172310D01*
X104576888Y-88172316D01*
X104514108Y-88406611D01*
X104514106Y-88406619D01*
X104514106Y-88406623D01*
X104482444Y-88647124D01*
X92145500Y-88647124D01*
X92145500Y-86998896D01*
X92145538Y-86996972D01*
X92152460Y-86820788D01*
X92163919Y-86529135D01*
X92164218Y-86525327D01*
X92219139Y-86061301D01*
X92219733Y-86057552D01*
X92310892Y-85599265D01*
X92311787Y-85595541D01*
X92346054Y-85474038D01*
X123799500Y-85474038D01*
X123799500Y-85725961D01*
X123838909Y-85974782D01*
X123838910Y-85974785D01*
X123916759Y-86214380D01*
X124031128Y-86438842D01*
X124031130Y-86438845D01*
X124096745Y-86529157D01*
X124179208Y-86642657D01*
X124179212Y-86642662D01*
X124357338Y-86820788D01*
X124357342Y-86820791D01*
X124357344Y-86820793D01*
X124561155Y-86968870D01*
X124785621Y-87083241D01*
X125025215Y-87161090D01*
X125274038Y-87200500D01*
X125274039Y-87200500D01*
X125525961Y-87200500D01*
X125525962Y-87200500D01*
X125774785Y-87161090D01*
X126014379Y-87083241D01*
X126238845Y-86968870D01*
X126442656Y-86820793D01*
X126442659Y-86820789D01*
X126442662Y-86820788D01*
X126620788Y-86642662D01*
X126620789Y-86642659D01*
X126620793Y-86642656D01*
X126768870Y-86438845D01*
X126883241Y-86214379D01*
X126961090Y-85974785D01*
X127000500Y-85725962D01*
X127000500Y-85474038D01*
X128799500Y-85474038D01*
X128799500Y-85725961D01*
X128838909Y-85974782D01*
X128838910Y-85974785D01*
X128916759Y-86214380D01*
X129031128Y-86438842D01*
X129031130Y-86438845D01*
X129096745Y-86529157D01*
X129179208Y-86642657D01*
X129179212Y-86642662D01*
X129357338Y-86820788D01*
X129357342Y-86820791D01*
X129357344Y-86820793D01*
X129561155Y-86968870D01*
X129785621Y-87083241D01*
X130025215Y-87161090D01*
X130274038Y-87200500D01*
X130274039Y-87200500D01*
X130525961Y-87200500D01*
X130525962Y-87200500D01*
X130774785Y-87161090D01*
X131014379Y-87083241D01*
X131238845Y-86968870D01*
X131442656Y-86820793D01*
X131442659Y-86820789D01*
X131442662Y-86820788D01*
X131456118Y-86807332D01*
X141652720Y-86807332D01*
X141652720Y-86958871D01*
X141691938Y-87105235D01*
X141691939Y-87105239D01*
X141761937Y-87226476D01*
X141767705Y-87236467D01*
X141874855Y-87343617D01*
X141922886Y-87371348D01*
X142006082Y-87419382D01*
X142006084Y-87419382D01*
X142006085Y-87419383D01*
X142121523Y-87450314D01*
X142152450Y-87458601D01*
X142152451Y-87458602D01*
X142152454Y-87458602D01*
X142303989Y-87458602D01*
X142303989Y-87458601D01*
X142450355Y-87419383D01*
X142581585Y-87343617D01*
X142688735Y-87236467D01*
X142764501Y-87105237D01*
X142803719Y-86958871D01*
X142803720Y-86958871D01*
X142803720Y-86807333D01*
X142803719Y-86807332D01*
X147432720Y-86807332D01*
X147432720Y-86958871D01*
X147471938Y-87105235D01*
X147471939Y-87105239D01*
X147541937Y-87226476D01*
X147547705Y-87236467D01*
X147654855Y-87343617D01*
X147702886Y-87371348D01*
X147786082Y-87419382D01*
X147786084Y-87419382D01*
X147786085Y-87419383D01*
X147901523Y-87450314D01*
X147932450Y-87458601D01*
X147932451Y-87458602D01*
X147932454Y-87458602D01*
X148083989Y-87458602D01*
X148083989Y-87458601D01*
X148230355Y-87419383D01*
X148361585Y-87343617D01*
X148468735Y-87236467D01*
X148544501Y-87105237D01*
X148583719Y-86958871D01*
X148583720Y-86958871D01*
X148583720Y-86807333D01*
X148583719Y-86807332D01*
X148544501Y-86660968D01*
X148544500Y-86660964D01*
X148468734Y-86529736D01*
X148361585Y-86422587D01*
X148230357Y-86346821D01*
X148230353Y-86346820D01*
X148083989Y-86307602D01*
X148083986Y-86307602D01*
X147932454Y-86307602D01*
X147932451Y-86307602D01*
X147786086Y-86346820D01*
X147786082Y-86346821D01*
X147654854Y-86422587D01*
X147654854Y-86422588D01*
X147547706Y-86529736D01*
X147547705Y-86529736D01*
X147471939Y-86660964D01*
X147471938Y-86660968D01*
X147432720Y-86807332D01*
X142803719Y-86807332D01*
X142764501Y-86660968D01*
X142764500Y-86660964D01*
X142688734Y-86529736D01*
X142581585Y-86422587D01*
X142450357Y-86346821D01*
X142450353Y-86346820D01*
X142303989Y-86307602D01*
X142303986Y-86307602D01*
X142152454Y-86307602D01*
X142152451Y-86307602D01*
X142006086Y-86346820D01*
X142006082Y-86346821D01*
X141874854Y-86422587D01*
X141874854Y-86422588D01*
X141767706Y-86529736D01*
X141767705Y-86529736D01*
X141691939Y-86660964D01*
X141691938Y-86660968D01*
X141652720Y-86807332D01*
X131456118Y-86807332D01*
X131620788Y-86642662D01*
X131620789Y-86642659D01*
X131620793Y-86642656D01*
X131768870Y-86438845D01*
X131883241Y-86214379D01*
X131961090Y-85974785D01*
X132000500Y-85725962D01*
X132000500Y-85474038D01*
X131961090Y-85225215D01*
X131883241Y-84985621D01*
X131768870Y-84761155D01*
X131620793Y-84557344D01*
X131620791Y-84557342D01*
X131620788Y-84557338D01*
X131442662Y-84379212D01*
X131442657Y-84379208D01*
X131238842Y-84231128D01*
X131014380Y-84116759D01*
X130774785Y-84038910D01*
X130774782Y-84038909D01*
X130583642Y-84008635D01*
X130525962Y-83999500D01*
X130274038Y-83999500D01*
X130227212Y-84006916D01*
X130025217Y-84038909D01*
X130025214Y-84038910D01*
X129785619Y-84116759D01*
X129561157Y-84231128D01*
X129357342Y-84379208D01*
X129179208Y-84557342D01*
X129031128Y-84761157D01*
X128916759Y-84985619D01*
X128838910Y-85225214D01*
X128838909Y-85225217D01*
X128799500Y-85474038D01*
X127000500Y-85474038D01*
X126961090Y-85225215D01*
X126883241Y-84985621D01*
X126768870Y-84761155D01*
X126620793Y-84557344D01*
X126620791Y-84557342D01*
X126620788Y-84557338D01*
X126442662Y-84379212D01*
X126442657Y-84379208D01*
X126238842Y-84231128D01*
X126014380Y-84116759D01*
X125774785Y-84038910D01*
X125774782Y-84038909D01*
X125583642Y-84008635D01*
X125525962Y-83999500D01*
X125274038Y-83999500D01*
X125227212Y-84006916D01*
X125025217Y-84038909D01*
X125025214Y-84038910D01*
X124785619Y-84116759D01*
X124561157Y-84231128D01*
X124357342Y-84379208D01*
X124179208Y-84557342D01*
X124031128Y-84761157D01*
X123916759Y-84985619D01*
X123838910Y-85225214D01*
X123838909Y-85225217D01*
X123799500Y-85474038D01*
X92346054Y-85474038D01*
X92438620Y-85145825D01*
X92439794Y-85142211D01*
X92601520Y-84703833D01*
X92602989Y-84700288D01*
X92668888Y-84557342D01*
X92798610Y-84275951D01*
X92800330Y-84272575D01*
X93028650Y-83864880D01*
X93030650Y-83861618D01*
X93290239Y-83473117D01*
X93292477Y-83470036D01*
X93581763Y-83103077D01*
X93584247Y-83100170D01*
X93901416Y-82757059D01*
X93904113Y-82754362D01*
X94247225Y-82437194D01*
X94250132Y-82434710D01*
X94617091Y-82145423D01*
X94620172Y-82143185D01*
X95008680Y-81883592D01*
X95011947Y-81881591D01*
X95419620Y-81653284D01*
X95423006Y-81651558D01*
X95847351Y-81455933D01*
X95850888Y-81454468D01*
X96289266Y-81292742D01*
X96292888Y-81291566D01*
X96742600Y-81164734D01*
X96746325Y-81163840D01*
X97204604Y-81072683D01*
X97208357Y-81072088D01*
X97672383Y-81017168D01*
X97676191Y-81016869D01*
X98144190Y-80998481D01*
X98146100Y-80998444D01*
X98210891Y-80998444D01*
X98210904Y-80998440D01*
X98214328Y-80998440D01*
X170533860Y-80998443D01*
G37*
%TD.AperFunction*%
%TD*%
M02*
