M48
; DRILL file {KiCad 9.0.4} date 2025-09-14T05:25:13-0400
; FORMAT={-:-/ absolute / inch / decimal}
; #@! TF.CreationDate,2025-09-14T05:25:13-04:00
; #@! TF.GenerationSoftware,Kicad,Pcbnew,9.0.4
; #@! TF.FileFunction,Plated,1,2,PTH
FMAT,2
INCH
; #@! TA.AperFunction,Plated,PTH,ViaDrill
T1C0.0118
; #@! TA.AperFunction,Plated,PTH,ViaDrill
T2C0.0197
; #@! TA.AperFunction,Plated,PTH,ComponentDrill
T3C0.0197
; #@! TA.AperFunction,Plated,PTH,ComponentDrill
T4C0.0236
; #@! TA.AperFunction,Plated,PTH,ComponentDrill
T5C0.0299
; #@! TA.AperFunction,Plated,PTH,ComponentDrill
T6C0.0394
; #@! TA.AperFunction,Plated,PTH,ComponentDrill
T7C0.0512
; #@! TA.AperFunction,Plated,PTH,ComponentDrill
T8C0.1260
%
G90
G05
T1
X4.0157Y-4.4882
X4.0453Y-4.4587
X4.0551Y-4.1535
X4.0846Y-4.124
X4.2083Y-4.2772
X4.2126Y-4.3898
X4.2255Y-4.3102
X4.3406Y-4.5866
X4.4439Y-4.5423
X4.4587Y-4.6102
X4.55Y-3.3625
X4.5965Y-4.439
X4.6654Y-4.6358
X4.7539Y-4.439
X4.7625Y-3.3625
X4.7625Y-3.525
X4.7933Y-4.6102
X4.8Y-3.775
X4.8Y-3.925
X4.8425Y-4.5866
X4.8917Y-4.5571
X4.9606Y-3.8484
X4.9803Y-3.878
T2
X4.4Y-4.625
X5.6752Y-3.6398
X5.8957Y-3.5531
X6.0142Y-4.65
T3
X3.7695Y-3.431
X3.7695Y-4.8031
X3.7972Y-3.3642
X3.7972Y-3.4978
X3.7972Y-4.7363
X3.7972Y-4.8699
X3.864Y-3.3365
X3.864Y-3.5255
X3.864Y-4.7086
X3.864Y-4.8976
X3.9308Y-3.3642
X3.9308Y-3.4978
X3.9308Y-4.7363
X3.9308Y-4.8699
X3.9585Y-3.431
X3.9585Y-4.8031
X6.0295Y-3.431
X6.0572Y-3.3642
X6.0572Y-3.4978
X6.124Y-3.3365
X6.124Y-3.5255
X6.1908Y-3.3642
X6.1908Y-3.4978
X6.2185Y-3.431
X6.622Y-4.8031
X6.6497Y-4.7363
X6.6497Y-4.8699
X6.7165Y-4.7086
X6.7165Y-4.8976
X6.7833Y-4.7363
X6.7833Y-4.8699
X6.811Y-4.8031
T5
X4.2363Y-3.8448
X4.2863Y-3.7448
X4.3363Y-3.8448
X4.3863Y-3.7448
X4.4363Y-3.8448
X4.4863Y-3.7448
X4.5363Y-3.8448
X4.5863Y-3.7448
T6
X4.589Y-4.9742
X4.6091Y-4.0293
X4.689Y-4.9742
X4.7091Y-4.0293
X4.789Y-4.9742
X4.889Y-4.9742
X4.989Y-4.9742
X5.089Y-4.9742
X5.189Y-4.9742
X5.289Y-4.9742
X5.389Y-4.9742
X5.489Y-4.9742
X5.589Y-4.9742
X5.689Y-4.9742
X5.789Y-4.9742
X5.889Y-4.9742
X5.989Y-4.9742
X6.089Y-4.9742
X6.189Y-4.9742
X6.289Y-4.9742
X6.4603Y-3.9961
X6.5603Y-3.9961
X6.6603Y-3.9961
T7
X4.937Y-3.3701
X5.1339Y-3.3701
X5.3307Y-3.3701
X6.4685Y-3.3701
X6.6654Y-3.3701
T8
X3.864Y-3.431
X3.864Y-4.8031
X6.124Y-3.431
X6.7165Y-4.8031
T4
G00X5.5432Y-3.2915
M15
G01X5.5432Y-3.26
M16
G05
G00X5.5432Y-3.4619
M15
G01X5.5432Y-3.4186
M16
G05
G00X5.8834Y-3.2915
M15
G01X5.8834Y-3.26
M16
G05
G00X5.8834Y-3.4619
M15
G01X5.8834Y-3.4186
M16
G05
M30
