%TF.GenerationSoftware,KiCad,Pcbnew,9.0.4*%
%TF.CreationDate,2025-09-15T20:13:30-04:00*%
%TF.ProjectId,HabitatCAN Dev Board (ESP32),48616269-7461-4744-9341-4e2044657620,4*%
%TF.SameCoordinates,Original*%
%TF.FileFunction,Soldermask,Bot*%
%TF.FilePolarity,Negative*%
%FSLAX46Y46*%
G04 Gerber Fmt 4.6, Leading zero omitted, Abs format (unit mm)*
G04 Created by KiCad (PCBNEW 9.0.4) date 2025-09-15 20:13:30*
%MOMM*%
%LPD*%
G01*
G04 APERTURE LIST*
G04 Aperture macros list*
%AMRoundRect*
0 Rectangle with rounded corners*
0 $1 Rounding radius*
0 $2 $3 $4 $5 $6 $7 $8 $9 X,Y pos of 4 corners*
0 Add a 4 corners polygon primitive as box body*
4,1,4,$2,$3,$4,$5,$6,$7,$8,$9,$2,$3,0*
0 Add four circle primitives for the rounded corners*
1,1,$1+$1,$2,$3*
1,1,$1+$1,$4,$5*
1,1,$1+$1,$6,$7*
1,1,$1+$1,$8,$9*
0 Add four rect primitives between the rounded corners*
20,1,$1+$1,$2,$3,$4,$5,0*
20,1,$1+$1,$4,$5,$6,$7,0*
20,1,$1+$1,$6,$7,$8,$9,0*
20,1,$1+$1,$8,$9,$2,$3,0*%
G04 Aperture macros list end*
%ADD10C,1.700000*%
%ADD11C,0.800000*%
%ADD12C,6.400000*%
%ADD13RoundRect,0.250001X1.149999X1.149999X-1.149999X1.149999X-1.149999X-1.149999X1.149999X-1.149999X0*%
%ADD14C,2.800000*%
%ADD15R,1.800000X1.800000*%
%ADD16C,1.800000*%
%ADD17C,0.650000*%
%ADD18O,1.000000X2.100000*%
%ADD19O,1.000000X1.800000*%
%ADD20C,3.200000*%
%ADD21R,1.500000X1.500000*%
%ADD22C,1.500000*%
G04 APERTURE END LIST*
D10*
%TO.C,J1*%
X116560000Y-126345000D03*
X119100000Y-126345000D03*
X121640000Y-126345000D03*
X124180000Y-126345000D03*
X126720000Y-126345000D03*
X129260000Y-126345000D03*
X131800000Y-126345000D03*
X134340000Y-126345000D03*
X136880000Y-126345000D03*
X139420000Y-126345000D03*
X141960000Y-126345000D03*
X144500000Y-126345000D03*
X147040000Y-126345000D03*
X149580000Y-126345000D03*
X152120000Y-126345000D03*
X154660000Y-126345000D03*
X157200000Y-126345000D03*
X159740000Y-126345000D03*
%TD*%
D11*
%TO.C,H2*%
X95745000Y-121997944D03*
X96447944Y-120300888D03*
X96447944Y-123695000D03*
X98145000Y-119597944D03*
D12*
X98145000Y-121997944D03*
D11*
X98145000Y-124397944D03*
X99842056Y-120300888D03*
X99842056Y-123695000D03*
X100545000Y-121997944D03*
%TD*%
D13*
%TO.C,J2*%
X135400000Y-85600000D03*
D14*
X130400000Y-85600000D03*
X125400000Y-85600000D03*
%TD*%
D11*
%TO.C,H1*%
X95745000Y-87147944D03*
X96447944Y-85450888D03*
X96447944Y-88845000D03*
X98145000Y-84747944D03*
D12*
X98145000Y-87147944D03*
D11*
X98145000Y-89547944D03*
X99842056Y-85450888D03*
X99842056Y-88845000D03*
X100545000Y-87147944D03*
%TD*%
D15*
%TO.C,U4*%
X164092247Y-101500000D03*
D16*
X166632247Y-101500000D03*
X169172247Y-101500000D03*
%TD*%
D11*
%TO.C,H4*%
X153150000Y-87147056D03*
X153852944Y-85450000D03*
X153852944Y-88844112D03*
X155550000Y-84747056D03*
D12*
X155550000Y-87147056D03*
D11*
X155550000Y-89547056D03*
X157247056Y-85450000D03*
X157247056Y-88844112D03*
X157950000Y-87147056D03*
%TD*%
D13*
%TO.C,J4*%
X169300000Y-85600000D03*
D14*
X164300000Y-85600000D03*
%TD*%
D10*
%TO.C,JP1*%
X119610444Y-102345000D03*
X117070444Y-102345000D03*
%TD*%
D17*
%TO.C,J5*%
X148008220Y-86883102D03*
X142228220Y-86883102D03*
D18*
X149438220Y-87383102D03*
D19*
X149438220Y-83203102D03*
D18*
X140798220Y-87383102D03*
D19*
X140798220Y-83203102D03*
%TD*%
D11*
%TO.C,H3*%
X168199758Y-121997944D03*
X168902702Y-120300888D03*
X168902702Y-123695000D03*
X170599758Y-119597944D03*
D12*
X170599758Y-121997944D03*
D11*
X170599758Y-124397944D03*
X172296814Y-120300888D03*
X172296814Y-123695000D03*
X172999758Y-121997944D03*
%TD*%
D20*
%TO.C,J3*%
X117762944Y-88768412D03*
X106332944Y-88768412D03*
D21*
X116492944Y-95118412D03*
D22*
X115222944Y-97658412D03*
X113952944Y-95118412D03*
X112682944Y-97658412D03*
X111412944Y-95118412D03*
X110142944Y-97658412D03*
X108872944Y-95118412D03*
X107602944Y-97658412D03*
%TD*%
M02*
