%TF.GenerationSoftware,KiCad,Pcbnew,9.0.4*%
%TF.CreationDate,2025-09-15T20:13:30-04:00*%
%TF.ProjectId,HabitatCAN Dev Board (ESP32),48616269-7461-4744-9341-4e2044657620,4*%
%TF.SameCoordinates,Original*%
%TF.FileFunction,Paste,Top*%
%TF.FilePolarity,Positive*%
%FSLAX46Y46*%
G04 Gerber Fmt 4.6, Leading zero omitted, Abs format (unit mm)*
G04 Created by KiCad (PCBNEW 9.0.4) date 2025-09-15 20:13:30*
%MOMM*%
%LPD*%
G01*
G04 APERTURE LIST*
G04 Aperture macros list*
%AMRoundRect*
0 Rectangle with rounded corners*
0 $1 Rounding radius*
0 $2 $3 $4 $5 $6 $7 $8 $9 X,Y pos of 4 corners*
0 Add a 4 corners polygon primitive as box body*
4,1,4,$2,$3,$4,$5,$6,$7,$8,$9,$2,$3,0*
0 Add four circle primitives for the rounded corners*
1,1,$1+$1,$2,$3*
1,1,$1+$1,$4,$5*
1,1,$1+$1,$6,$7*
1,1,$1+$1,$8,$9*
0 Add four rect primitives between the rounded corners*
20,1,$1+$1,$2,$3,$4,$5,0*
20,1,$1+$1,$4,$5,$6,$7,0*
20,1,$1+$1,$6,$7,$8,$9,0*
20,1,$1+$1,$8,$9,$2,$3,0*%
%AMFreePoly0*
4,1,6,0.725000,-0.725000,-0.725000,-0.725000,-0.725000,0.125000,-0.125000,0.725000,0.725000,0.725000,0.725000,-0.725000,0.725000,-0.725000,$1*%
G04 Aperture macros list end*
%ADD10RoundRect,0.200000X0.275000X-0.200000X0.275000X0.200000X-0.275000X0.200000X-0.275000X-0.200000X0*%
%ADD11RoundRect,0.225000X0.375000X-0.225000X0.375000X0.225000X-0.375000X0.225000X-0.375000X-0.225000X0*%
%ADD12RoundRect,0.090000X-0.660000X-0.360000X0.660000X-0.360000X0.660000X0.360000X-0.660000X0.360000X0*%
%ADD13RoundRect,0.225000X-0.250000X0.225000X-0.250000X-0.225000X0.250000X-0.225000X0.250000X0.225000X0*%
%ADD14RoundRect,0.225000X-0.225000X-0.250000X0.225000X-0.250000X0.225000X0.250000X-0.225000X0.250000X0*%
%ADD15RoundRect,0.200000X-0.200000X-0.275000X0.200000X-0.275000X0.200000X0.275000X-0.200000X0.275000X0*%
%ADD16RoundRect,0.225000X0.250000X-0.225000X0.250000X0.225000X-0.250000X0.225000X-0.250000X-0.225000X0*%
%ADD17RoundRect,0.150000X0.625000X-0.150000X0.625000X0.150000X-0.625000X0.150000X-0.625000X-0.150000X0*%
%ADD18RoundRect,0.250000X0.650000X-0.350000X0.650000X0.350000X-0.650000X0.350000X-0.650000X-0.350000X0*%
%ADD19RoundRect,0.375000X-0.375000X0.625000X-0.375000X-0.625000X0.375000X-0.625000X0.375000X0.625000X0*%
%ADD20RoundRect,0.500000X-1.400000X0.500000X-1.400000X-0.500000X1.400000X-0.500000X1.400000X0.500000X0*%
%ADD21RoundRect,0.175000X-0.175000X-0.325000X0.175000X-0.325000X0.175000X0.325000X-0.175000X0.325000X0*%
%ADD22RoundRect,0.150000X-0.200000X-0.150000X0.200000X-0.150000X0.200000X0.150000X-0.200000X0.150000X0*%
%ADD23R,1.250000X1.000000*%
%ADD24RoundRect,0.150000X0.150000X0.425000X-0.150000X0.425000X-0.150000X-0.425000X0.150000X-0.425000X0*%
%ADD25RoundRect,0.075000X0.075000X0.500000X-0.075000X0.500000X-0.075000X-0.500000X0.075000X-0.500000X0*%
%ADD26O,1.000000X2.100000*%
%ADD27O,1.000000X1.800000*%
%ADD28R,0.400000X0.800000*%
%ADD29R,0.800000X0.400000*%
%ADD30FreePoly0,90.000000*%
%ADD31R,1.450000X1.450000*%
%ADD32R,0.700000X0.700000*%
%ADD33RoundRect,0.150000X0.150000X-0.825000X0.150000X0.825000X-0.150000X0.825000X-0.150000X-0.825000X0*%
G04 APERTURE END LIST*
D10*
%TO.C,R2*%
X112302944Y-103170000D03*
X112302944Y-101520000D03*
%TD*%
D11*
%TO.C,D3*%
X157500000Y-102812146D03*
X157500000Y-99512146D03*
%TD*%
D12*
%TO.C,LED1*%
X118377500Y-110516250D03*
X118377500Y-113816250D03*
X123277500Y-113816250D03*
X123277500Y-110516250D03*
%TD*%
D13*
%TO.C,C5*%
X103500000Y-118390000D03*
X103500000Y-119940000D03*
%TD*%
D14*
%TO.C,C8*%
X154473219Y-106190000D03*
X156023219Y-106190000D03*
%TD*%
D11*
%TO.C,D2*%
X152961228Y-102812146D03*
X152961228Y-99512146D03*
%TD*%
D10*
%TO.C,R4*%
X108250000Y-120040000D03*
X108250000Y-118390000D03*
%TD*%
D15*
%TO.C,R3*%
X144972500Y-107690000D03*
X146622500Y-107690000D03*
%TD*%
D16*
%TO.C,C4*%
X110500000Y-119940000D03*
X110500000Y-118390000D03*
%TD*%
D17*
%TO.C,J6*%
X96625000Y-96900000D03*
X96625000Y-95900000D03*
X96625000Y-94900000D03*
X96625000Y-93900000D03*
D18*
X94100000Y-98200000D03*
X94100000Y-92600000D03*
%TD*%
D14*
%TO.C,C12*%
X96100000Y-101300000D03*
X97650000Y-101300000D03*
%TD*%
D10*
%TO.C,R5*%
X112750000Y-120000000D03*
X112750000Y-118350000D03*
%TD*%
D19*
%TO.C,U2*%
X157573219Y-108640000D03*
X155273219Y-108640000D03*
D20*
X155273219Y-114940000D03*
D19*
X152973219Y-108640000D03*
%TD*%
D10*
%TO.C,R7*%
X155750000Y-94750000D03*
X155750000Y-93100000D03*
%TD*%
D21*
%TO.C,D1*%
X146249987Y-93050000D03*
D22*
X146249987Y-94750000D03*
X148249987Y-94750000D03*
X148249987Y-92850000D03*
%TD*%
D16*
%TO.C,C7*%
X151249987Y-94750000D03*
X151249987Y-93200000D03*
%TD*%
D23*
%TO.C,SW1*%
X128747500Y-112440000D03*
X136497500Y-112440000D03*
%TD*%
D13*
%TO.C,C3*%
X114500000Y-106500000D03*
X114500000Y-108050000D03*
%TD*%
D24*
%TO.C,J5*%
X148318220Y-87958102D03*
X147518220Y-87958102D03*
D25*
X146368220Y-87958102D03*
X145368220Y-87958102D03*
X144868220Y-87958102D03*
X143868220Y-87958102D03*
D24*
X142718220Y-87958102D03*
X141918220Y-87958102D03*
X141918220Y-87958102D03*
X142718220Y-87958102D03*
D25*
X143368220Y-87958102D03*
X144368220Y-87958102D03*
X145868220Y-87958102D03*
X146868220Y-87958102D03*
D24*
X147518220Y-87958102D03*
X148318220Y-87958102D03*
D26*
X149438220Y-87383102D03*
D27*
X149438220Y-83203102D03*
D26*
X140798220Y-87383102D03*
D27*
X140798220Y-83203102D03*
%TD*%
D14*
%TO.C,C2*%
X141372500Y-107690000D03*
X142922500Y-107690000D03*
%TD*%
D10*
%TO.C,R6*%
X153500000Y-94750000D03*
X153500000Y-93100000D03*
%TD*%
D14*
%TO.C,C1*%
X129970000Y-107690000D03*
X131520000Y-107690000D03*
%TD*%
D13*
%TO.C,C6*%
X105750000Y-118390000D03*
X105750000Y-119940000D03*
%TD*%
D15*
%TO.C,R1*%
X133620000Y-107690000D03*
X135270000Y-107690000D03*
%TD*%
D16*
%TO.C,C11*%
X142500000Y-102800000D03*
X142500000Y-101250000D03*
%TD*%
%TO.C,C10*%
X139500000Y-102800000D03*
X139500000Y-101250000D03*
%TD*%
D23*
%TO.C,SW2*%
X140125000Y-112440000D03*
X147875000Y-112440000D03*
%TD*%
D28*
%TO.C,U1*%
X99350000Y-115340000D03*
X100150000Y-115340000D03*
X100950000Y-115340000D03*
X101750000Y-115340000D03*
X102550000Y-115340000D03*
X103350000Y-115340000D03*
X104150000Y-115340000D03*
X104950000Y-115340000D03*
X105750000Y-115340000D03*
X106550000Y-115340000D03*
X107350000Y-115340000D03*
D29*
X108250000Y-114240000D03*
X108250000Y-113440000D03*
X108250000Y-112640000D03*
X108250000Y-111840000D03*
X108250000Y-111040000D03*
X108250000Y-110240000D03*
X108250000Y-109440000D03*
X108250000Y-108640000D03*
X108250000Y-107840000D03*
X108250000Y-107040000D03*
X108250000Y-106240000D03*
X108250000Y-105440000D03*
X108250000Y-104640000D03*
D28*
X107350000Y-103540000D03*
X106550000Y-103540000D03*
X105750000Y-103540000D03*
X104950000Y-103540000D03*
X104150000Y-103540000D03*
X103350000Y-103540000D03*
X102550000Y-103540000D03*
X101750000Y-103540000D03*
X100950000Y-103540000D03*
X100150000Y-103540000D03*
X99350000Y-103540000D03*
D29*
X98450000Y-104640000D03*
X98450000Y-105440000D03*
X98450000Y-106240000D03*
X98450000Y-107040000D03*
X98450000Y-107840000D03*
X98450000Y-108640000D03*
X98450000Y-109440000D03*
X98450000Y-110240000D03*
X98450000Y-111040000D03*
X98450000Y-111840000D03*
X98450000Y-112640000D03*
X98450000Y-113440000D03*
X98450000Y-114240000D03*
D30*
X101375000Y-111415000D03*
D31*
X103350000Y-111415000D03*
X105325000Y-111415000D03*
X101375000Y-109440000D03*
X103350000Y-109440000D03*
X105325000Y-109440000D03*
X101375000Y-107465000D03*
X103350000Y-107465000D03*
X105325000Y-107465000D03*
D32*
X98400000Y-103490000D03*
X108300000Y-103490000D03*
X108300000Y-115390000D03*
X98400000Y-115390000D03*
%TD*%
D33*
%TO.C,U3*%
X138440000Y-98250000D03*
X139710000Y-98250000D03*
X140980000Y-98250000D03*
X142250000Y-98250000D03*
X142250000Y-93300000D03*
X140980000Y-93300000D03*
X139710000Y-93300000D03*
X138440000Y-93300000D03*
%TD*%
D14*
%TO.C,C9*%
X154473219Y-117690000D03*
X156023219Y-117690000D03*
%TD*%
M02*
