%TF.GenerationSoftware,KiCad,Pcbnew,9.0.4*%
%TF.CreationDate,2025-09-15T20:13:30-04:00*%
%TF.ProjectId,HabitatCAN Dev Board (ESP32),48616269-7461-4744-9341-4e2044657620,4*%
%TF.SameCoordinates,Original*%
%TF.FileFunction,Soldermask,Top*%
%TF.FilePolarity,Negative*%
%FSLAX46Y46*%
G04 Gerber Fmt 4.6, Leading zero omitted, Abs format (unit mm)*
G04 Created by KiCad (PCBNEW 9.0.4) date 2025-09-15 20:13:30*
%MOMM*%
%LPD*%
G01*
G04 APERTURE LIST*
G04 Aperture macros list*
%AMRoundRect*
0 Rectangle with rounded corners*
0 $1 Rounding radius*
0 $2 $3 $4 $5 $6 $7 $8 $9 X,Y pos of 4 corners*
0 Add a 4 corners polygon primitive as box body*
4,1,4,$2,$3,$4,$5,$6,$7,$8,$9,$2,$3,0*
0 Add four circle primitives for the rounded corners*
1,1,$1+$1,$2,$3*
1,1,$1+$1,$4,$5*
1,1,$1+$1,$6,$7*
1,1,$1+$1,$8,$9*
0 Add four rect primitives between the rounded corners*
20,1,$1+$1,$2,$3,$4,$5,0*
20,1,$1+$1,$4,$5,$6,$7,0*
20,1,$1+$1,$6,$7,$8,$9,0*
20,1,$1+$1,$8,$9,$2,$3,0*%
%AMFreePoly0*
4,1,6,0.725000,-0.725000,-0.725000,-0.725000,-0.725000,0.125000,-0.125000,0.725000,0.725000,0.725000,0.725000,-0.725000,0.725000,-0.725000,$1*%
G04 Aperture macros list end*
%ADD10C,1.700000*%
%ADD11RoundRect,0.200000X0.275000X-0.200000X0.275000X0.200000X-0.275000X0.200000X-0.275000X-0.200000X0*%
%ADD12C,0.800000*%
%ADD13C,6.400000*%
%ADD14RoundRect,0.225000X0.375000X-0.225000X0.375000X0.225000X-0.375000X0.225000X-0.375000X-0.225000X0*%
%ADD15RoundRect,0.250001X1.149999X1.149999X-1.149999X1.149999X-1.149999X-1.149999X1.149999X-1.149999X0*%
%ADD16C,2.800000*%
%ADD17RoundRect,0.090000X-0.660000X-0.360000X0.660000X-0.360000X0.660000X0.360000X-0.660000X0.360000X0*%
%ADD18RoundRect,0.225000X-0.250000X0.225000X-0.250000X-0.225000X0.250000X-0.225000X0.250000X0.225000X0*%
%ADD19RoundRect,0.225000X-0.225000X-0.250000X0.225000X-0.250000X0.225000X0.250000X-0.225000X0.250000X0*%
%ADD20R,1.800000X1.800000*%
%ADD21C,1.800000*%
%ADD22RoundRect,0.200000X-0.200000X-0.275000X0.200000X-0.275000X0.200000X0.275000X-0.200000X0.275000X0*%
%ADD23RoundRect,0.225000X0.250000X-0.225000X0.250000X0.225000X-0.250000X0.225000X-0.250000X-0.225000X0*%
%ADD24RoundRect,0.150000X0.625000X-0.150000X0.625000X0.150000X-0.625000X0.150000X-0.625000X-0.150000X0*%
%ADD25RoundRect,0.250000X0.650000X-0.350000X0.650000X0.350000X-0.650000X0.350000X-0.650000X-0.350000X0*%
%ADD26RoundRect,0.375000X-0.375000X0.625000X-0.375000X-0.625000X0.375000X-0.625000X0.375000X0.625000X0*%
%ADD27RoundRect,0.500000X-1.400000X0.500000X-1.400000X-0.500000X1.400000X-0.500000X1.400000X0.500000X0*%
%ADD28RoundRect,0.175000X-0.175000X-0.325000X0.175000X-0.325000X0.175000X0.325000X-0.175000X0.325000X0*%
%ADD29RoundRect,0.150000X-0.200000X-0.150000X0.200000X-0.150000X0.200000X0.150000X-0.200000X0.150000X0*%
%ADD30R,1.250000X1.000000*%
%ADD31C,0.650000*%
%ADD32RoundRect,0.150000X0.150000X0.425000X-0.150000X0.425000X-0.150000X-0.425000X0.150000X-0.425000X0*%
%ADD33RoundRect,0.075000X0.075000X0.500000X-0.075000X0.500000X-0.075000X-0.500000X0.075000X-0.500000X0*%
%ADD34O,1.000000X2.100000*%
%ADD35O,1.000000X1.800000*%
%ADD36C,3.200000*%
%ADD37R,1.500000X1.500000*%
%ADD38C,1.500000*%
%ADD39R,0.400000X0.800000*%
%ADD40R,0.800000X0.400000*%
%ADD41FreePoly0,90.000000*%
%ADD42R,1.450000X1.450000*%
%ADD43R,0.700000X0.700000*%
%ADD44RoundRect,0.150000X0.150000X-0.825000X0.150000X0.825000X-0.150000X0.825000X-0.150000X-0.825000X0*%
G04 APERTURE END LIST*
D10*
%TO.C,J1*%
X116560000Y-126345000D03*
X119100000Y-126345000D03*
X121640000Y-126345000D03*
X124180000Y-126345000D03*
X126720000Y-126345000D03*
X129260000Y-126345000D03*
X131800000Y-126345000D03*
X134340000Y-126345000D03*
X136880000Y-126345000D03*
X139420000Y-126345000D03*
X141960000Y-126345000D03*
X144500000Y-126345000D03*
X147040000Y-126345000D03*
X149580000Y-126345000D03*
X152120000Y-126345000D03*
X154660000Y-126345000D03*
X157200000Y-126345000D03*
X159740000Y-126345000D03*
%TD*%
D11*
%TO.C,R2*%
X112302944Y-103170000D03*
X112302944Y-101520000D03*
%TD*%
D12*
%TO.C,H2*%
X95745000Y-121997944D03*
X96447944Y-120300888D03*
X96447944Y-123695000D03*
X98145000Y-119597944D03*
D13*
X98145000Y-121997944D03*
D12*
X98145000Y-124397944D03*
X99842056Y-120300888D03*
X99842056Y-123695000D03*
X100545000Y-121997944D03*
%TD*%
D14*
%TO.C,D3*%
X157500000Y-102812146D03*
X157500000Y-99512146D03*
%TD*%
D15*
%TO.C,J2*%
X135400000Y-85600000D03*
D16*
X130400000Y-85600000D03*
X125400000Y-85600000D03*
%TD*%
D17*
%TO.C,LED1*%
X118377500Y-110516250D03*
X118377500Y-113816250D03*
X123277500Y-113816250D03*
X123277500Y-110516250D03*
%TD*%
D18*
%TO.C,C5*%
X103500000Y-118390000D03*
X103500000Y-119940000D03*
%TD*%
D19*
%TO.C,C8*%
X154473219Y-106190000D03*
X156023219Y-106190000D03*
%TD*%
D14*
%TO.C,D2*%
X152961228Y-102812146D03*
X152961228Y-99512146D03*
%TD*%
D11*
%TO.C,R4*%
X108250000Y-120040000D03*
X108250000Y-118390000D03*
%TD*%
D12*
%TO.C,H1*%
X95745000Y-87147944D03*
X96447944Y-85450888D03*
X96447944Y-88845000D03*
X98145000Y-84747944D03*
D13*
X98145000Y-87147944D03*
D12*
X98145000Y-89547944D03*
X99842056Y-85450888D03*
X99842056Y-88845000D03*
X100545000Y-87147944D03*
%TD*%
D20*
%TO.C,U4*%
X164092247Y-101500000D03*
D21*
X166632247Y-101500000D03*
X169172247Y-101500000D03*
%TD*%
D22*
%TO.C,R3*%
X144972500Y-107690000D03*
X146622500Y-107690000D03*
%TD*%
D12*
%TO.C,H4*%
X153150000Y-87147056D03*
X153852944Y-85450000D03*
X153852944Y-88844112D03*
X155550000Y-84747056D03*
D13*
X155550000Y-87147056D03*
D12*
X155550000Y-89547056D03*
X157247056Y-85450000D03*
X157247056Y-88844112D03*
X157950000Y-87147056D03*
%TD*%
D23*
%TO.C,C4*%
X110500000Y-119940000D03*
X110500000Y-118390000D03*
%TD*%
D15*
%TO.C,J4*%
X169300000Y-85600000D03*
D16*
X164300000Y-85600000D03*
%TD*%
D10*
%TO.C,JP1*%
X119610444Y-102345000D03*
X117070444Y-102345000D03*
%TD*%
D24*
%TO.C,J6*%
X96625000Y-96900000D03*
X96625000Y-95900000D03*
X96625000Y-94900000D03*
X96625000Y-93900000D03*
D25*
X94100000Y-98200000D03*
X94100000Y-92600000D03*
%TD*%
D19*
%TO.C,C12*%
X96100000Y-101300000D03*
X97650000Y-101300000D03*
%TD*%
D11*
%TO.C,R5*%
X112750000Y-120000000D03*
X112750000Y-118350000D03*
%TD*%
D26*
%TO.C,U2*%
X157573219Y-108640000D03*
X155273219Y-108640000D03*
D27*
X155273219Y-114940000D03*
D26*
X152973219Y-108640000D03*
%TD*%
D11*
%TO.C,R7*%
X155750000Y-94750000D03*
X155750000Y-93100000D03*
%TD*%
D28*
%TO.C,D1*%
X146249987Y-93050000D03*
D29*
X146249987Y-94750000D03*
X148249987Y-94750000D03*
X148249987Y-92850000D03*
%TD*%
D23*
%TO.C,C7*%
X151249987Y-94750000D03*
X151249987Y-93200000D03*
%TD*%
D30*
%TO.C,SW1*%
X128747500Y-112440000D03*
X136497500Y-112440000D03*
%TD*%
D18*
%TO.C,C3*%
X114500000Y-106500000D03*
X114500000Y-108050000D03*
%TD*%
D31*
%TO.C,J5*%
X148008220Y-86883102D03*
X142228220Y-86883102D03*
D32*
X148318220Y-87958102D03*
X147518220Y-87958102D03*
D33*
X146368220Y-87958102D03*
X145368220Y-87958102D03*
X144868220Y-87958102D03*
X143868220Y-87958102D03*
D32*
X142718220Y-87958102D03*
X141918220Y-87958102D03*
X141918220Y-87958102D03*
X142718220Y-87958102D03*
D33*
X143368220Y-87958102D03*
X144368220Y-87958102D03*
X145868220Y-87958102D03*
X146868220Y-87958102D03*
D32*
X147518220Y-87958102D03*
X148318220Y-87958102D03*
D34*
X149438220Y-87383102D03*
D35*
X149438220Y-83203102D03*
D34*
X140798220Y-87383102D03*
D35*
X140798220Y-83203102D03*
%TD*%
D19*
%TO.C,C2*%
X141372500Y-107690000D03*
X142922500Y-107690000D03*
%TD*%
D11*
%TO.C,R6*%
X153500000Y-94750000D03*
X153500000Y-93100000D03*
%TD*%
D19*
%TO.C,C1*%
X129970000Y-107690000D03*
X131520000Y-107690000D03*
%TD*%
D12*
%TO.C,H3*%
X168199758Y-121997944D03*
X168902702Y-120300888D03*
X168902702Y-123695000D03*
X170599758Y-119597944D03*
D13*
X170599758Y-121997944D03*
D12*
X170599758Y-124397944D03*
X172296814Y-120300888D03*
X172296814Y-123695000D03*
X172999758Y-121997944D03*
%TD*%
D18*
%TO.C,C6*%
X105750000Y-118390000D03*
X105750000Y-119940000D03*
%TD*%
D22*
%TO.C,R1*%
X133620000Y-107690000D03*
X135270000Y-107690000D03*
%TD*%
D23*
%TO.C,C11*%
X142500000Y-102800000D03*
X142500000Y-101250000D03*
%TD*%
%TO.C,C10*%
X139500000Y-102800000D03*
X139500000Y-101250000D03*
%TD*%
D36*
%TO.C,J3*%
X117762944Y-88768412D03*
X106332944Y-88768412D03*
D37*
X116492944Y-95118412D03*
D38*
X115222944Y-97658412D03*
X113952944Y-95118412D03*
X112682944Y-97658412D03*
X111412944Y-95118412D03*
X110142944Y-97658412D03*
X108872944Y-95118412D03*
X107602944Y-97658412D03*
%TD*%
D30*
%TO.C,SW2*%
X140125000Y-112440000D03*
X147875000Y-112440000D03*
%TD*%
D39*
%TO.C,U1*%
X99350000Y-115340000D03*
X100150000Y-115340000D03*
X100950000Y-115340000D03*
X101750000Y-115340000D03*
X102550000Y-115340000D03*
X103350000Y-115340000D03*
X104150000Y-115340000D03*
X104950000Y-115340000D03*
X105750000Y-115340000D03*
X106550000Y-115340000D03*
X107350000Y-115340000D03*
D40*
X108250000Y-114240000D03*
X108250000Y-113440000D03*
X108250000Y-112640000D03*
X108250000Y-111840000D03*
X108250000Y-111040000D03*
X108250000Y-110240000D03*
X108250000Y-109440000D03*
X108250000Y-108640000D03*
X108250000Y-107840000D03*
X108250000Y-107040000D03*
X108250000Y-106240000D03*
X108250000Y-105440000D03*
X108250000Y-104640000D03*
D39*
X107350000Y-103540000D03*
X106550000Y-103540000D03*
X105750000Y-103540000D03*
X104950000Y-103540000D03*
X104150000Y-103540000D03*
X103350000Y-103540000D03*
X102550000Y-103540000D03*
X101750000Y-103540000D03*
X100950000Y-103540000D03*
X100150000Y-103540000D03*
X99350000Y-103540000D03*
D40*
X98450000Y-104640000D03*
X98450000Y-105440000D03*
X98450000Y-106240000D03*
X98450000Y-107040000D03*
X98450000Y-107840000D03*
X98450000Y-108640000D03*
X98450000Y-109440000D03*
X98450000Y-110240000D03*
X98450000Y-111040000D03*
X98450000Y-111840000D03*
X98450000Y-112640000D03*
X98450000Y-113440000D03*
X98450000Y-114240000D03*
D41*
X101375000Y-111415000D03*
D42*
X103350000Y-111415000D03*
X105325000Y-111415000D03*
X101375000Y-109440000D03*
X103350000Y-109440000D03*
X105325000Y-109440000D03*
X101375000Y-107465000D03*
X103350000Y-107465000D03*
X105325000Y-107465000D03*
D43*
X98400000Y-103490000D03*
X108300000Y-103490000D03*
X108300000Y-115390000D03*
X98400000Y-115390000D03*
%TD*%
D44*
%TO.C,U3*%
X138440000Y-98250000D03*
X139710000Y-98250000D03*
X140980000Y-98250000D03*
X142250000Y-98250000D03*
X142250000Y-93300000D03*
X140980000Y-93300000D03*
X139710000Y-93300000D03*
X138440000Y-93300000D03*
%TD*%
D19*
%TO.C,C9*%
X154473219Y-117690000D03*
X156023219Y-117690000D03*
%TD*%
M02*
